M48
; DRILL file KiCad 10.0.4 date 2026-07-14T22:28:03
; FORMAT={-:-/ absolute / metric / decimal}
; #@! TF.CreationDate,2026-07-14T22:28:03-07:00
; #@! TF.GenerationSoftware,Kicad,Pcbnew,10.0.4
; #@! TF.FileFunction,Plated,1,2,PTH
FMAT,2
METRIC
; #@! TA.AperFunction,Plated,PTH,ViaDrill
T1C0.300
; #@! TA.AperFunction,Plated,PTH,ViaDrill
T2C0.400
; #@! TA.AperFunction,Plated,PTH,ComponentDrill
T3C0.460
; #@! TA.AperFunction,Plated,PTH,ComponentDrill
T4C0.600
; #@! TA.AperFunction,Plated,PTH,ComponentDrill
T5C0.750
; #@! TA.AperFunction,Plated,PTH,ComponentDrill
T6C0.800
; #@! TA.AperFunction,Plated,PTH,ComponentDrill
T7C1.000
; #@! TA.AperFunction,Plated,PTH,ComponentDrill
T8C1.100
; #@! TA.AperFunction,Plated,PTH,ComponentDrill
T9C1.300
; #@! TA.AperFunction,Plated,PTH,ComponentDrill
T10C1.500
%
G90
G05
T1
X6.45Y-6.45
X6.45Y-12.45
X6.45Y-18.45
X6.45Y-24.45
X6.45Y-30.45
X6.45Y-36.45
X6.45Y-42.45
X7.0Y-45.62
X7.0Y-54.38
X22.5Y-117.4
X22.5Y-118.5
X22.5Y-119.6
X27.8Y-112.5
X33.9Y-116.0
X34.0Y-45.0
X34.0Y-55.0
X35.0Y-116.0
X35.0Y-117.1
X54.0Y-47.2
X54.0Y-52.8
X58.0Y-126.0
X60.4Y-113.4
X60.95Y-112.4
X61.5Y-113.4
X64.0Y-126.0
X65.1Y-122.6
X65.4Y-119.0
X70.0Y-119.2
X70.0Y-120.8
X70.0Y-126.0
X74.6Y-116.1
X75.9Y-123.05
X76.0Y-126.0
X76.3Y-116.3
X76.6Y-119.0
X78.2Y-119.0
X79.0Y-113.4
X79.55Y-112.4
X80.1Y-113.4
X81.45Y-123.85
X82.0Y-108.0
X82.0Y-120.0
X82.0Y-126.0
X83.5Y-50.0
X83.5Y-58.0
X85.91Y-122.35
X92.0Y-119.3
X103.46Y-74.5
X104.5Y-122.6
X108.05Y-128.35
X108.54Y-25.5
X109.0Y-113.0
X109.0Y-119.0
X109.95Y-127.0
X110.95Y-128.5
X114.3Y-125.0
X115.0Y-119.0
X115.7Y-125.0
X118.0Y-128.35
X119.3Y-128.2
X119.8Y-124.67
X120.0Y-122.6
X120.3Y-121.28
X121.0Y-113.0
X121.0Y-119.0
X124.0Y-104.0
X124.0Y-110.0
X124.0Y-116.0
X124.0Y-128.0
X127.0Y-119.0
X128.2Y-113.2
X130.0Y-104.0
X130.0Y-110.0
X130.0Y-116.0
X130.0Y-128.0
X130.9Y-123.05
X136.0Y-104.0
X136.0Y-110.0
X137.0Y-104.0
X137.0Y-110.0
X140.0Y-77.5
X140.6Y-111.6
X141.04Y-119.55
X141.5Y-111.6
X142.0Y-77.5
X142.0Y-104.0
X142.0Y-110.0
X143.0Y-104.0
X143.0Y-110.0
X143.4Y-88.0
X143.96Y-112.5
X144.05Y-125.5
X145.1Y-91.0
X145.3Y-117.0
X148.0Y-104.0
X148.0Y-110.0
X148.0Y-122.0
X148.0Y-128.0
X149.0Y-104.0
X149.0Y-110.0
X149.0Y-128.0
X151.875Y-28.6
X151.875Y-30.4
X151.95Y-128.5
X152.5Y-112.5
X155.0Y-104.0
X159.875Y-28.6
X159.875Y-30.4
X159.9Y-37.2
X159.9Y-38.5
X161.0Y-104.0
X161.0Y-110.0
X161.0Y-122.0
X161.0Y-128.0
X164.2Y-90.0
X165.0Y-91.0
X213.0Y-45.62
X213.0Y-54.38
T2
X1.45Y-1.45
X1.45Y-9.45
X1.45Y-17.45
X1.45Y-25.45
X1.45Y-33.45
X1.45Y-41.45
X1.45Y-57.45
X1.45Y-65.45
X1.45Y-73.45
X1.45Y-81.45
X1.45Y-89.45
X1.45Y-97.45
X1.45Y-105.45
X9.45Y-1.45
X9.45Y-9.45
X9.45Y-17.45
X9.45Y-25.45
X9.45Y-33.45
X9.45Y-41.45
X9.45Y-57.45
X9.45Y-65.45
X9.45Y-73.45
X9.45Y-81.45
X9.45Y-89.45
X9.45Y-97.45
X9.45Y-105.45
X17.45Y-1.45
X17.45Y-9.45
X17.45Y-17.45
X17.45Y-25.45
X17.45Y-33.45
X17.45Y-41.45
X17.45Y-57.45
X17.45Y-65.45
X17.45Y-73.45
X17.45Y-81.45
X17.45Y-89.45
X17.45Y-97.45
X17.45Y-105.45
X25.45Y-1.45
X25.45Y-9.45
X25.45Y-17.45
X25.45Y-25.45
X25.45Y-33.45
X25.45Y-41.45
X25.45Y-57.45
X25.45Y-65.45
X25.45Y-73.45
X25.45Y-81.45
X25.45Y-89.45
X25.45Y-97.45
X25.45Y-105.45
X33.45Y-1.45
X33.45Y-9.45
X33.45Y-17.45
X33.45Y-25.45
X33.45Y-33.45
X33.45Y-97.45
X33.45Y-105.45
X41.45Y-1.45
X41.45Y-9.45
X41.45Y-17.45
X41.45Y-25.45
X41.45Y-33.45
X41.45Y-41.45
X41.45Y-57.45
X41.45Y-65.45
X41.45Y-73.45
X41.45Y-81.45
X41.45Y-89.45
X41.45Y-97.45
X41.45Y-105.45
X49.45Y-1.45
X49.45Y-9.45
X49.45Y-17.45
X49.45Y-25.45
X49.45Y-33.45
X49.45Y-41.45
X49.45Y-57.45
X49.45Y-65.45
X49.45Y-73.45
X49.45Y-89.45
X49.45Y-97.45
X49.45Y-105.45
X57.45Y-1.45
X57.45Y-9.45
X57.45Y-17.45
X57.45Y-25.45
X57.45Y-41.45
X57.45Y-57.45
X57.45Y-65.45
X57.45Y-73.45
X57.45Y-89.45
X57.45Y-97.45
X57.45Y-105.45
X65.45Y-1.45
X65.45Y-9.45
X65.45Y-17.45
X65.45Y-25.45
X65.45Y-33.45
X65.45Y-41.45
X65.45Y-57.45
X65.45Y-65.45
X65.45Y-73.45
X65.45Y-81.45
X65.45Y-89.45
X65.45Y-97.45
X65.45Y-105.45
X73.45Y-1.45
X73.45Y-9.45
X73.45Y-17.45
X73.45Y-25.45
X73.45Y-33.45
X73.45Y-41.45
X73.45Y-49.45
X73.45Y-57.45
X73.45Y-65.45
X73.45Y-73.45
X73.45Y-89.45
X73.45Y-97.45
X73.45Y-105.45
X81.45Y-1.45
X81.45Y-9.45
X81.45Y-17.45
X81.45Y-25.45
X81.45Y-33.45
X81.45Y-41.45
X81.45Y-57.45
X81.45Y-65.45
X81.45Y-73.45
X81.45Y-81.45
X81.45Y-89.45
X81.45Y-97.45
X81.45Y-105.45
X89.45Y-1.45
X89.45Y-9.45
X89.45Y-17.45
X89.45Y-25.45
X89.45Y-33.45
X89.45Y-41.45
X89.45Y-49.45
X89.45Y-57.45
X89.45Y-65.45
X89.45Y-73.45
X89.45Y-81.45
X89.45Y-89.45
X89.45Y-97.45
X89.45Y-105.45
X90.0Y-15.0
X90.0Y-23.0
X90.0Y-31.0
X90.0Y-47.0
X90.0Y-53.0
X90.0Y-69.0
X90.0Y-77.0
X90.0Y-85.0
X97.45Y-1.45
X97.45Y-9.45
X97.45Y-17.45
X97.45Y-25.45
X97.45Y-33.45
X97.45Y-41.45
X97.45Y-49.45
X97.45Y-57.45
X97.45Y-73.45
X97.45Y-81.45
X97.45Y-89.45
X97.45Y-97.45
X97.45Y-105.45
X98.0Y-15.0
X98.0Y-23.0
X98.0Y-31.0
X98.0Y-47.0
X98.0Y-53.0
X98.0Y-61.0
X98.0Y-69.0
X98.0Y-77.0
X98.0Y-85.0
X105.45Y-1.45
X105.45Y-9.45
X105.45Y-17.45
X105.45Y-25.45
X105.45Y-33.45
X105.45Y-49.45
X105.45Y-57.45
X105.45Y-65.45
X105.45Y-73.45
X105.45Y-81.45
X105.45Y-89.45
X105.45Y-97.45
X105.45Y-105.45
X106.0Y-15.0
X106.0Y-23.0
X106.0Y-47.0
X106.0Y-53.0
X106.0Y-77.0
X106.0Y-85.0
X113.45Y-1.45
X113.45Y-9.45
X113.45Y-17.45
X113.45Y-25.45
X113.45Y-33.45
X113.45Y-49.45
X113.45Y-57.45
X113.45Y-65.45
X113.45Y-73.45
X113.45Y-81.45
X113.45Y-89.45
X113.45Y-97.45
X113.45Y-105.45
X114.0Y-15.0
X114.0Y-23.0
X114.0Y-47.0
X114.0Y-53.0
X114.0Y-77.0
X114.0Y-85.0
X121.45Y-1.45
X121.45Y-9.45
X121.45Y-17.45
X121.45Y-25.45
X121.45Y-33.45
X121.45Y-41.45
X121.45Y-49.45
X121.45Y-57.45
X121.45Y-65.45
X121.45Y-73.45
X121.45Y-89.45
X121.45Y-97.45
X121.45Y-105.45
X122.0Y-15.0
X122.0Y-23.0
X122.0Y-39.0
X122.0Y-47.0
X122.0Y-53.0
X122.0Y-61.0
X122.0Y-77.0
X122.0Y-85.0
X124.0Y-76.0
X124.0Y-84.0
X124.0Y-92.0
X124.0Y-100.0
X125.0Y-34.0
X125.0Y-42.0
X125.0Y-50.0
X125.0Y-58.0
X125.0Y-66.0
X129.45Y-1.45
X129.45Y-9.45
X129.45Y-17.45
X129.45Y-25.45
X129.45Y-33.45
X129.45Y-41.45
X129.45Y-49.45
X129.45Y-57.45
X129.45Y-65.45
X129.45Y-73.45
X129.45Y-81.45
X129.45Y-89.45
X129.45Y-97.45
X129.45Y-105.45
X132.0Y-84.0
X132.0Y-92.0
X132.0Y-100.0
X133.0Y-34.0
X133.0Y-42.0
X133.0Y-50.0
X133.0Y-58.0
X133.0Y-66.0
X137.45Y-1.45
X137.45Y-9.45
X137.45Y-17.45
X137.45Y-25.45
X137.45Y-73.45
X137.45Y-81.45
X137.45Y-89.45
X137.45Y-97.45
X137.45Y-105.45
X140.0Y-92.0
X140.0Y-100.0
X141.0Y-34.0
X141.0Y-42.0
X145.45Y-1.45
X145.45Y-9.45
X145.45Y-17.45
X145.45Y-25.45
X145.45Y-33.45
X145.45Y-41.45
X145.45Y-57.45
X145.45Y-65.45
X145.45Y-73.45
X145.45Y-97.45
X145.45Y-105.45
X148.0Y-68.0
X148.0Y-84.0
X148.0Y-92.0
X148.0Y-100.0
X149.0Y-42.0
X149.0Y-66.0
X153.45Y-1.45
X153.45Y-9.45
X153.45Y-17.45
X153.45Y-25.45
X153.45Y-33.45
X153.45Y-41.45
X153.45Y-57.45
X153.45Y-65.45
X153.45Y-73.45
X153.45Y-89.45
X153.45Y-97.45
X153.45Y-105.45
X156.0Y-68.0
X156.0Y-84.0
X156.0Y-92.0
X156.0Y-100.0
X157.0Y-34.0
X157.0Y-42.0
X157.0Y-58.0
X157.0Y-66.0
X161.45Y-1.45
X161.45Y-9.45
X161.45Y-17.45
X161.45Y-25.45
X161.45Y-33.45
X161.45Y-41.45
X161.45Y-49.45
X161.45Y-57.45
X161.45Y-65.45
X161.45Y-73.45
X161.45Y-89.45
X161.45Y-97.45
X161.45Y-105.45
X169.45Y-1.45
X169.45Y-9.45
X169.45Y-17.45
X169.45Y-25.45
X169.45Y-33.45
X169.45Y-41.45
X169.45Y-57.45
X169.45Y-65.45
X169.45Y-73.45
X169.45Y-89.45
X169.45Y-97.45
X169.45Y-105.45
X177.45Y-1.45
X177.45Y-9.45
X177.45Y-17.45
X177.45Y-25.45
X177.45Y-33.45
X177.45Y-41.45
X177.45Y-49.45
X177.45Y-57.45
X177.45Y-65.45
X177.45Y-73.45
X177.45Y-81.45
X177.45Y-89.45
X177.45Y-97.45
X177.45Y-105.45
X185.45Y-1.45
X185.45Y-9.45
X185.45Y-17.45
X185.45Y-25.45
X185.45Y-33.45
X185.45Y-41.45
X185.45Y-57.45
X185.45Y-65.45
X185.45Y-73.45
X185.45Y-81.45
X185.45Y-89.45
X185.45Y-97.45
X185.45Y-105.45
X193.45Y-1.45
X193.45Y-9.45
X193.45Y-17.45
X193.45Y-25.45
X193.45Y-33.45
X193.45Y-41.45
X193.45Y-49.45
X193.45Y-57.45
X193.45Y-65.45
X193.45Y-73.45
X193.45Y-81.45
X193.45Y-89.45
X193.45Y-97.45
X193.45Y-105.45
X201.45Y-1.45
X201.45Y-9.45
X201.45Y-17.45
X201.45Y-25.45
X201.45Y-33.45
X201.45Y-41.45
X201.45Y-49.45
X201.45Y-57.45
X201.45Y-65.45
X201.45Y-73.45
X201.45Y-81.45
X201.45Y-89.45
X201.45Y-105.45
X209.45Y-1.45
X209.45Y-9.45
X209.45Y-17.45
X209.45Y-25.45
X209.45Y-33.45
X209.45Y-41.45
X209.45Y-57.45
X209.45Y-65.45
X209.45Y-73.45
X209.45Y-81.45
X209.45Y-89.45
X209.45Y-105.45
X217.45Y-1.45
X217.45Y-9.45
X217.45Y-17.45
X217.45Y-25.45
X217.45Y-33.45
X217.45Y-41.45
X217.45Y-57.45
X217.45Y-65.45
X217.45Y-73.45
X217.45Y-81.45
X217.45Y-89.45
X217.45Y-97.45
X217.45Y-105.45
T3
X5.98Y-45.62
X5.98Y-54.38
X214.02Y-45.62
X214.02Y-54.38
T5
X70.0Y-82.0
X70.0Y-91.0
X71.27Y-82.0
X71.27Y-91.0
X72.54Y-82.0
X72.54Y-91.0
T6
X54.92Y-82.0
X57.46Y-82.0
X60.0Y-82.0
X76.46Y-48.73
X76.46Y-51.27
X81.54Y-47.46
X81.54Y-50.0
X81.54Y-52.54
X115.5Y-82.0
X119.0Y-82.0
X176.0Y-86.0
X179.5Y-86.0
T7
X90.0Y-125.0
X92.54Y-125.0
X137.19Y-47.46
X137.19Y-50.0
X137.19Y-52.54
X144.81Y-48.73
X144.81Y-51.27
X164.0Y-116.0
X169.0Y-116.0
X178.0Y-116.0
X183.0Y-116.0
T8
X100.92Y-69.0
X103.46Y-69.0
X106.0Y-31.0
X106.0Y-69.0
X108.54Y-31.0
X111.08Y-31.0
X140.0Y-84.0
X141.7Y-84.0
X143.4Y-84.0
X145.1Y-84.0
X146.8Y-84.0
T9
X205.0Y-97.0
X210.0Y-97.0
T10
X46.0Y-34.0
X46.0Y-38.57
X156.0Y-50.0
X156.0Y-54.57
X173.0Y-50.0
X173.0Y-54.57
X190.0Y-50.0
X190.0Y-54.57
T4
X25.68Y-122.32G85X25.68Y-123.42
G05
X25.68Y-126.75G85X25.68Y-127.35
G05
X34.32Y-122.32G85X34.32Y-123.42
G05
X34.32Y-126.75G85X34.32Y-127.35
G05
M30
