%TF.GenerationSoftware,KiCad,Pcbnew,10.0.4*%
%TF.CreationDate,2026-07-14T22:27:44-07:00*%
%TF.ProjectId,mrf101_40m_pa_usbpd,6d726631-3031-45f3-9430-6d5f70615f75,rev?*%
%TF.SameCoordinates,Original*%
%TF.FileFunction,Legend,Top*%
%TF.FilePolarity,Positive*%
%FSLAX46Y46*%
G04 Gerber Fmt 4.6, Leading zero omitted, Abs format (unit mm)*
G04 Created by KiCad (PCBNEW 10.0.4) date 2026-07-14 22:27:44*
%MOMM*%
%LPD*%
G01*
G04 APERTURE LIST*
%ADD10C,0.150000*%
%ADD11C,0.120000*%
G04 APERTURE END LIST*
D10*
X182833333Y-59509580D02*
X182785714Y-59557200D01*
X182785714Y-59557200D02*
X182642857Y-59604819D01*
X182642857Y-59604819D02*
X182547619Y-59604819D01*
X182547619Y-59604819D02*
X182404762Y-59557200D01*
X182404762Y-59557200D02*
X182309524Y-59461961D01*
X182309524Y-59461961D02*
X182261905Y-59366723D01*
X182261905Y-59366723D02*
X182214286Y-59176247D01*
X182214286Y-59176247D02*
X182214286Y-59033390D01*
X182214286Y-59033390D02*
X182261905Y-58842914D01*
X182261905Y-58842914D02*
X182309524Y-58747676D01*
X182309524Y-58747676D02*
X182404762Y-58652438D01*
X182404762Y-58652438D02*
X182547619Y-58604819D01*
X182547619Y-58604819D02*
X182642857Y-58604819D01*
X182642857Y-58604819D02*
X182785714Y-58652438D01*
X182785714Y-58652438D02*
X182833333Y-58700057D01*
X183738095Y-58604819D02*
X183261905Y-58604819D01*
X183261905Y-58604819D02*
X183214286Y-59081009D01*
X183214286Y-59081009D02*
X183261905Y-59033390D01*
X183261905Y-59033390D02*
X183357143Y-58985771D01*
X183357143Y-58985771D02*
X183595238Y-58985771D01*
X183595238Y-58985771D02*
X183690476Y-59033390D01*
X183690476Y-59033390D02*
X183738095Y-59081009D01*
X183738095Y-59081009D02*
X183785714Y-59176247D01*
X183785714Y-59176247D02*
X183785714Y-59414342D01*
X183785714Y-59414342D02*
X183738095Y-59509580D01*
X183738095Y-59509580D02*
X183690476Y-59557200D01*
X183690476Y-59557200D02*
X183595238Y-59604819D01*
X183595238Y-59604819D02*
X183357143Y-59604819D01*
X183357143Y-59604819D02*
X183261905Y-59557200D01*
X183261905Y-59557200D02*
X183214286Y-59509580D01*
X189833333Y-47704819D02*
X189357143Y-47704819D01*
X189357143Y-47704819D02*
X189357143Y-46704819D01*
X190071429Y-46704819D02*
X190690476Y-46704819D01*
X190690476Y-46704819D02*
X190357143Y-47085771D01*
X190357143Y-47085771D02*
X190500000Y-47085771D01*
X190500000Y-47085771D02*
X190595238Y-47133390D01*
X190595238Y-47133390D02*
X190642857Y-47181009D01*
X190642857Y-47181009D02*
X190690476Y-47276247D01*
X190690476Y-47276247D02*
X190690476Y-47514342D01*
X190690476Y-47514342D02*
X190642857Y-47609580D01*
X190642857Y-47609580D02*
X190595238Y-47657200D01*
X190595238Y-47657200D02*
X190500000Y-47704819D01*
X190500000Y-47704819D02*
X190214286Y-47704819D01*
X190214286Y-47704819D02*
X190119048Y-47657200D01*
X190119048Y-47657200D02*
X190071429Y-47609580D01*
X78238095Y-48184819D02*
X78809523Y-48184819D01*
X78523809Y-49184819D02*
X78523809Y-48184819D01*
X79666666Y-49184819D02*
X79095238Y-49184819D01*
X79380952Y-49184819D02*
X79380952Y-48184819D01*
X79380952Y-48184819D02*
X79285714Y-48327676D01*
X79285714Y-48327676D02*
X79190476Y-48422914D01*
X79190476Y-48422914D02*
X79095238Y-48470533D01*
X148357142Y-27324819D02*
X148023809Y-26848628D01*
X147785714Y-27324819D02*
X147785714Y-26324819D01*
X147785714Y-26324819D02*
X148166666Y-26324819D01*
X148166666Y-26324819D02*
X148261904Y-26372438D01*
X148261904Y-26372438D02*
X148309523Y-26420057D01*
X148309523Y-26420057D02*
X148357142Y-26515295D01*
X148357142Y-26515295D02*
X148357142Y-26658152D01*
X148357142Y-26658152D02*
X148309523Y-26753390D01*
X148309523Y-26753390D02*
X148261904Y-26801009D01*
X148261904Y-26801009D02*
X148166666Y-26848628D01*
X148166666Y-26848628D02*
X147785714Y-26848628D01*
X148690476Y-26324819D02*
X149309523Y-26324819D01*
X149309523Y-26324819D02*
X148976190Y-26705771D01*
X148976190Y-26705771D02*
X149119047Y-26705771D01*
X149119047Y-26705771D02*
X149214285Y-26753390D01*
X149214285Y-26753390D02*
X149261904Y-26801009D01*
X149261904Y-26801009D02*
X149309523Y-26896247D01*
X149309523Y-26896247D02*
X149309523Y-27134342D01*
X149309523Y-27134342D02*
X149261904Y-27229580D01*
X149261904Y-27229580D02*
X149214285Y-27277200D01*
X149214285Y-27277200D02*
X149119047Y-27324819D01*
X149119047Y-27324819D02*
X148833333Y-27324819D01*
X148833333Y-27324819D02*
X148738095Y-27277200D01*
X148738095Y-27277200D02*
X148690476Y-27229580D01*
X150166666Y-26658152D02*
X150166666Y-27324819D01*
X149928571Y-26277200D02*
X149690476Y-26991485D01*
X149690476Y-26991485D02*
X150309523Y-26991485D01*
X49357142Y-76804819D02*
X49023809Y-76328628D01*
X48785714Y-76804819D02*
X48785714Y-75804819D01*
X48785714Y-75804819D02*
X49166666Y-75804819D01*
X49166666Y-75804819D02*
X49261904Y-75852438D01*
X49261904Y-75852438D02*
X49309523Y-75900057D01*
X49309523Y-75900057D02*
X49357142Y-75995295D01*
X49357142Y-75995295D02*
X49357142Y-76138152D01*
X49357142Y-76138152D02*
X49309523Y-76233390D01*
X49309523Y-76233390D02*
X49261904Y-76281009D01*
X49261904Y-76281009D02*
X49166666Y-76328628D01*
X49166666Y-76328628D02*
X48785714Y-76328628D01*
X50309523Y-76804819D02*
X49738095Y-76804819D01*
X50023809Y-76804819D02*
X50023809Y-75804819D01*
X50023809Y-75804819D02*
X49928571Y-75947676D01*
X49928571Y-75947676D02*
X49833333Y-76042914D01*
X49833333Y-76042914D02*
X49738095Y-76090533D01*
X51166666Y-76138152D02*
X51166666Y-76804819D01*
X50928571Y-75757200D02*
X50690476Y-76471485D01*
X50690476Y-76471485D02*
X51309523Y-76471485D01*
X71174761Y-78990057D02*
X71079523Y-78942438D01*
X71079523Y-78942438D02*
X70984285Y-78847200D01*
X70984285Y-78847200D02*
X70841428Y-78704342D01*
X70841428Y-78704342D02*
X70746190Y-78656723D01*
X70746190Y-78656723D02*
X70650952Y-78656723D01*
X70698571Y-78894819D02*
X70603333Y-78847200D01*
X70603333Y-78847200D02*
X70508095Y-78751961D01*
X70508095Y-78751961D02*
X70460476Y-78561485D01*
X70460476Y-78561485D02*
X70460476Y-78228152D01*
X70460476Y-78228152D02*
X70508095Y-78037676D01*
X70508095Y-78037676D02*
X70603333Y-77942438D01*
X70603333Y-77942438D02*
X70698571Y-77894819D01*
X70698571Y-77894819D02*
X70889047Y-77894819D01*
X70889047Y-77894819D02*
X70984285Y-77942438D01*
X70984285Y-77942438D02*
X71079523Y-78037676D01*
X71079523Y-78037676D02*
X71127142Y-78228152D01*
X71127142Y-78228152D02*
X71127142Y-78561485D01*
X71127142Y-78561485D02*
X71079523Y-78751961D01*
X71079523Y-78751961D02*
X70984285Y-78847200D01*
X70984285Y-78847200D02*
X70889047Y-78894819D01*
X70889047Y-78894819D02*
X70698571Y-78894819D01*
X71460476Y-77894819D02*
X72079523Y-77894819D01*
X72079523Y-77894819D02*
X71746190Y-78275771D01*
X71746190Y-78275771D02*
X71889047Y-78275771D01*
X71889047Y-78275771D02*
X71984285Y-78323390D01*
X71984285Y-78323390D02*
X72031904Y-78371009D01*
X72031904Y-78371009D02*
X72079523Y-78466247D01*
X72079523Y-78466247D02*
X72079523Y-78704342D01*
X72079523Y-78704342D02*
X72031904Y-78799580D01*
X72031904Y-78799580D02*
X71984285Y-78847200D01*
X71984285Y-78847200D02*
X71889047Y-78894819D01*
X71889047Y-78894819D02*
X71603333Y-78894819D01*
X71603333Y-78894819D02*
X71508095Y-78847200D01*
X71508095Y-78847200D02*
X71460476Y-78799580D01*
X149359580Y-43142857D02*
X149407200Y-43190476D01*
X149407200Y-43190476D02*
X149454819Y-43333333D01*
X149454819Y-43333333D02*
X149454819Y-43428571D01*
X149454819Y-43428571D02*
X149407200Y-43571428D01*
X149407200Y-43571428D02*
X149311961Y-43666666D01*
X149311961Y-43666666D02*
X149216723Y-43714285D01*
X149216723Y-43714285D02*
X149026247Y-43761904D01*
X149026247Y-43761904D02*
X148883390Y-43761904D01*
X148883390Y-43761904D02*
X148692914Y-43714285D01*
X148692914Y-43714285D02*
X148597676Y-43666666D01*
X148597676Y-43666666D02*
X148502438Y-43571428D01*
X148502438Y-43571428D02*
X148454819Y-43428571D01*
X148454819Y-43428571D02*
X148454819Y-43333333D01*
X148454819Y-43333333D02*
X148502438Y-43190476D01*
X148502438Y-43190476D02*
X148550057Y-43142857D01*
X148454819Y-42809523D02*
X148454819Y-42190476D01*
X148454819Y-42190476D02*
X148835771Y-42523809D01*
X148835771Y-42523809D02*
X148835771Y-42380952D01*
X148835771Y-42380952D02*
X148883390Y-42285714D01*
X148883390Y-42285714D02*
X148931009Y-42238095D01*
X148931009Y-42238095D02*
X149026247Y-42190476D01*
X149026247Y-42190476D02*
X149264342Y-42190476D01*
X149264342Y-42190476D02*
X149359580Y-42238095D01*
X149359580Y-42238095D02*
X149407200Y-42285714D01*
X149407200Y-42285714D02*
X149454819Y-42380952D01*
X149454819Y-42380952D02*
X149454819Y-42666666D01*
X149454819Y-42666666D02*
X149407200Y-42761904D01*
X149407200Y-42761904D02*
X149359580Y-42809523D01*
X148454819Y-41857142D02*
X148454819Y-41238095D01*
X148454819Y-41238095D02*
X148835771Y-41571428D01*
X148835771Y-41571428D02*
X148835771Y-41428571D01*
X148835771Y-41428571D02*
X148883390Y-41333333D01*
X148883390Y-41333333D02*
X148931009Y-41285714D01*
X148931009Y-41285714D02*
X149026247Y-41238095D01*
X149026247Y-41238095D02*
X149264342Y-41238095D01*
X149264342Y-41238095D02*
X149359580Y-41285714D01*
X149359580Y-41285714D02*
X149407200Y-41333333D01*
X149407200Y-41333333D02*
X149454819Y-41428571D01*
X149454819Y-41428571D02*
X149454819Y-41714285D01*
X149454819Y-41714285D02*
X149407200Y-41809523D01*
X149407200Y-41809523D02*
X149359580Y-41857142D01*
X41666666Y-117281009D02*
X41333333Y-117281009D01*
X41333333Y-117804819D02*
X41333333Y-116804819D01*
X41333333Y-116804819D02*
X41809523Y-116804819D01*
X42714285Y-117804819D02*
X42142857Y-117804819D01*
X42428571Y-117804819D02*
X42428571Y-116804819D01*
X42428571Y-116804819D02*
X42333333Y-116947676D01*
X42333333Y-116947676D02*
X42238095Y-117042914D01*
X42238095Y-117042914D02*
X42142857Y-117090533D01*
X103833333Y-40039580D02*
X103785714Y-40087200D01*
X103785714Y-40087200D02*
X103642857Y-40134819D01*
X103642857Y-40134819D02*
X103547619Y-40134819D01*
X103547619Y-40134819D02*
X103404762Y-40087200D01*
X103404762Y-40087200D02*
X103309524Y-39991961D01*
X103309524Y-39991961D02*
X103261905Y-39896723D01*
X103261905Y-39896723D02*
X103214286Y-39706247D01*
X103214286Y-39706247D02*
X103214286Y-39563390D01*
X103214286Y-39563390D02*
X103261905Y-39372914D01*
X103261905Y-39372914D02*
X103309524Y-39277676D01*
X103309524Y-39277676D02*
X103404762Y-39182438D01*
X103404762Y-39182438D02*
X103547619Y-39134819D01*
X103547619Y-39134819D02*
X103642857Y-39134819D01*
X103642857Y-39134819D02*
X103785714Y-39182438D01*
X103785714Y-39182438D02*
X103833333Y-39230057D01*
X104785714Y-40134819D02*
X104214286Y-40134819D01*
X104500000Y-40134819D02*
X104500000Y-39134819D01*
X104500000Y-39134819D02*
X104404762Y-39277676D01*
X104404762Y-39277676D02*
X104309524Y-39372914D01*
X104309524Y-39372914D02*
X104214286Y-39420533D01*
X207804819Y-121738094D02*
X206804819Y-121738094D01*
X206804819Y-121738094D02*
X206804819Y-121499999D01*
X206804819Y-121499999D02*
X206852438Y-121357142D01*
X206852438Y-121357142D02*
X206947676Y-121261904D01*
X206947676Y-121261904D02*
X207042914Y-121214285D01*
X207042914Y-121214285D02*
X207233390Y-121166666D01*
X207233390Y-121166666D02*
X207376247Y-121166666D01*
X207376247Y-121166666D02*
X207566723Y-121214285D01*
X207566723Y-121214285D02*
X207661961Y-121261904D01*
X207661961Y-121261904D02*
X207757200Y-121357142D01*
X207757200Y-121357142D02*
X207804819Y-121499999D01*
X207804819Y-121499999D02*
X207804819Y-121738094D01*
X206804819Y-120833332D02*
X206804819Y-120166666D01*
X206804819Y-120166666D02*
X207804819Y-120595237D01*
X208554819Y-112738094D02*
X207554819Y-112738094D01*
X207554819Y-112738094D02*
X207554819Y-112499999D01*
X207554819Y-112499999D02*
X207602438Y-112357142D01*
X207602438Y-112357142D02*
X207697676Y-112261904D01*
X207697676Y-112261904D02*
X207792914Y-112214285D01*
X207792914Y-112214285D02*
X207983390Y-112166666D01*
X207983390Y-112166666D02*
X208126247Y-112166666D01*
X208126247Y-112166666D02*
X208316723Y-112214285D01*
X208316723Y-112214285D02*
X208411961Y-112261904D01*
X208411961Y-112261904D02*
X208507200Y-112357142D01*
X208507200Y-112357142D02*
X208554819Y-112499999D01*
X208554819Y-112499999D02*
X208554819Y-112738094D01*
X207888152Y-111309523D02*
X208554819Y-111309523D01*
X207507200Y-111547618D02*
X208221485Y-111785713D01*
X208221485Y-111785713D02*
X208221485Y-111166666D01*
X29666666Y-119809819D02*
X29666666Y-120524104D01*
X29666666Y-120524104D02*
X29619047Y-120666961D01*
X29619047Y-120666961D02*
X29523809Y-120762200D01*
X29523809Y-120762200D02*
X29380952Y-120809819D01*
X29380952Y-120809819D02*
X29285714Y-120809819D01*
X30571428Y-120143152D02*
X30571428Y-120809819D01*
X30333333Y-119762200D02*
X30095238Y-120476485D01*
X30095238Y-120476485D02*
X30714285Y-120476485D01*
X167357142Y-80804819D02*
X167023809Y-80328628D01*
X166785714Y-80804819D02*
X166785714Y-79804819D01*
X166785714Y-79804819D02*
X167166666Y-79804819D01*
X167166666Y-79804819D02*
X167261904Y-79852438D01*
X167261904Y-79852438D02*
X167309523Y-79900057D01*
X167309523Y-79900057D02*
X167357142Y-79995295D01*
X167357142Y-79995295D02*
X167357142Y-80138152D01*
X167357142Y-80138152D02*
X167309523Y-80233390D01*
X167309523Y-80233390D02*
X167261904Y-80281009D01*
X167261904Y-80281009D02*
X167166666Y-80328628D01*
X167166666Y-80328628D02*
X166785714Y-80328628D01*
X168309523Y-80804819D02*
X167738095Y-80804819D01*
X168023809Y-80804819D02*
X168023809Y-79804819D01*
X168023809Y-79804819D02*
X167928571Y-79947676D01*
X167928571Y-79947676D02*
X167833333Y-80042914D01*
X167833333Y-80042914D02*
X167738095Y-80090533D01*
X168690476Y-79900057D02*
X168738095Y-79852438D01*
X168738095Y-79852438D02*
X168833333Y-79804819D01*
X168833333Y-79804819D02*
X169071428Y-79804819D01*
X169071428Y-79804819D02*
X169166666Y-79852438D01*
X169166666Y-79852438D02*
X169214285Y-79900057D01*
X169214285Y-79900057D02*
X169261904Y-79995295D01*
X169261904Y-79995295D02*
X169261904Y-80090533D01*
X169261904Y-80090533D02*
X169214285Y-80233390D01*
X169214285Y-80233390D02*
X168642857Y-80804819D01*
X168642857Y-80804819D02*
X169261904Y-80804819D01*
X48059580Y-120642857D02*
X48107200Y-120690476D01*
X48107200Y-120690476D02*
X48154819Y-120833333D01*
X48154819Y-120833333D02*
X48154819Y-120928571D01*
X48154819Y-120928571D02*
X48107200Y-121071428D01*
X48107200Y-121071428D02*
X48011961Y-121166666D01*
X48011961Y-121166666D02*
X47916723Y-121214285D01*
X47916723Y-121214285D02*
X47726247Y-121261904D01*
X47726247Y-121261904D02*
X47583390Y-121261904D01*
X47583390Y-121261904D02*
X47392914Y-121214285D01*
X47392914Y-121214285D02*
X47297676Y-121166666D01*
X47297676Y-121166666D02*
X47202438Y-121071428D01*
X47202438Y-121071428D02*
X47154819Y-120928571D01*
X47154819Y-120928571D02*
X47154819Y-120833333D01*
X47154819Y-120833333D02*
X47202438Y-120690476D01*
X47202438Y-120690476D02*
X47250057Y-120642857D01*
X47250057Y-120261904D02*
X47202438Y-120214285D01*
X47202438Y-120214285D02*
X47154819Y-120119047D01*
X47154819Y-120119047D02*
X47154819Y-119880952D01*
X47154819Y-119880952D02*
X47202438Y-119785714D01*
X47202438Y-119785714D02*
X47250057Y-119738095D01*
X47250057Y-119738095D02*
X47345295Y-119690476D01*
X47345295Y-119690476D02*
X47440533Y-119690476D01*
X47440533Y-119690476D02*
X47583390Y-119738095D01*
X47583390Y-119738095D02*
X48154819Y-120309523D01*
X48154819Y-120309523D02*
X48154819Y-119690476D01*
X48154819Y-119214285D02*
X48154819Y-119023809D01*
X48154819Y-119023809D02*
X48107200Y-118928571D01*
X48107200Y-118928571D02*
X48059580Y-118880952D01*
X48059580Y-118880952D02*
X47916723Y-118785714D01*
X47916723Y-118785714D02*
X47726247Y-118738095D01*
X47726247Y-118738095D02*
X47345295Y-118738095D01*
X47345295Y-118738095D02*
X47250057Y-118785714D01*
X47250057Y-118785714D02*
X47202438Y-118833333D01*
X47202438Y-118833333D02*
X47154819Y-118928571D01*
X47154819Y-118928571D02*
X47154819Y-119119047D01*
X47154819Y-119119047D02*
X47202438Y-119214285D01*
X47202438Y-119214285D02*
X47250057Y-119261904D01*
X47250057Y-119261904D02*
X47345295Y-119309523D01*
X47345295Y-119309523D02*
X47583390Y-119309523D01*
X47583390Y-119309523D02*
X47678628Y-119261904D01*
X47678628Y-119261904D02*
X47726247Y-119214285D01*
X47726247Y-119214285D02*
X47773866Y-119119047D01*
X47773866Y-119119047D02*
X47773866Y-118928571D01*
X47773866Y-118928571D02*
X47726247Y-118833333D01*
X47726247Y-118833333D02*
X47678628Y-118785714D01*
X47678628Y-118785714D02*
X47583390Y-118738095D01*
X79657142Y-118504819D02*
X79323809Y-118028628D01*
X79085714Y-118504819D02*
X79085714Y-117504819D01*
X79085714Y-117504819D02*
X79466666Y-117504819D01*
X79466666Y-117504819D02*
X79561904Y-117552438D01*
X79561904Y-117552438D02*
X79609523Y-117600057D01*
X79609523Y-117600057D02*
X79657142Y-117695295D01*
X79657142Y-117695295D02*
X79657142Y-117838152D01*
X79657142Y-117838152D02*
X79609523Y-117933390D01*
X79609523Y-117933390D02*
X79561904Y-117981009D01*
X79561904Y-117981009D02*
X79466666Y-118028628D01*
X79466666Y-118028628D02*
X79085714Y-118028628D01*
X80038095Y-117600057D02*
X80085714Y-117552438D01*
X80085714Y-117552438D02*
X80180952Y-117504819D01*
X80180952Y-117504819D02*
X80419047Y-117504819D01*
X80419047Y-117504819D02*
X80514285Y-117552438D01*
X80514285Y-117552438D02*
X80561904Y-117600057D01*
X80561904Y-117600057D02*
X80609523Y-117695295D01*
X80609523Y-117695295D02*
X80609523Y-117790533D01*
X80609523Y-117790533D02*
X80561904Y-117933390D01*
X80561904Y-117933390D02*
X79990476Y-118504819D01*
X79990476Y-118504819D02*
X80609523Y-118504819D01*
X81228571Y-117504819D02*
X81323809Y-117504819D01*
X81323809Y-117504819D02*
X81419047Y-117552438D01*
X81419047Y-117552438D02*
X81466666Y-117600057D01*
X81466666Y-117600057D02*
X81514285Y-117695295D01*
X81514285Y-117695295D02*
X81561904Y-117885771D01*
X81561904Y-117885771D02*
X81561904Y-118123866D01*
X81561904Y-118123866D02*
X81514285Y-118314342D01*
X81514285Y-118314342D02*
X81466666Y-118409580D01*
X81466666Y-118409580D02*
X81419047Y-118457200D01*
X81419047Y-118457200D02*
X81323809Y-118504819D01*
X81323809Y-118504819D02*
X81228571Y-118504819D01*
X81228571Y-118504819D02*
X81133333Y-118457200D01*
X81133333Y-118457200D02*
X81085714Y-118409580D01*
X81085714Y-118409580D02*
X81038095Y-118314342D01*
X81038095Y-118314342D02*
X80990476Y-118123866D01*
X80990476Y-118123866D02*
X80990476Y-117885771D01*
X80990476Y-117885771D02*
X81038095Y-117695295D01*
X81038095Y-117695295D02*
X81085714Y-117600057D01*
X81085714Y-117600057D02*
X81133333Y-117552438D01*
X81133333Y-117552438D02*
X81228571Y-117504819D01*
X15261905Y-117454819D02*
X15261905Y-116454819D01*
X15261905Y-116454819D02*
X15500000Y-116454819D01*
X15500000Y-116454819D02*
X15642857Y-116502438D01*
X15642857Y-116502438D02*
X15738095Y-116597676D01*
X15738095Y-116597676D02*
X15785714Y-116692914D01*
X15785714Y-116692914D02*
X15833333Y-116883390D01*
X15833333Y-116883390D02*
X15833333Y-117026247D01*
X15833333Y-117026247D02*
X15785714Y-117216723D01*
X15785714Y-117216723D02*
X15738095Y-117311961D01*
X15738095Y-117311961D02*
X15642857Y-117407200D01*
X15642857Y-117407200D02*
X15500000Y-117454819D01*
X15500000Y-117454819D02*
X15261905Y-117454819D01*
X16690476Y-116454819D02*
X16500000Y-116454819D01*
X16500000Y-116454819D02*
X16404762Y-116502438D01*
X16404762Y-116502438D02*
X16357143Y-116550057D01*
X16357143Y-116550057D02*
X16261905Y-116692914D01*
X16261905Y-116692914D02*
X16214286Y-116883390D01*
X16214286Y-116883390D02*
X16214286Y-117264342D01*
X16214286Y-117264342D02*
X16261905Y-117359580D01*
X16261905Y-117359580D02*
X16309524Y-117407200D01*
X16309524Y-117407200D02*
X16404762Y-117454819D01*
X16404762Y-117454819D02*
X16595238Y-117454819D01*
X16595238Y-117454819D02*
X16690476Y-117407200D01*
X16690476Y-117407200D02*
X16738095Y-117359580D01*
X16738095Y-117359580D02*
X16785714Y-117264342D01*
X16785714Y-117264342D02*
X16785714Y-117026247D01*
X16785714Y-117026247D02*
X16738095Y-116931009D01*
X16738095Y-116931009D02*
X16690476Y-116883390D01*
X16690476Y-116883390D02*
X16595238Y-116835771D01*
X16595238Y-116835771D02*
X16404762Y-116835771D01*
X16404762Y-116835771D02*
X16309524Y-116883390D01*
X16309524Y-116883390D02*
X16261905Y-116931009D01*
X16261905Y-116931009D02*
X16214286Y-117026247D01*
X149359580Y-35642857D02*
X149407200Y-35690476D01*
X149407200Y-35690476D02*
X149454819Y-35833333D01*
X149454819Y-35833333D02*
X149454819Y-35928571D01*
X149454819Y-35928571D02*
X149407200Y-36071428D01*
X149407200Y-36071428D02*
X149311961Y-36166666D01*
X149311961Y-36166666D02*
X149216723Y-36214285D01*
X149216723Y-36214285D02*
X149026247Y-36261904D01*
X149026247Y-36261904D02*
X148883390Y-36261904D01*
X148883390Y-36261904D02*
X148692914Y-36214285D01*
X148692914Y-36214285D02*
X148597676Y-36166666D01*
X148597676Y-36166666D02*
X148502438Y-36071428D01*
X148502438Y-36071428D02*
X148454819Y-35928571D01*
X148454819Y-35928571D02*
X148454819Y-35833333D01*
X148454819Y-35833333D02*
X148502438Y-35690476D01*
X148502438Y-35690476D02*
X148550057Y-35642857D01*
X148454819Y-35309523D02*
X148454819Y-34690476D01*
X148454819Y-34690476D02*
X148835771Y-35023809D01*
X148835771Y-35023809D02*
X148835771Y-34880952D01*
X148835771Y-34880952D02*
X148883390Y-34785714D01*
X148883390Y-34785714D02*
X148931009Y-34738095D01*
X148931009Y-34738095D02*
X149026247Y-34690476D01*
X149026247Y-34690476D02*
X149264342Y-34690476D01*
X149264342Y-34690476D02*
X149359580Y-34738095D01*
X149359580Y-34738095D02*
X149407200Y-34785714D01*
X149407200Y-34785714D02*
X149454819Y-34880952D01*
X149454819Y-34880952D02*
X149454819Y-35166666D01*
X149454819Y-35166666D02*
X149407200Y-35261904D01*
X149407200Y-35261904D02*
X149359580Y-35309523D01*
X148788152Y-33833333D02*
X149454819Y-33833333D01*
X148407200Y-34071428D02*
X149121485Y-34309523D01*
X149121485Y-34309523D02*
X149121485Y-33690476D01*
X138357142Y-125679580D02*
X138309523Y-125727200D01*
X138309523Y-125727200D02*
X138166666Y-125774819D01*
X138166666Y-125774819D02*
X138071428Y-125774819D01*
X138071428Y-125774819D02*
X137928571Y-125727200D01*
X137928571Y-125727200D02*
X137833333Y-125631961D01*
X137833333Y-125631961D02*
X137785714Y-125536723D01*
X137785714Y-125536723D02*
X137738095Y-125346247D01*
X137738095Y-125346247D02*
X137738095Y-125203390D01*
X137738095Y-125203390D02*
X137785714Y-125012914D01*
X137785714Y-125012914D02*
X137833333Y-124917676D01*
X137833333Y-124917676D02*
X137928571Y-124822438D01*
X137928571Y-124822438D02*
X138071428Y-124774819D01*
X138071428Y-124774819D02*
X138166666Y-124774819D01*
X138166666Y-124774819D02*
X138309523Y-124822438D01*
X138309523Y-124822438D02*
X138357142Y-124870057D01*
X138690476Y-124774819D02*
X139309523Y-124774819D01*
X139309523Y-124774819D02*
X138976190Y-125155771D01*
X138976190Y-125155771D02*
X139119047Y-125155771D01*
X139119047Y-125155771D02*
X139214285Y-125203390D01*
X139214285Y-125203390D02*
X139261904Y-125251009D01*
X139261904Y-125251009D02*
X139309523Y-125346247D01*
X139309523Y-125346247D02*
X139309523Y-125584342D01*
X139309523Y-125584342D02*
X139261904Y-125679580D01*
X139261904Y-125679580D02*
X139214285Y-125727200D01*
X139214285Y-125727200D02*
X139119047Y-125774819D01*
X139119047Y-125774819D02*
X138833333Y-125774819D01*
X138833333Y-125774819D02*
X138738095Y-125727200D01*
X138738095Y-125727200D02*
X138690476Y-125679580D01*
X139690476Y-124870057D02*
X139738095Y-124822438D01*
X139738095Y-124822438D02*
X139833333Y-124774819D01*
X139833333Y-124774819D02*
X140071428Y-124774819D01*
X140071428Y-124774819D02*
X140166666Y-124822438D01*
X140166666Y-124822438D02*
X140214285Y-124870057D01*
X140214285Y-124870057D02*
X140261904Y-124965295D01*
X140261904Y-124965295D02*
X140261904Y-125060533D01*
X140261904Y-125060533D02*
X140214285Y-125203390D01*
X140214285Y-125203390D02*
X139642857Y-125774819D01*
X139642857Y-125774819D02*
X140261904Y-125774819D01*
X107357142Y-113824819D02*
X107023809Y-113348628D01*
X106785714Y-113824819D02*
X106785714Y-112824819D01*
X106785714Y-112824819D02*
X107166666Y-112824819D01*
X107166666Y-112824819D02*
X107261904Y-112872438D01*
X107261904Y-112872438D02*
X107309523Y-112920057D01*
X107309523Y-112920057D02*
X107357142Y-113015295D01*
X107357142Y-113015295D02*
X107357142Y-113158152D01*
X107357142Y-113158152D02*
X107309523Y-113253390D01*
X107309523Y-113253390D02*
X107261904Y-113301009D01*
X107261904Y-113301009D02*
X107166666Y-113348628D01*
X107166666Y-113348628D02*
X106785714Y-113348628D01*
X107738095Y-112920057D02*
X107785714Y-112872438D01*
X107785714Y-112872438D02*
X107880952Y-112824819D01*
X107880952Y-112824819D02*
X108119047Y-112824819D01*
X108119047Y-112824819D02*
X108214285Y-112872438D01*
X108214285Y-112872438D02*
X108261904Y-112920057D01*
X108261904Y-112920057D02*
X108309523Y-113015295D01*
X108309523Y-113015295D02*
X108309523Y-113110533D01*
X108309523Y-113110533D02*
X108261904Y-113253390D01*
X108261904Y-113253390D02*
X107690476Y-113824819D01*
X107690476Y-113824819D02*
X108309523Y-113824819D01*
X108785714Y-113824819D02*
X108976190Y-113824819D01*
X108976190Y-113824819D02*
X109071428Y-113777200D01*
X109071428Y-113777200D02*
X109119047Y-113729580D01*
X109119047Y-113729580D02*
X109214285Y-113586723D01*
X109214285Y-113586723D02*
X109261904Y-113396247D01*
X109261904Y-113396247D02*
X109261904Y-113015295D01*
X109261904Y-113015295D02*
X109214285Y-112920057D01*
X109214285Y-112920057D02*
X109166666Y-112872438D01*
X109166666Y-112872438D02*
X109071428Y-112824819D01*
X109071428Y-112824819D02*
X108880952Y-112824819D01*
X108880952Y-112824819D02*
X108785714Y-112872438D01*
X108785714Y-112872438D02*
X108738095Y-112920057D01*
X108738095Y-112920057D02*
X108690476Y-113015295D01*
X108690476Y-113015295D02*
X108690476Y-113253390D01*
X108690476Y-113253390D02*
X108738095Y-113348628D01*
X108738095Y-113348628D02*
X108785714Y-113396247D01*
X108785714Y-113396247D02*
X108880952Y-113443866D01*
X108880952Y-113443866D02*
X109071428Y-113443866D01*
X109071428Y-113443866D02*
X109166666Y-113396247D01*
X109166666Y-113396247D02*
X109214285Y-113348628D01*
X109214285Y-113348628D02*
X109261904Y-113253390D01*
X179857142Y-110109580D02*
X179809523Y-110157200D01*
X179809523Y-110157200D02*
X179666666Y-110204819D01*
X179666666Y-110204819D02*
X179571428Y-110204819D01*
X179571428Y-110204819D02*
X179428571Y-110157200D01*
X179428571Y-110157200D02*
X179333333Y-110061961D01*
X179333333Y-110061961D02*
X179285714Y-109966723D01*
X179285714Y-109966723D02*
X179238095Y-109776247D01*
X179238095Y-109776247D02*
X179238095Y-109633390D01*
X179238095Y-109633390D02*
X179285714Y-109442914D01*
X179285714Y-109442914D02*
X179333333Y-109347676D01*
X179333333Y-109347676D02*
X179428571Y-109252438D01*
X179428571Y-109252438D02*
X179571428Y-109204819D01*
X179571428Y-109204819D02*
X179666666Y-109204819D01*
X179666666Y-109204819D02*
X179809523Y-109252438D01*
X179809523Y-109252438D02*
X179857142Y-109300057D01*
X180238095Y-109300057D02*
X180285714Y-109252438D01*
X180285714Y-109252438D02*
X180380952Y-109204819D01*
X180380952Y-109204819D02*
X180619047Y-109204819D01*
X180619047Y-109204819D02*
X180714285Y-109252438D01*
X180714285Y-109252438D02*
X180761904Y-109300057D01*
X180761904Y-109300057D02*
X180809523Y-109395295D01*
X180809523Y-109395295D02*
X180809523Y-109490533D01*
X180809523Y-109490533D02*
X180761904Y-109633390D01*
X180761904Y-109633390D02*
X180190476Y-110204819D01*
X180190476Y-110204819D02*
X180809523Y-110204819D01*
X181142857Y-109204819D02*
X181809523Y-109204819D01*
X181809523Y-109204819D02*
X181380952Y-110204819D01*
X157357142Y-122804819D02*
X157023809Y-122328628D01*
X156785714Y-122804819D02*
X156785714Y-121804819D01*
X156785714Y-121804819D02*
X157166666Y-121804819D01*
X157166666Y-121804819D02*
X157261904Y-121852438D01*
X157261904Y-121852438D02*
X157309523Y-121900057D01*
X157309523Y-121900057D02*
X157357142Y-121995295D01*
X157357142Y-121995295D02*
X157357142Y-122138152D01*
X157357142Y-122138152D02*
X157309523Y-122233390D01*
X157309523Y-122233390D02*
X157261904Y-122281009D01*
X157261904Y-122281009D02*
X157166666Y-122328628D01*
X157166666Y-122328628D02*
X156785714Y-122328628D01*
X157738095Y-121900057D02*
X157785714Y-121852438D01*
X157785714Y-121852438D02*
X157880952Y-121804819D01*
X157880952Y-121804819D02*
X158119047Y-121804819D01*
X158119047Y-121804819D02*
X158214285Y-121852438D01*
X158214285Y-121852438D02*
X158261904Y-121900057D01*
X158261904Y-121900057D02*
X158309523Y-121995295D01*
X158309523Y-121995295D02*
X158309523Y-122090533D01*
X158309523Y-122090533D02*
X158261904Y-122233390D01*
X158261904Y-122233390D02*
X157690476Y-122804819D01*
X157690476Y-122804819D02*
X158309523Y-122804819D01*
X158880952Y-122233390D02*
X158785714Y-122185771D01*
X158785714Y-122185771D02*
X158738095Y-122138152D01*
X158738095Y-122138152D02*
X158690476Y-122042914D01*
X158690476Y-122042914D02*
X158690476Y-121995295D01*
X158690476Y-121995295D02*
X158738095Y-121900057D01*
X158738095Y-121900057D02*
X158785714Y-121852438D01*
X158785714Y-121852438D02*
X158880952Y-121804819D01*
X158880952Y-121804819D02*
X159071428Y-121804819D01*
X159071428Y-121804819D02*
X159166666Y-121852438D01*
X159166666Y-121852438D02*
X159214285Y-121900057D01*
X159214285Y-121900057D02*
X159261904Y-121995295D01*
X159261904Y-121995295D02*
X159261904Y-122042914D01*
X159261904Y-122042914D02*
X159214285Y-122138152D01*
X159214285Y-122138152D02*
X159166666Y-122185771D01*
X159166666Y-122185771D02*
X159071428Y-122233390D01*
X159071428Y-122233390D02*
X158880952Y-122233390D01*
X158880952Y-122233390D02*
X158785714Y-122281009D01*
X158785714Y-122281009D02*
X158738095Y-122328628D01*
X158738095Y-122328628D02*
X158690476Y-122423866D01*
X158690476Y-122423866D02*
X158690476Y-122614342D01*
X158690476Y-122614342D02*
X158738095Y-122709580D01*
X158738095Y-122709580D02*
X158785714Y-122757200D01*
X158785714Y-122757200D02*
X158880952Y-122804819D01*
X158880952Y-122804819D02*
X159071428Y-122804819D01*
X159071428Y-122804819D02*
X159166666Y-122757200D01*
X159166666Y-122757200D02*
X159214285Y-122709580D01*
X159214285Y-122709580D02*
X159261904Y-122614342D01*
X159261904Y-122614342D02*
X159261904Y-122423866D01*
X159261904Y-122423866D02*
X159214285Y-122328628D01*
X159214285Y-122328628D02*
X159166666Y-122281009D01*
X159166666Y-122281009D02*
X159071428Y-122233390D01*
X157833333Y-75054819D02*
X157357143Y-75054819D01*
X157357143Y-75054819D02*
X157357143Y-74054819D01*
X158642857Y-74054819D02*
X158166667Y-74054819D01*
X158166667Y-74054819D02*
X158119048Y-74531009D01*
X158119048Y-74531009D02*
X158166667Y-74483390D01*
X158166667Y-74483390D02*
X158261905Y-74435771D01*
X158261905Y-74435771D02*
X158500000Y-74435771D01*
X158500000Y-74435771D02*
X158595238Y-74483390D01*
X158595238Y-74483390D02*
X158642857Y-74531009D01*
X158642857Y-74531009D02*
X158690476Y-74626247D01*
X158690476Y-74626247D02*
X158690476Y-74864342D01*
X158690476Y-74864342D02*
X158642857Y-74959580D01*
X158642857Y-74959580D02*
X158595238Y-75007200D01*
X158595238Y-75007200D02*
X158500000Y-75054819D01*
X158500000Y-75054819D02*
X158261905Y-75054819D01*
X158261905Y-75054819D02*
X158166667Y-75007200D01*
X158166667Y-75007200D02*
X158119048Y-74959580D01*
X211104819Y-117642857D02*
X210628628Y-117976190D01*
X211104819Y-118214285D02*
X210104819Y-118214285D01*
X210104819Y-118214285D02*
X210104819Y-117833333D01*
X210104819Y-117833333D02*
X210152438Y-117738095D01*
X210152438Y-117738095D02*
X210200057Y-117690476D01*
X210200057Y-117690476D02*
X210295295Y-117642857D01*
X210295295Y-117642857D02*
X210438152Y-117642857D01*
X210438152Y-117642857D02*
X210533390Y-117690476D01*
X210533390Y-117690476D02*
X210581009Y-117738095D01*
X210581009Y-117738095D02*
X210628628Y-117833333D01*
X210628628Y-117833333D02*
X210628628Y-118214285D01*
X210104819Y-117309523D02*
X210104819Y-116690476D01*
X210104819Y-116690476D02*
X210485771Y-117023809D01*
X210485771Y-117023809D02*
X210485771Y-116880952D01*
X210485771Y-116880952D02*
X210533390Y-116785714D01*
X210533390Y-116785714D02*
X210581009Y-116738095D01*
X210581009Y-116738095D02*
X210676247Y-116690476D01*
X210676247Y-116690476D02*
X210914342Y-116690476D01*
X210914342Y-116690476D02*
X211009580Y-116738095D01*
X211009580Y-116738095D02*
X211057200Y-116785714D01*
X211057200Y-116785714D02*
X211104819Y-116880952D01*
X211104819Y-116880952D02*
X211104819Y-117166666D01*
X211104819Y-117166666D02*
X211057200Y-117261904D01*
X211057200Y-117261904D02*
X211009580Y-117309523D01*
X210104819Y-115833333D02*
X210104819Y-116023809D01*
X210104819Y-116023809D02*
X210152438Y-116119047D01*
X210152438Y-116119047D02*
X210200057Y-116166666D01*
X210200057Y-116166666D02*
X210342914Y-116261904D01*
X210342914Y-116261904D02*
X210533390Y-116309523D01*
X210533390Y-116309523D02*
X210914342Y-116309523D01*
X210914342Y-116309523D02*
X211009580Y-116261904D01*
X211009580Y-116261904D02*
X211057200Y-116214285D01*
X211057200Y-116214285D02*
X211104819Y-116119047D01*
X211104819Y-116119047D02*
X211104819Y-115928571D01*
X211104819Y-115928571D02*
X211057200Y-115833333D01*
X211057200Y-115833333D02*
X211009580Y-115785714D01*
X211009580Y-115785714D02*
X210914342Y-115738095D01*
X210914342Y-115738095D02*
X210676247Y-115738095D01*
X210676247Y-115738095D02*
X210581009Y-115785714D01*
X210581009Y-115785714D02*
X210533390Y-115833333D01*
X210533390Y-115833333D02*
X210485771Y-115928571D01*
X210485771Y-115928571D02*
X210485771Y-116119047D01*
X210485771Y-116119047D02*
X210533390Y-116214285D01*
X210533390Y-116214285D02*
X210581009Y-116261904D01*
X210581009Y-116261904D02*
X210676247Y-116309523D01*
X192733333Y-107564819D02*
X192257143Y-107564819D01*
X192257143Y-107564819D02*
X192257143Y-106564819D01*
X192971429Y-106564819D02*
X193638095Y-106564819D01*
X193638095Y-106564819D02*
X193209524Y-107564819D01*
X32833333Y-32679580D02*
X32785714Y-32727200D01*
X32785714Y-32727200D02*
X32642857Y-32774819D01*
X32642857Y-32774819D02*
X32547619Y-32774819D01*
X32547619Y-32774819D02*
X32404762Y-32727200D01*
X32404762Y-32727200D02*
X32309524Y-32631961D01*
X32309524Y-32631961D02*
X32261905Y-32536723D01*
X32261905Y-32536723D02*
X32214286Y-32346247D01*
X32214286Y-32346247D02*
X32214286Y-32203390D01*
X32214286Y-32203390D02*
X32261905Y-32012914D01*
X32261905Y-32012914D02*
X32309524Y-31917676D01*
X32309524Y-31917676D02*
X32404762Y-31822438D01*
X32404762Y-31822438D02*
X32547619Y-31774819D01*
X32547619Y-31774819D02*
X32642857Y-31774819D01*
X32642857Y-31774819D02*
X32785714Y-31822438D01*
X32785714Y-31822438D02*
X32833333Y-31870057D01*
X33309524Y-32774819D02*
X33500000Y-32774819D01*
X33500000Y-32774819D02*
X33595238Y-32727200D01*
X33595238Y-32727200D02*
X33642857Y-32679580D01*
X33642857Y-32679580D02*
X33738095Y-32536723D01*
X33738095Y-32536723D02*
X33785714Y-32346247D01*
X33785714Y-32346247D02*
X33785714Y-31965295D01*
X33785714Y-31965295D02*
X33738095Y-31870057D01*
X33738095Y-31870057D02*
X33690476Y-31822438D01*
X33690476Y-31822438D02*
X33595238Y-31774819D01*
X33595238Y-31774819D02*
X33404762Y-31774819D01*
X33404762Y-31774819D02*
X33309524Y-31822438D01*
X33309524Y-31822438D02*
X33261905Y-31870057D01*
X33261905Y-31870057D02*
X33214286Y-31965295D01*
X33214286Y-31965295D02*
X33214286Y-32203390D01*
X33214286Y-32203390D02*
X33261905Y-32298628D01*
X33261905Y-32298628D02*
X33309524Y-32346247D01*
X33309524Y-32346247D02*
X33404762Y-32393866D01*
X33404762Y-32393866D02*
X33595238Y-32393866D01*
X33595238Y-32393866D02*
X33690476Y-32346247D01*
X33690476Y-32346247D02*
X33738095Y-32298628D01*
X33738095Y-32298628D02*
X33785714Y-32203390D01*
X29833333Y-48679580D02*
X29785714Y-48727200D01*
X29785714Y-48727200D02*
X29642857Y-48774819D01*
X29642857Y-48774819D02*
X29547619Y-48774819D01*
X29547619Y-48774819D02*
X29404762Y-48727200D01*
X29404762Y-48727200D02*
X29309524Y-48631961D01*
X29309524Y-48631961D02*
X29261905Y-48536723D01*
X29261905Y-48536723D02*
X29214286Y-48346247D01*
X29214286Y-48346247D02*
X29214286Y-48203390D01*
X29214286Y-48203390D02*
X29261905Y-48012914D01*
X29261905Y-48012914D02*
X29309524Y-47917676D01*
X29309524Y-47917676D02*
X29404762Y-47822438D01*
X29404762Y-47822438D02*
X29547619Y-47774819D01*
X29547619Y-47774819D02*
X29642857Y-47774819D01*
X29642857Y-47774819D02*
X29785714Y-47822438D01*
X29785714Y-47822438D02*
X29833333Y-47870057D01*
X30166667Y-47774819D02*
X30833333Y-47774819D01*
X30833333Y-47774819D02*
X30404762Y-48774819D01*
X49357142Y-82509580D02*
X49309523Y-82557200D01*
X49309523Y-82557200D02*
X49166666Y-82604819D01*
X49166666Y-82604819D02*
X49071428Y-82604819D01*
X49071428Y-82604819D02*
X48928571Y-82557200D01*
X48928571Y-82557200D02*
X48833333Y-82461961D01*
X48833333Y-82461961D02*
X48785714Y-82366723D01*
X48785714Y-82366723D02*
X48738095Y-82176247D01*
X48738095Y-82176247D02*
X48738095Y-82033390D01*
X48738095Y-82033390D02*
X48785714Y-81842914D01*
X48785714Y-81842914D02*
X48833333Y-81747676D01*
X48833333Y-81747676D02*
X48928571Y-81652438D01*
X48928571Y-81652438D02*
X49071428Y-81604819D01*
X49071428Y-81604819D02*
X49166666Y-81604819D01*
X49166666Y-81604819D02*
X49309523Y-81652438D01*
X49309523Y-81652438D02*
X49357142Y-81700057D01*
X50309523Y-82604819D02*
X49738095Y-82604819D01*
X50023809Y-82604819D02*
X50023809Y-81604819D01*
X50023809Y-81604819D02*
X49928571Y-81747676D01*
X49928571Y-81747676D02*
X49833333Y-81842914D01*
X49833333Y-81842914D02*
X49738095Y-81890533D01*
X50642857Y-81604819D02*
X51261904Y-81604819D01*
X51261904Y-81604819D02*
X50928571Y-81985771D01*
X50928571Y-81985771D02*
X51071428Y-81985771D01*
X51071428Y-81985771D02*
X51166666Y-82033390D01*
X51166666Y-82033390D02*
X51214285Y-82081009D01*
X51214285Y-82081009D02*
X51261904Y-82176247D01*
X51261904Y-82176247D02*
X51261904Y-82414342D01*
X51261904Y-82414342D02*
X51214285Y-82509580D01*
X51214285Y-82509580D02*
X51166666Y-82557200D01*
X51166666Y-82557200D02*
X51071428Y-82604819D01*
X51071428Y-82604819D02*
X50785714Y-82604819D01*
X50785714Y-82604819D02*
X50690476Y-82557200D01*
X50690476Y-82557200D02*
X50642857Y-82509580D01*
X215284819Y-117242857D02*
X214808628Y-117576190D01*
X215284819Y-117814285D02*
X214284819Y-117814285D01*
X214284819Y-117814285D02*
X214284819Y-117433333D01*
X214284819Y-117433333D02*
X214332438Y-117338095D01*
X214332438Y-117338095D02*
X214380057Y-117290476D01*
X214380057Y-117290476D02*
X214475295Y-117242857D01*
X214475295Y-117242857D02*
X214618152Y-117242857D01*
X214618152Y-117242857D02*
X214713390Y-117290476D01*
X214713390Y-117290476D02*
X214761009Y-117338095D01*
X214761009Y-117338095D02*
X214808628Y-117433333D01*
X214808628Y-117433333D02*
X214808628Y-117814285D01*
X214284819Y-116909523D02*
X214284819Y-116290476D01*
X214284819Y-116290476D02*
X214665771Y-116623809D01*
X214665771Y-116623809D02*
X214665771Y-116480952D01*
X214665771Y-116480952D02*
X214713390Y-116385714D01*
X214713390Y-116385714D02*
X214761009Y-116338095D01*
X214761009Y-116338095D02*
X214856247Y-116290476D01*
X214856247Y-116290476D02*
X215094342Y-116290476D01*
X215094342Y-116290476D02*
X215189580Y-116338095D01*
X215189580Y-116338095D02*
X215237200Y-116385714D01*
X215237200Y-116385714D02*
X215284819Y-116480952D01*
X215284819Y-116480952D02*
X215284819Y-116766666D01*
X215284819Y-116766666D02*
X215237200Y-116861904D01*
X215237200Y-116861904D02*
X215189580Y-116909523D01*
X214284819Y-115957142D02*
X214284819Y-115290476D01*
X214284819Y-115290476D02*
X215284819Y-115719047D01*
X155833333Y-36304819D02*
X155357143Y-36304819D01*
X155357143Y-36304819D02*
X155357143Y-35304819D01*
X156309524Y-35733390D02*
X156214286Y-35685771D01*
X156214286Y-35685771D02*
X156166667Y-35638152D01*
X156166667Y-35638152D02*
X156119048Y-35542914D01*
X156119048Y-35542914D02*
X156119048Y-35495295D01*
X156119048Y-35495295D02*
X156166667Y-35400057D01*
X156166667Y-35400057D02*
X156214286Y-35352438D01*
X156214286Y-35352438D02*
X156309524Y-35304819D01*
X156309524Y-35304819D02*
X156500000Y-35304819D01*
X156500000Y-35304819D02*
X156595238Y-35352438D01*
X156595238Y-35352438D02*
X156642857Y-35400057D01*
X156642857Y-35400057D02*
X156690476Y-35495295D01*
X156690476Y-35495295D02*
X156690476Y-35542914D01*
X156690476Y-35542914D02*
X156642857Y-35638152D01*
X156642857Y-35638152D02*
X156595238Y-35685771D01*
X156595238Y-35685771D02*
X156500000Y-35733390D01*
X156500000Y-35733390D02*
X156309524Y-35733390D01*
X156309524Y-35733390D02*
X156214286Y-35781009D01*
X156214286Y-35781009D02*
X156166667Y-35828628D01*
X156166667Y-35828628D02*
X156119048Y-35923866D01*
X156119048Y-35923866D02*
X156119048Y-36114342D01*
X156119048Y-36114342D02*
X156166667Y-36209580D01*
X156166667Y-36209580D02*
X156214286Y-36257200D01*
X156214286Y-36257200D02*
X156309524Y-36304819D01*
X156309524Y-36304819D02*
X156500000Y-36304819D01*
X156500000Y-36304819D02*
X156595238Y-36257200D01*
X156595238Y-36257200D02*
X156642857Y-36209580D01*
X156642857Y-36209580D02*
X156690476Y-36114342D01*
X156690476Y-36114342D02*
X156690476Y-35923866D01*
X156690476Y-35923866D02*
X156642857Y-35828628D01*
X156642857Y-35828628D02*
X156595238Y-35781009D01*
X156595238Y-35781009D02*
X156500000Y-35733390D01*
X204159580Y-122642857D02*
X204207200Y-122690476D01*
X204207200Y-122690476D02*
X204254819Y-122833333D01*
X204254819Y-122833333D02*
X204254819Y-122928571D01*
X204254819Y-122928571D02*
X204207200Y-123071428D01*
X204207200Y-123071428D02*
X204111961Y-123166666D01*
X204111961Y-123166666D02*
X204016723Y-123214285D01*
X204016723Y-123214285D02*
X203826247Y-123261904D01*
X203826247Y-123261904D02*
X203683390Y-123261904D01*
X203683390Y-123261904D02*
X203492914Y-123214285D01*
X203492914Y-123214285D02*
X203397676Y-123166666D01*
X203397676Y-123166666D02*
X203302438Y-123071428D01*
X203302438Y-123071428D02*
X203254819Y-122928571D01*
X203254819Y-122928571D02*
X203254819Y-122833333D01*
X203254819Y-122833333D02*
X203302438Y-122690476D01*
X203302438Y-122690476D02*
X203350057Y-122642857D01*
X203350057Y-122261904D02*
X203302438Y-122214285D01*
X203302438Y-122214285D02*
X203254819Y-122119047D01*
X203254819Y-122119047D02*
X203254819Y-121880952D01*
X203254819Y-121880952D02*
X203302438Y-121785714D01*
X203302438Y-121785714D02*
X203350057Y-121738095D01*
X203350057Y-121738095D02*
X203445295Y-121690476D01*
X203445295Y-121690476D02*
X203540533Y-121690476D01*
X203540533Y-121690476D02*
X203683390Y-121738095D01*
X203683390Y-121738095D02*
X204254819Y-122309523D01*
X204254819Y-122309523D02*
X204254819Y-121690476D01*
X203683390Y-121119047D02*
X203635771Y-121214285D01*
X203635771Y-121214285D02*
X203588152Y-121261904D01*
X203588152Y-121261904D02*
X203492914Y-121309523D01*
X203492914Y-121309523D02*
X203445295Y-121309523D01*
X203445295Y-121309523D02*
X203350057Y-121261904D01*
X203350057Y-121261904D02*
X203302438Y-121214285D01*
X203302438Y-121214285D02*
X203254819Y-121119047D01*
X203254819Y-121119047D02*
X203254819Y-120928571D01*
X203254819Y-120928571D02*
X203302438Y-120833333D01*
X203302438Y-120833333D02*
X203350057Y-120785714D01*
X203350057Y-120785714D02*
X203445295Y-120738095D01*
X203445295Y-120738095D02*
X203492914Y-120738095D01*
X203492914Y-120738095D02*
X203588152Y-120785714D01*
X203588152Y-120785714D02*
X203635771Y-120833333D01*
X203635771Y-120833333D02*
X203683390Y-120928571D01*
X203683390Y-120928571D02*
X203683390Y-121119047D01*
X203683390Y-121119047D02*
X203731009Y-121214285D01*
X203731009Y-121214285D02*
X203778628Y-121261904D01*
X203778628Y-121261904D02*
X203873866Y-121309523D01*
X203873866Y-121309523D02*
X204064342Y-121309523D01*
X204064342Y-121309523D02*
X204159580Y-121261904D01*
X204159580Y-121261904D02*
X204207200Y-121214285D01*
X204207200Y-121214285D02*
X204254819Y-121119047D01*
X204254819Y-121119047D02*
X204254819Y-120928571D01*
X204254819Y-120928571D02*
X204207200Y-120833333D01*
X204207200Y-120833333D02*
X204159580Y-120785714D01*
X204159580Y-120785714D02*
X204064342Y-120738095D01*
X204064342Y-120738095D02*
X203873866Y-120738095D01*
X203873866Y-120738095D02*
X203778628Y-120785714D01*
X203778628Y-120785714D02*
X203731009Y-120833333D01*
X203731009Y-120833333D02*
X203683390Y-120928571D01*
X60857142Y-124304819D02*
X60523809Y-123828628D01*
X60285714Y-124304819D02*
X60285714Y-123304819D01*
X60285714Y-123304819D02*
X60666666Y-123304819D01*
X60666666Y-123304819D02*
X60761904Y-123352438D01*
X60761904Y-123352438D02*
X60809523Y-123400057D01*
X60809523Y-123400057D02*
X60857142Y-123495295D01*
X60857142Y-123495295D02*
X60857142Y-123638152D01*
X60857142Y-123638152D02*
X60809523Y-123733390D01*
X60809523Y-123733390D02*
X60761904Y-123781009D01*
X60761904Y-123781009D02*
X60666666Y-123828628D01*
X60666666Y-123828628D02*
X60285714Y-123828628D01*
X61809523Y-124304819D02*
X61238095Y-124304819D01*
X61523809Y-124304819D02*
X61523809Y-123304819D01*
X61523809Y-123304819D02*
X61428571Y-123447676D01*
X61428571Y-123447676D02*
X61333333Y-123542914D01*
X61333333Y-123542914D02*
X61238095Y-123590533D01*
X62380952Y-123733390D02*
X62285714Y-123685771D01*
X62285714Y-123685771D02*
X62238095Y-123638152D01*
X62238095Y-123638152D02*
X62190476Y-123542914D01*
X62190476Y-123542914D02*
X62190476Y-123495295D01*
X62190476Y-123495295D02*
X62238095Y-123400057D01*
X62238095Y-123400057D02*
X62285714Y-123352438D01*
X62285714Y-123352438D02*
X62380952Y-123304819D01*
X62380952Y-123304819D02*
X62571428Y-123304819D01*
X62571428Y-123304819D02*
X62666666Y-123352438D01*
X62666666Y-123352438D02*
X62714285Y-123400057D01*
X62714285Y-123400057D02*
X62761904Y-123495295D01*
X62761904Y-123495295D02*
X62761904Y-123542914D01*
X62761904Y-123542914D02*
X62714285Y-123638152D01*
X62714285Y-123638152D02*
X62666666Y-123685771D01*
X62666666Y-123685771D02*
X62571428Y-123733390D01*
X62571428Y-123733390D02*
X62380952Y-123733390D01*
X62380952Y-123733390D02*
X62285714Y-123781009D01*
X62285714Y-123781009D02*
X62238095Y-123828628D01*
X62238095Y-123828628D02*
X62190476Y-123923866D01*
X62190476Y-123923866D02*
X62190476Y-124114342D01*
X62190476Y-124114342D02*
X62238095Y-124209580D01*
X62238095Y-124209580D02*
X62285714Y-124257200D01*
X62285714Y-124257200D02*
X62380952Y-124304819D01*
X62380952Y-124304819D02*
X62571428Y-124304819D01*
X62571428Y-124304819D02*
X62666666Y-124257200D01*
X62666666Y-124257200D02*
X62714285Y-124209580D01*
X62714285Y-124209580D02*
X62761904Y-124114342D01*
X62761904Y-124114342D02*
X62761904Y-123923866D01*
X62761904Y-123923866D02*
X62714285Y-123828628D01*
X62714285Y-123828628D02*
X62666666Y-123781009D01*
X62666666Y-123781009D02*
X62571428Y-123733390D01*
X116607142Y-87609580D02*
X116559523Y-87657200D01*
X116559523Y-87657200D02*
X116416666Y-87704819D01*
X116416666Y-87704819D02*
X116321428Y-87704819D01*
X116321428Y-87704819D02*
X116178571Y-87657200D01*
X116178571Y-87657200D02*
X116083333Y-87561961D01*
X116083333Y-87561961D02*
X116035714Y-87466723D01*
X116035714Y-87466723D02*
X115988095Y-87276247D01*
X115988095Y-87276247D02*
X115988095Y-87133390D01*
X115988095Y-87133390D02*
X116035714Y-86942914D01*
X116035714Y-86942914D02*
X116083333Y-86847676D01*
X116083333Y-86847676D02*
X116178571Y-86752438D01*
X116178571Y-86752438D02*
X116321428Y-86704819D01*
X116321428Y-86704819D02*
X116416666Y-86704819D01*
X116416666Y-86704819D02*
X116559523Y-86752438D01*
X116559523Y-86752438D02*
X116607142Y-86800057D01*
X117559523Y-87704819D02*
X116988095Y-87704819D01*
X117273809Y-87704819D02*
X117273809Y-86704819D01*
X117273809Y-86704819D02*
X117178571Y-86847676D01*
X117178571Y-86847676D02*
X117083333Y-86942914D01*
X117083333Y-86942914D02*
X116988095Y-86990533D01*
X118511904Y-87704819D02*
X117940476Y-87704819D01*
X118226190Y-87704819D02*
X118226190Y-86704819D01*
X118226190Y-86704819D02*
X118130952Y-86847676D01*
X118130952Y-86847676D02*
X118035714Y-86942914D01*
X118035714Y-86942914D02*
X117940476Y-86990533D01*
X142638095Y-79354819D02*
X142638095Y-80164342D01*
X142638095Y-80164342D02*
X142685714Y-80259580D01*
X142685714Y-80259580D02*
X142733333Y-80307200D01*
X142733333Y-80307200D02*
X142828571Y-80354819D01*
X142828571Y-80354819D02*
X143019047Y-80354819D01*
X143019047Y-80354819D02*
X143114285Y-80307200D01*
X143114285Y-80307200D02*
X143161904Y-80259580D01*
X143161904Y-80259580D02*
X143209523Y-80164342D01*
X143209523Y-80164342D02*
X143209523Y-79354819D01*
X143638095Y-79450057D02*
X143685714Y-79402438D01*
X143685714Y-79402438D02*
X143780952Y-79354819D01*
X143780952Y-79354819D02*
X144019047Y-79354819D01*
X144019047Y-79354819D02*
X144114285Y-79402438D01*
X144114285Y-79402438D02*
X144161904Y-79450057D01*
X144161904Y-79450057D02*
X144209523Y-79545295D01*
X144209523Y-79545295D02*
X144209523Y-79640533D01*
X144209523Y-79640533D02*
X144161904Y-79783390D01*
X144161904Y-79783390D02*
X143590476Y-80354819D01*
X143590476Y-80354819D02*
X144209523Y-80354819D01*
X45357142Y-58804819D02*
X45023809Y-58328628D01*
X44785714Y-58804819D02*
X44785714Y-57804819D01*
X44785714Y-57804819D02*
X45166666Y-57804819D01*
X45166666Y-57804819D02*
X45261904Y-57852438D01*
X45261904Y-57852438D02*
X45309523Y-57900057D01*
X45309523Y-57900057D02*
X45357142Y-57995295D01*
X45357142Y-57995295D02*
X45357142Y-58138152D01*
X45357142Y-58138152D02*
X45309523Y-58233390D01*
X45309523Y-58233390D02*
X45261904Y-58281009D01*
X45261904Y-58281009D02*
X45166666Y-58328628D01*
X45166666Y-58328628D02*
X44785714Y-58328628D01*
X46309523Y-58804819D02*
X45738095Y-58804819D01*
X46023809Y-58804819D02*
X46023809Y-57804819D01*
X46023809Y-57804819D02*
X45928571Y-57947676D01*
X45928571Y-57947676D02*
X45833333Y-58042914D01*
X45833333Y-58042914D02*
X45738095Y-58090533D01*
X46928571Y-57804819D02*
X47023809Y-57804819D01*
X47023809Y-57804819D02*
X47119047Y-57852438D01*
X47119047Y-57852438D02*
X47166666Y-57900057D01*
X47166666Y-57900057D02*
X47214285Y-57995295D01*
X47214285Y-57995295D02*
X47261904Y-58185771D01*
X47261904Y-58185771D02*
X47261904Y-58423866D01*
X47261904Y-58423866D02*
X47214285Y-58614342D01*
X47214285Y-58614342D02*
X47166666Y-58709580D01*
X47166666Y-58709580D02*
X47119047Y-58757200D01*
X47119047Y-58757200D02*
X47023809Y-58804819D01*
X47023809Y-58804819D02*
X46928571Y-58804819D01*
X46928571Y-58804819D02*
X46833333Y-58757200D01*
X46833333Y-58757200D02*
X46785714Y-58709580D01*
X46785714Y-58709580D02*
X46738095Y-58614342D01*
X46738095Y-58614342D02*
X46690476Y-58423866D01*
X46690476Y-58423866D02*
X46690476Y-58185771D01*
X46690476Y-58185771D02*
X46738095Y-57995295D01*
X46738095Y-57995295D02*
X46785714Y-57900057D01*
X46785714Y-57900057D02*
X46833333Y-57852438D01*
X46833333Y-57852438D02*
X46928571Y-57804819D01*
X150357142Y-125679580D02*
X150309523Y-125727200D01*
X150309523Y-125727200D02*
X150166666Y-125774819D01*
X150166666Y-125774819D02*
X150071428Y-125774819D01*
X150071428Y-125774819D02*
X149928571Y-125727200D01*
X149928571Y-125727200D02*
X149833333Y-125631961D01*
X149833333Y-125631961D02*
X149785714Y-125536723D01*
X149785714Y-125536723D02*
X149738095Y-125346247D01*
X149738095Y-125346247D02*
X149738095Y-125203390D01*
X149738095Y-125203390D02*
X149785714Y-125012914D01*
X149785714Y-125012914D02*
X149833333Y-124917676D01*
X149833333Y-124917676D02*
X149928571Y-124822438D01*
X149928571Y-124822438D02*
X150071428Y-124774819D01*
X150071428Y-124774819D02*
X150166666Y-124774819D01*
X150166666Y-124774819D02*
X150309523Y-124822438D01*
X150309523Y-124822438D02*
X150357142Y-124870057D01*
X150738095Y-124870057D02*
X150785714Y-124822438D01*
X150785714Y-124822438D02*
X150880952Y-124774819D01*
X150880952Y-124774819D02*
X151119047Y-124774819D01*
X151119047Y-124774819D02*
X151214285Y-124822438D01*
X151214285Y-124822438D02*
X151261904Y-124870057D01*
X151261904Y-124870057D02*
X151309523Y-124965295D01*
X151309523Y-124965295D02*
X151309523Y-125060533D01*
X151309523Y-125060533D02*
X151261904Y-125203390D01*
X151261904Y-125203390D02*
X150690476Y-125774819D01*
X150690476Y-125774819D02*
X151309523Y-125774819D01*
X151690476Y-124870057D02*
X151738095Y-124822438D01*
X151738095Y-124822438D02*
X151833333Y-124774819D01*
X151833333Y-124774819D02*
X152071428Y-124774819D01*
X152071428Y-124774819D02*
X152166666Y-124822438D01*
X152166666Y-124822438D02*
X152214285Y-124870057D01*
X152214285Y-124870057D02*
X152261904Y-124965295D01*
X152261904Y-124965295D02*
X152261904Y-125060533D01*
X152261904Y-125060533D02*
X152214285Y-125203390D01*
X152214285Y-125203390D02*
X151642857Y-125774819D01*
X151642857Y-125774819D02*
X152261904Y-125774819D01*
X167357142Y-88804819D02*
X167023809Y-88328628D01*
X166785714Y-88804819D02*
X166785714Y-87804819D01*
X166785714Y-87804819D02*
X167166666Y-87804819D01*
X167166666Y-87804819D02*
X167261904Y-87852438D01*
X167261904Y-87852438D02*
X167309523Y-87900057D01*
X167309523Y-87900057D02*
X167357142Y-87995295D01*
X167357142Y-87995295D02*
X167357142Y-88138152D01*
X167357142Y-88138152D02*
X167309523Y-88233390D01*
X167309523Y-88233390D02*
X167261904Y-88281009D01*
X167261904Y-88281009D02*
X167166666Y-88328628D01*
X167166666Y-88328628D02*
X166785714Y-88328628D01*
X168309523Y-88804819D02*
X167738095Y-88804819D01*
X168023809Y-88804819D02*
X168023809Y-87804819D01*
X168023809Y-87804819D02*
X167928571Y-87947676D01*
X167928571Y-87947676D02*
X167833333Y-88042914D01*
X167833333Y-88042914D02*
X167738095Y-88090533D01*
X168642857Y-87804819D02*
X169261904Y-87804819D01*
X169261904Y-87804819D02*
X168928571Y-88185771D01*
X168928571Y-88185771D02*
X169071428Y-88185771D01*
X169071428Y-88185771D02*
X169166666Y-88233390D01*
X169166666Y-88233390D02*
X169214285Y-88281009D01*
X169214285Y-88281009D02*
X169261904Y-88376247D01*
X169261904Y-88376247D02*
X169261904Y-88614342D01*
X169261904Y-88614342D02*
X169214285Y-88709580D01*
X169214285Y-88709580D02*
X169166666Y-88757200D01*
X169166666Y-88757200D02*
X169071428Y-88804819D01*
X169071428Y-88804819D02*
X168785714Y-88804819D01*
X168785714Y-88804819D02*
X168690476Y-88757200D01*
X168690476Y-88757200D02*
X168642857Y-88709580D01*
X114238095Y-120154819D02*
X114238095Y-120964342D01*
X114238095Y-120964342D02*
X114285714Y-121059580D01*
X114285714Y-121059580D02*
X114333333Y-121107200D01*
X114333333Y-121107200D02*
X114428571Y-121154819D01*
X114428571Y-121154819D02*
X114619047Y-121154819D01*
X114619047Y-121154819D02*
X114714285Y-121107200D01*
X114714285Y-121107200D02*
X114761904Y-121059580D01*
X114761904Y-121059580D02*
X114809523Y-120964342D01*
X114809523Y-120964342D02*
X114809523Y-120154819D01*
X115714285Y-120488152D02*
X115714285Y-121154819D01*
X115476190Y-120107200D02*
X115238095Y-120821485D01*
X115238095Y-120821485D02*
X115857142Y-120821485D01*
X37833333Y-58804819D02*
X37500000Y-58328628D01*
X37261905Y-58804819D02*
X37261905Y-57804819D01*
X37261905Y-57804819D02*
X37642857Y-57804819D01*
X37642857Y-57804819D02*
X37738095Y-57852438D01*
X37738095Y-57852438D02*
X37785714Y-57900057D01*
X37785714Y-57900057D02*
X37833333Y-57995295D01*
X37833333Y-57995295D02*
X37833333Y-58138152D01*
X37833333Y-58138152D02*
X37785714Y-58233390D01*
X37785714Y-58233390D02*
X37738095Y-58281009D01*
X37738095Y-58281009D02*
X37642857Y-58328628D01*
X37642857Y-58328628D02*
X37261905Y-58328628D01*
X38404762Y-58233390D02*
X38309524Y-58185771D01*
X38309524Y-58185771D02*
X38261905Y-58138152D01*
X38261905Y-58138152D02*
X38214286Y-58042914D01*
X38214286Y-58042914D02*
X38214286Y-57995295D01*
X38214286Y-57995295D02*
X38261905Y-57900057D01*
X38261905Y-57900057D02*
X38309524Y-57852438D01*
X38309524Y-57852438D02*
X38404762Y-57804819D01*
X38404762Y-57804819D02*
X38595238Y-57804819D01*
X38595238Y-57804819D02*
X38690476Y-57852438D01*
X38690476Y-57852438D02*
X38738095Y-57900057D01*
X38738095Y-57900057D02*
X38785714Y-57995295D01*
X38785714Y-57995295D02*
X38785714Y-58042914D01*
X38785714Y-58042914D02*
X38738095Y-58138152D01*
X38738095Y-58138152D02*
X38690476Y-58185771D01*
X38690476Y-58185771D02*
X38595238Y-58233390D01*
X38595238Y-58233390D02*
X38404762Y-58233390D01*
X38404762Y-58233390D02*
X38309524Y-58281009D01*
X38309524Y-58281009D02*
X38261905Y-58328628D01*
X38261905Y-58328628D02*
X38214286Y-58423866D01*
X38214286Y-58423866D02*
X38214286Y-58614342D01*
X38214286Y-58614342D02*
X38261905Y-58709580D01*
X38261905Y-58709580D02*
X38309524Y-58757200D01*
X38309524Y-58757200D02*
X38404762Y-58804819D01*
X38404762Y-58804819D02*
X38595238Y-58804819D01*
X38595238Y-58804819D02*
X38690476Y-58757200D01*
X38690476Y-58757200D02*
X38738095Y-58709580D01*
X38738095Y-58709580D02*
X38785714Y-58614342D01*
X38785714Y-58614342D02*
X38785714Y-58423866D01*
X38785714Y-58423866D02*
X38738095Y-58328628D01*
X38738095Y-58328628D02*
X38690476Y-58281009D01*
X38690476Y-58281009D02*
X38595238Y-58233390D01*
X71174761Y-87990057D02*
X71079523Y-87942438D01*
X71079523Y-87942438D02*
X70984285Y-87847200D01*
X70984285Y-87847200D02*
X70841428Y-87704342D01*
X70841428Y-87704342D02*
X70746190Y-87656723D01*
X70746190Y-87656723D02*
X70650952Y-87656723D01*
X70698571Y-87894819D02*
X70603333Y-87847200D01*
X70603333Y-87847200D02*
X70508095Y-87751961D01*
X70508095Y-87751961D02*
X70460476Y-87561485D01*
X70460476Y-87561485D02*
X70460476Y-87228152D01*
X70460476Y-87228152D02*
X70508095Y-87037676D01*
X70508095Y-87037676D02*
X70603333Y-86942438D01*
X70603333Y-86942438D02*
X70698571Y-86894819D01*
X70698571Y-86894819D02*
X70889047Y-86894819D01*
X70889047Y-86894819D02*
X70984285Y-86942438D01*
X70984285Y-86942438D02*
X71079523Y-87037676D01*
X71079523Y-87037676D02*
X71127142Y-87228152D01*
X71127142Y-87228152D02*
X71127142Y-87561485D01*
X71127142Y-87561485D02*
X71079523Y-87751961D01*
X71079523Y-87751961D02*
X70984285Y-87847200D01*
X70984285Y-87847200D02*
X70889047Y-87894819D01*
X70889047Y-87894819D02*
X70698571Y-87894819D01*
X71984285Y-87228152D02*
X71984285Y-87894819D01*
X71746190Y-86847200D02*
X71508095Y-87561485D01*
X71508095Y-87561485D02*
X72127142Y-87561485D01*
X103364761Y-89960057D02*
X103269523Y-89912438D01*
X103269523Y-89912438D02*
X103174285Y-89817200D01*
X103174285Y-89817200D02*
X103031428Y-89674342D01*
X103031428Y-89674342D02*
X102936190Y-89626723D01*
X102936190Y-89626723D02*
X102840952Y-89626723D01*
X102888571Y-89864819D02*
X102793333Y-89817200D01*
X102793333Y-89817200D02*
X102698095Y-89721961D01*
X102698095Y-89721961D02*
X102650476Y-89531485D01*
X102650476Y-89531485D02*
X102650476Y-89198152D01*
X102650476Y-89198152D02*
X102698095Y-89007676D01*
X102698095Y-89007676D02*
X102793333Y-88912438D01*
X102793333Y-88912438D02*
X102888571Y-88864819D01*
X102888571Y-88864819D02*
X103079047Y-88864819D01*
X103079047Y-88864819D02*
X103174285Y-88912438D01*
X103174285Y-88912438D02*
X103269523Y-89007676D01*
X103269523Y-89007676D02*
X103317142Y-89198152D01*
X103317142Y-89198152D02*
X103317142Y-89531485D01*
X103317142Y-89531485D02*
X103269523Y-89721961D01*
X103269523Y-89721961D02*
X103174285Y-89817200D01*
X103174285Y-89817200D02*
X103079047Y-89864819D01*
X103079047Y-89864819D02*
X102888571Y-89864819D01*
X103698095Y-88960057D02*
X103745714Y-88912438D01*
X103745714Y-88912438D02*
X103840952Y-88864819D01*
X103840952Y-88864819D02*
X104079047Y-88864819D01*
X104079047Y-88864819D02*
X104174285Y-88912438D01*
X104174285Y-88912438D02*
X104221904Y-88960057D01*
X104221904Y-88960057D02*
X104269523Y-89055295D01*
X104269523Y-89055295D02*
X104269523Y-89150533D01*
X104269523Y-89150533D02*
X104221904Y-89293390D01*
X104221904Y-89293390D02*
X103650476Y-89864819D01*
X103650476Y-89864819D02*
X104269523Y-89864819D01*
X52833333Y-87804819D02*
X52500000Y-87328628D01*
X52261905Y-87804819D02*
X52261905Y-86804819D01*
X52261905Y-86804819D02*
X52642857Y-86804819D01*
X52642857Y-86804819D02*
X52738095Y-86852438D01*
X52738095Y-86852438D02*
X52785714Y-86900057D01*
X52785714Y-86900057D02*
X52833333Y-86995295D01*
X52833333Y-86995295D02*
X52833333Y-87138152D01*
X52833333Y-87138152D02*
X52785714Y-87233390D01*
X52785714Y-87233390D02*
X52738095Y-87281009D01*
X52738095Y-87281009D02*
X52642857Y-87328628D01*
X52642857Y-87328628D02*
X52261905Y-87328628D01*
X53738095Y-86804819D02*
X53261905Y-86804819D01*
X53261905Y-86804819D02*
X53214286Y-87281009D01*
X53214286Y-87281009D02*
X53261905Y-87233390D01*
X53261905Y-87233390D02*
X53357143Y-87185771D01*
X53357143Y-87185771D02*
X53595238Y-87185771D01*
X53595238Y-87185771D02*
X53690476Y-87233390D01*
X53690476Y-87233390D02*
X53738095Y-87281009D01*
X53738095Y-87281009D02*
X53785714Y-87376247D01*
X53785714Y-87376247D02*
X53785714Y-87614342D01*
X53785714Y-87614342D02*
X53738095Y-87709580D01*
X53738095Y-87709580D02*
X53690476Y-87757200D01*
X53690476Y-87757200D02*
X53595238Y-87804819D01*
X53595238Y-87804819D02*
X53357143Y-87804819D01*
X53357143Y-87804819D02*
X53261905Y-87757200D01*
X53261905Y-87757200D02*
X53214286Y-87709580D01*
X54059580Y-120642857D02*
X54107200Y-120690476D01*
X54107200Y-120690476D02*
X54154819Y-120833333D01*
X54154819Y-120833333D02*
X54154819Y-120928571D01*
X54154819Y-120928571D02*
X54107200Y-121071428D01*
X54107200Y-121071428D02*
X54011961Y-121166666D01*
X54011961Y-121166666D02*
X53916723Y-121214285D01*
X53916723Y-121214285D02*
X53726247Y-121261904D01*
X53726247Y-121261904D02*
X53583390Y-121261904D01*
X53583390Y-121261904D02*
X53392914Y-121214285D01*
X53392914Y-121214285D02*
X53297676Y-121166666D01*
X53297676Y-121166666D02*
X53202438Y-121071428D01*
X53202438Y-121071428D02*
X53154819Y-120928571D01*
X53154819Y-120928571D02*
X53154819Y-120833333D01*
X53154819Y-120833333D02*
X53202438Y-120690476D01*
X53202438Y-120690476D02*
X53250057Y-120642857D01*
X53154819Y-120309523D02*
X53154819Y-119690476D01*
X53154819Y-119690476D02*
X53535771Y-120023809D01*
X53535771Y-120023809D02*
X53535771Y-119880952D01*
X53535771Y-119880952D02*
X53583390Y-119785714D01*
X53583390Y-119785714D02*
X53631009Y-119738095D01*
X53631009Y-119738095D02*
X53726247Y-119690476D01*
X53726247Y-119690476D02*
X53964342Y-119690476D01*
X53964342Y-119690476D02*
X54059580Y-119738095D01*
X54059580Y-119738095D02*
X54107200Y-119785714D01*
X54107200Y-119785714D02*
X54154819Y-119880952D01*
X54154819Y-119880952D02*
X54154819Y-120166666D01*
X54154819Y-120166666D02*
X54107200Y-120261904D01*
X54107200Y-120261904D02*
X54059580Y-120309523D01*
X53154819Y-119071428D02*
X53154819Y-118976190D01*
X53154819Y-118976190D02*
X53202438Y-118880952D01*
X53202438Y-118880952D02*
X53250057Y-118833333D01*
X53250057Y-118833333D02*
X53345295Y-118785714D01*
X53345295Y-118785714D02*
X53535771Y-118738095D01*
X53535771Y-118738095D02*
X53773866Y-118738095D01*
X53773866Y-118738095D02*
X53964342Y-118785714D01*
X53964342Y-118785714D02*
X54059580Y-118833333D01*
X54059580Y-118833333D02*
X54107200Y-118880952D01*
X54107200Y-118880952D02*
X54154819Y-118976190D01*
X54154819Y-118976190D02*
X54154819Y-119071428D01*
X54154819Y-119071428D02*
X54107200Y-119166666D01*
X54107200Y-119166666D02*
X54059580Y-119214285D01*
X54059580Y-119214285D02*
X53964342Y-119261904D01*
X53964342Y-119261904D02*
X53773866Y-119309523D01*
X53773866Y-119309523D02*
X53535771Y-119309523D01*
X53535771Y-119309523D02*
X53345295Y-119261904D01*
X53345295Y-119261904D02*
X53250057Y-119214285D01*
X53250057Y-119214285D02*
X53202438Y-119166666D01*
X53202438Y-119166666D02*
X53154819Y-119071428D01*
X79857142Y-121204819D02*
X79523809Y-120728628D01*
X79285714Y-121204819D02*
X79285714Y-120204819D01*
X79285714Y-120204819D02*
X79666666Y-120204819D01*
X79666666Y-120204819D02*
X79761904Y-120252438D01*
X79761904Y-120252438D02*
X79809523Y-120300057D01*
X79809523Y-120300057D02*
X79857142Y-120395295D01*
X79857142Y-120395295D02*
X79857142Y-120538152D01*
X79857142Y-120538152D02*
X79809523Y-120633390D01*
X79809523Y-120633390D02*
X79761904Y-120681009D01*
X79761904Y-120681009D02*
X79666666Y-120728628D01*
X79666666Y-120728628D02*
X79285714Y-120728628D01*
X80238095Y-120300057D02*
X80285714Y-120252438D01*
X80285714Y-120252438D02*
X80380952Y-120204819D01*
X80380952Y-120204819D02*
X80619047Y-120204819D01*
X80619047Y-120204819D02*
X80714285Y-120252438D01*
X80714285Y-120252438D02*
X80761904Y-120300057D01*
X80761904Y-120300057D02*
X80809523Y-120395295D01*
X80809523Y-120395295D02*
X80809523Y-120490533D01*
X80809523Y-120490533D02*
X80761904Y-120633390D01*
X80761904Y-120633390D02*
X80190476Y-121204819D01*
X80190476Y-121204819D02*
X80809523Y-121204819D01*
X81761904Y-121204819D02*
X81190476Y-121204819D01*
X81476190Y-121204819D02*
X81476190Y-120204819D01*
X81476190Y-120204819D02*
X81380952Y-120347676D01*
X81380952Y-120347676D02*
X81285714Y-120442914D01*
X81285714Y-120442914D02*
X81190476Y-120490533D01*
X69238095Y-122854819D02*
X69238095Y-123664342D01*
X69238095Y-123664342D02*
X69285714Y-123759580D01*
X69285714Y-123759580D02*
X69333333Y-123807200D01*
X69333333Y-123807200D02*
X69428571Y-123854819D01*
X69428571Y-123854819D02*
X69619047Y-123854819D01*
X69619047Y-123854819D02*
X69714285Y-123807200D01*
X69714285Y-123807200D02*
X69761904Y-123759580D01*
X69761904Y-123759580D02*
X69809523Y-123664342D01*
X69809523Y-123664342D02*
X69809523Y-122854819D01*
X70190476Y-122854819D02*
X70809523Y-122854819D01*
X70809523Y-122854819D02*
X70476190Y-123235771D01*
X70476190Y-123235771D02*
X70619047Y-123235771D01*
X70619047Y-123235771D02*
X70714285Y-123283390D01*
X70714285Y-123283390D02*
X70761904Y-123331009D01*
X70761904Y-123331009D02*
X70809523Y-123426247D01*
X70809523Y-123426247D02*
X70809523Y-123664342D01*
X70809523Y-123664342D02*
X70761904Y-123759580D01*
X70761904Y-123759580D02*
X70714285Y-123807200D01*
X70714285Y-123807200D02*
X70619047Y-123854819D01*
X70619047Y-123854819D02*
X70333333Y-123854819D01*
X70333333Y-123854819D02*
X70238095Y-123807200D01*
X70238095Y-123807200D02*
X70190476Y-123759580D01*
X199833333Y-61509580D02*
X199785714Y-61557200D01*
X199785714Y-61557200D02*
X199642857Y-61604819D01*
X199642857Y-61604819D02*
X199547619Y-61604819D01*
X199547619Y-61604819D02*
X199404762Y-61557200D01*
X199404762Y-61557200D02*
X199309524Y-61461961D01*
X199309524Y-61461961D02*
X199261905Y-61366723D01*
X199261905Y-61366723D02*
X199214286Y-61176247D01*
X199214286Y-61176247D02*
X199214286Y-61033390D01*
X199214286Y-61033390D02*
X199261905Y-60842914D01*
X199261905Y-60842914D02*
X199309524Y-60747676D01*
X199309524Y-60747676D02*
X199404762Y-60652438D01*
X199404762Y-60652438D02*
X199547619Y-60604819D01*
X199547619Y-60604819D02*
X199642857Y-60604819D01*
X199642857Y-60604819D02*
X199785714Y-60652438D01*
X199785714Y-60652438D02*
X199833333Y-60700057D01*
X200690476Y-60604819D02*
X200500000Y-60604819D01*
X200500000Y-60604819D02*
X200404762Y-60652438D01*
X200404762Y-60652438D02*
X200357143Y-60700057D01*
X200357143Y-60700057D02*
X200261905Y-60842914D01*
X200261905Y-60842914D02*
X200214286Y-61033390D01*
X200214286Y-61033390D02*
X200214286Y-61414342D01*
X200214286Y-61414342D02*
X200261905Y-61509580D01*
X200261905Y-61509580D02*
X200309524Y-61557200D01*
X200309524Y-61557200D02*
X200404762Y-61604819D01*
X200404762Y-61604819D02*
X200595238Y-61604819D01*
X200595238Y-61604819D02*
X200690476Y-61557200D01*
X200690476Y-61557200D02*
X200738095Y-61509580D01*
X200738095Y-61509580D02*
X200785714Y-61414342D01*
X200785714Y-61414342D02*
X200785714Y-61176247D01*
X200785714Y-61176247D02*
X200738095Y-61081009D01*
X200738095Y-61081009D02*
X200690476Y-61033390D01*
X200690476Y-61033390D02*
X200595238Y-60985771D01*
X200595238Y-60985771D02*
X200404762Y-60985771D01*
X200404762Y-60985771D02*
X200309524Y-61033390D01*
X200309524Y-61033390D02*
X200261905Y-61081009D01*
X200261905Y-61081009D02*
X200214286Y-61176247D01*
X53238095Y-48184819D02*
X53238095Y-48994342D01*
X53238095Y-48994342D02*
X53285714Y-49089580D01*
X53285714Y-49089580D02*
X53333333Y-49137200D01*
X53333333Y-49137200D02*
X53428571Y-49184819D01*
X53428571Y-49184819D02*
X53619047Y-49184819D01*
X53619047Y-49184819D02*
X53714285Y-49137200D01*
X53714285Y-49137200D02*
X53761904Y-49089580D01*
X53761904Y-49089580D02*
X53809523Y-48994342D01*
X53809523Y-48994342D02*
X53809523Y-48184819D01*
X54809523Y-49184819D02*
X54238095Y-49184819D01*
X54523809Y-49184819D02*
X54523809Y-48184819D01*
X54523809Y-48184819D02*
X54428571Y-48327676D01*
X54428571Y-48327676D02*
X54333333Y-48422914D01*
X54333333Y-48422914D02*
X54238095Y-48470533D01*
X2426666Y-56454819D02*
X2426666Y-57169104D01*
X2426666Y-57169104D02*
X2379047Y-57311961D01*
X2379047Y-57311961D02*
X2283809Y-57407200D01*
X2283809Y-57407200D02*
X2140952Y-57454819D01*
X2140952Y-57454819D02*
X2045714Y-57454819D01*
X3426666Y-57454819D02*
X2855238Y-57454819D01*
X3140952Y-57454819D02*
X3140952Y-56454819D01*
X3140952Y-56454819D02*
X3045714Y-56597676D01*
X3045714Y-56597676D02*
X2950476Y-56692914D01*
X2950476Y-56692914D02*
X2855238Y-56740533D01*
X147261905Y-90954819D02*
X147261905Y-89954819D01*
X147261905Y-89954819D02*
X147500000Y-89954819D01*
X147500000Y-89954819D02*
X147642857Y-90002438D01*
X147642857Y-90002438D02*
X147738095Y-90097676D01*
X147738095Y-90097676D02*
X147785714Y-90192914D01*
X147785714Y-90192914D02*
X147833333Y-90383390D01*
X147833333Y-90383390D02*
X147833333Y-90526247D01*
X147833333Y-90526247D02*
X147785714Y-90716723D01*
X147785714Y-90716723D02*
X147738095Y-90811961D01*
X147738095Y-90811961D02*
X147642857Y-90907200D01*
X147642857Y-90907200D02*
X147500000Y-90954819D01*
X147500000Y-90954819D02*
X147261905Y-90954819D01*
X148166667Y-89954819D02*
X148785714Y-89954819D01*
X148785714Y-89954819D02*
X148452381Y-90335771D01*
X148452381Y-90335771D02*
X148595238Y-90335771D01*
X148595238Y-90335771D02*
X148690476Y-90383390D01*
X148690476Y-90383390D02*
X148738095Y-90431009D01*
X148738095Y-90431009D02*
X148785714Y-90526247D01*
X148785714Y-90526247D02*
X148785714Y-90764342D01*
X148785714Y-90764342D02*
X148738095Y-90859580D01*
X148738095Y-90859580D02*
X148690476Y-90907200D01*
X148690476Y-90907200D02*
X148595238Y-90954819D01*
X148595238Y-90954819D02*
X148309524Y-90954819D01*
X148309524Y-90954819D02*
X148214286Y-90907200D01*
X148214286Y-90907200D02*
X148166667Y-90859580D01*
X96357142Y-122804819D02*
X96023809Y-122328628D01*
X95785714Y-122804819D02*
X95785714Y-121804819D01*
X95785714Y-121804819D02*
X96166666Y-121804819D01*
X96166666Y-121804819D02*
X96261904Y-121852438D01*
X96261904Y-121852438D02*
X96309523Y-121900057D01*
X96309523Y-121900057D02*
X96357142Y-121995295D01*
X96357142Y-121995295D02*
X96357142Y-122138152D01*
X96357142Y-122138152D02*
X96309523Y-122233390D01*
X96309523Y-122233390D02*
X96261904Y-122281009D01*
X96261904Y-122281009D02*
X96166666Y-122328628D01*
X96166666Y-122328628D02*
X95785714Y-122328628D01*
X96738095Y-121900057D02*
X96785714Y-121852438D01*
X96785714Y-121852438D02*
X96880952Y-121804819D01*
X96880952Y-121804819D02*
X97119047Y-121804819D01*
X97119047Y-121804819D02*
X97214285Y-121852438D01*
X97214285Y-121852438D02*
X97261904Y-121900057D01*
X97261904Y-121900057D02*
X97309523Y-121995295D01*
X97309523Y-121995295D02*
X97309523Y-122090533D01*
X97309523Y-122090533D02*
X97261904Y-122233390D01*
X97261904Y-122233390D02*
X96690476Y-122804819D01*
X96690476Y-122804819D02*
X97309523Y-122804819D01*
X97690476Y-121900057D02*
X97738095Y-121852438D01*
X97738095Y-121852438D02*
X97833333Y-121804819D01*
X97833333Y-121804819D02*
X98071428Y-121804819D01*
X98071428Y-121804819D02*
X98166666Y-121852438D01*
X98166666Y-121852438D02*
X98214285Y-121900057D01*
X98214285Y-121900057D02*
X98261904Y-121995295D01*
X98261904Y-121995295D02*
X98261904Y-122090533D01*
X98261904Y-122090533D02*
X98214285Y-122233390D01*
X98214285Y-122233390D02*
X97642857Y-122804819D01*
X97642857Y-122804819D02*
X98261904Y-122804819D01*
X193261905Y-93354819D02*
X193261905Y-92354819D01*
X193261905Y-92354819D02*
X193500000Y-92354819D01*
X193500000Y-92354819D02*
X193642857Y-92402438D01*
X193642857Y-92402438D02*
X193738095Y-92497676D01*
X193738095Y-92497676D02*
X193785714Y-92592914D01*
X193785714Y-92592914D02*
X193833333Y-92783390D01*
X193833333Y-92783390D02*
X193833333Y-92926247D01*
X193833333Y-92926247D02*
X193785714Y-93116723D01*
X193785714Y-93116723D02*
X193738095Y-93211961D01*
X193738095Y-93211961D02*
X193642857Y-93307200D01*
X193642857Y-93307200D02*
X193500000Y-93354819D01*
X193500000Y-93354819D02*
X193261905Y-93354819D01*
X194785714Y-93354819D02*
X194214286Y-93354819D01*
X194500000Y-93354819D02*
X194500000Y-92354819D01*
X194500000Y-92354819D02*
X194404762Y-92497676D01*
X194404762Y-92497676D02*
X194309524Y-92592914D01*
X194309524Y-92592914D02*
X194214286Y-92640533D01*
X108444761Y-11140057D02*
X108349523Y-11092438D01*
X108349523Y-11092438D02*
X108254285Y-10997200D01*
X108254285Y-10997200D02*
X108111428Y-10854342D01*
X108111428Y-10854342D02*
X108016190Y-10806723D01*
X108016190Y-10806723D02*
X107920952Y-10806723D01*
X107968571Y-11044819D02*
X107873333Y-10997200D01*
X107873333Y-10997200D02*
X107778095Y-10901961D01*
X107778095Y-10901961D02*
X107730476Y-10711485D01*
X107730476Y-10711485D02*
X107730476Y-10378152D01*
X107730476Y-10378152D02*
X107778095Y-10187676D01*
X107778095Y-10187676D02*
X107873333Y-10092438D01*
X107873333Y-10092438D02*
X107968571Y-10044819D01*
X107968571Y-10044819D02*
X108159047Y-10044819D01*
X108159047Y-10044819D02*
X108254285Y-10092438D01*
X108254285Y-10092438D02*
X108349523Y-10187676D01*
X108349523Y-10187676D02*
X108397142Y-10378152D01*
X108397142Y-10378152D02*
X108397142Y-10711485D01*
X108397142Y-10711485D02*
X108349523Y-10901961D01*
X108349523Y-10901961D02*
X108254285Y-10997200D01*
X108254285Y-10997200D02*
X108159047Y-11044819D01*
X108159047Y-11044819D02*
X107968571Y-11044819D01*
X109349523Y-11044819D02*
X108778095Y-11044819D01*
X109063809Y-11044819D02*
X109063809Y-10044819D01*
X109063809Y-10044819D02*
X108968571Y-10187676D01*
X108968571Y-10187676D02*
X108873333Y-10282914D01*
X108873333Y-10282914D02*
X108778095Y-10330533D01*
X151357142Y-122804819D02*
X151023809Y-122328628D01*
X150785714Y-122804819D02*
X150785714Y-121804819D01*
X150785714Y-121804819D02*
X151166666Y-121804819D01*
X151166666Y-121804819D02*
X151261904Y-121852438D01*
X151261904Y-121852438D02*
X151309523Y-121900057D01*
X151309523Y-121900057D02*
X151357142Y-121995295D01*
X151357142Y-121995295D02*
X151357142Y-122138152D01*
X151357142Y-122138152D02*
X151309523Y-122233390D01*
X151309523Y-122233390D02*
X151261904Y-122281009D01*
X151261904Y-122281009D02*
X151166666Y-122328628D01*
X151166666Y-122328628D02*
X150785714Y-122328628D01*
X151738095Y-121900057D02*
X151785714Y-121852438D01*
X151785714Y-121852438D02*
X151880952Y-121804819D01*
X151880952Y-121804819D02*
X152119047Y-121804819D01*
X152119047Y-121804819D02*
X152214285Y-121852438D01*
X152214285Y-121852438D02*
X152261904Y-121900057D01*
X152261904Y-121900057D02*
X152309523Y-121995295D01*
X152309523Y-121995295D02*
X152309523Y-122090533D01*
X152309523Y-122090533D02*
X152261904Y-122233390D01*
X152261904Y-122233390D02*
X151690476Y-122804819D01*
X151690476Y-122804819D02*
X152309523Y-122804819D01*
X152642857Y-121804819D02*
X153309523Y-121804819D01*
X153309523Y-121804819D02*
X152880952Y-122804819D01*
X37833333Y-48804819D02*
X37500000Y-48328628D01*
X37261905Y-48804819D02*
X37261905Y-47804819D01*
X37261905Y-47804819D02*
X37642857Y-47804819D01*
X37642857Y-47804819D02*
X37738095Y-47852438D01*
X37738095Y-47852438D02*
X37785714Y-47900057D01*
X37785714Y-47900057D02*
X37833333Y-47995295D01*
X37833333Y-47995295D02*
X37833333Y-48138152D01*
X37833333Y-48138152D02*
X37785714Y-48233390D01*
X37785714Y-48233390D02*
X37738095Y-48281009D01*
X37738095Y-48281009D02*
X37642857Y-48328628D01*
X37642857Y-48328628D02*
X37261905Y-48328628D01*
X38309524Y-48804819D02*
X38500000Y-48804819D01*
X38500000Y-48804819D02*
X38595238Y-48757200D01*
X38595238Y-48757200D02*
X38642857Y-48709580D01*
X38642857Y-48709580D02*
X38738095Y-48566723D01*
X38738095Y-48566723D02*
X38785714Y-48376247D01*
X38785714Y-48376247D02*
X38785714Y-47995295D01*
X38785714Y-47995295D02*
X38738095Y-47900057D01*
X38738095Y-47900057D02*
X38690476Y-47852438D01*
X38690476Y-47852438D02*
X38595238Y-47804819D01*
X38595238Y-47804819D02*
X38404762Y-47804819D01*
X38404762Y-47804819D02*
X38309524Y-47852438D01*
X38309524Y-47852438D02*
X38261905Y-47900057D01*
X38261905Y-47900057D02*
X38214286Y-47995295D01*
X38214286Y-47995295D02*
X38214286Y-48233390D01*
X38214286Y-48233390D02*
X38261905Y-48328628D01*
X38261905Y-48328628D02*
X38309524Y-48376247D01*
X38309524Y-48376247D02*
X38404762Y-48423866D01*
X38404762Y-48423866D02*
X38595238Y-48423866D01*
X38595238Y-48423866D02*
X38690476Y-48376247D01*
X38690476Y-48376247D02*
X38738095Y-48328628D01*
X38738095Y-48328628D02*
X38785714Y-48233390D01*
X102357142Y-122804819D02*
X102023809Y-122328628D01*
X101785714Y-122804819D02*
X101785714Y-121804819D01*
X101785714Y-121804819D02*
X102166666Y-121804819D01*
X102166666Y-121804819D02*
X102261904Y-121852438D01*
X102261904Y-121852438D02*
X102309523Y-121900057D01*
X102309523Y-121900057D02*
X102357142Y-121995295D01*
X102357142Y-121995295D02*
X102357142Y-122138152D01*
X102357142Y-122138152D02*
X102309523Y-122233390D01*
X102309523Y-122233390D02*
X102261904Y-122281009D01*
X102261904Y-122281009D02*
X102166666Y-122328628D01*
X102166666Y-122328628D02*
X101785714Y-122328628D01*
X102738095Y-121900057D02*
X102785714Y-121852438D01*
X102785714Y-121852438D02*
X102880952Y-121804819D01*
X102880952Y-121804819D02*
X103119047Y-121804819D01*
X103119047Y-121804819D02*
X103214285Y-121852438D01*
X103214285Y-121852438D02*
X103261904Y-121900057D01*
X103261904Y-121900057D02*
X103309523Y-121995295D01*
X103309523Y-121995295D02*
X103309523Y-122090533D01*
X103309523Y-122090533D02*
X103261904Y-122233390D01*
X103261904Y-122233390D02*
X102690476Y-122804819D01*
X102690476Y-122804819D02*
X103309523Y-122804819D01*
X104166666Y-122138152D02*
X104166666Y-122804819D01*
X103928571Y-121757200D02*
X103690476Y-122471485D01*
X103690476Y-122471485D02*
X104309523Y-122471485D01*
X127357142Y-80509580D02*
X127309523Y-80557200D01*
X127309523Y-80557200D02*
X127166666Y-80604819D01*
X127166666Y-80604819D02*
X127071428Y-80604819D01*
X127071428Y-80604819D02*
X126928571Y-80557200D01*
X126928571Y-80557200D02*
X126833333Y-80461961D01*
X126833333Y-80461961D02*
X126785714Y-80366723D01*
X126785714Y-80366723D02*
X126738095Y-80176247D01*
X126738095Y-80176247D02*
X126738095Y-80033390D01*
X126738095Y-80033390D02*
X126785714Y-79842914D01*
X126785714Y-79842914D02*
X126833333Y-79747676D01*
X126833333Y-79747676D02*
X126928571Y-79652438D01*
X126928571Y-79652438D02*
X127071428Y-79604819D01*
X127071428Y-79604819D02*
X127166666Y-79604819D01*
X127166666Y-79604819D02*
X127309523Y-79652438D01*
X127309523Y-79652438D02*
X127357142Y-79700057D01*
X128309523Y-80604819D02*
X127738095Y-80604819D01*
X128023809Y-80604819D02*
X128023809Y-79604819D01*
X128023809Y-79604819D02*
X127928571Y-79747676D01*
X127928571Y-79747676D02*
X127833333Y-79842914D01*
X127833333Y-79842914D02*
X127738095Y-79890533D01*
X128928571Y-79604819D02*
X129023809Y-79604819D01*
X129023809Y-79604819D02*
X129119047Y-79652438D01*
X129119047Y-79652438D02*
X129166666Y-79700057D01*
X129166666Y-79700057D02*
X129214285Y-79795295D01*
X129214285Y-79795295D02*
X129261904Y-79985771D01*
X129261904Y-79985771D02*
X129261904Y-80223866D01*
X129261904Y-80223866D02*
X129214285Y-80414342D01*
X129214285Y-80414342D02*
X129166666Y-80509580D01*
X129166666Y-80509580D02*
X129119047Y-80557200D01*
X129119047Y-80557200D02*
X129023809Y-80604819D01*
X129023809Y-80604819D02*
X128928571Y-80604819D01*
X128928571Y-80604819D02*
X128833333Y-80557200D01*
X128833333Y-80557200D02*
X128785714Y-80509580D01*
X128785714Y-80509580D02*
X128738095Y-80414342D01*
X128738095Y-80414342D02*
X128690476Y-80223866D01*
X128690476Y-80223866D02*
X128690476Y-79985771D01*
X128690476Y-79985771D02*
X128738095Y-79795295D01*
X128738095Y-79795295D02*
X128785714Y-79700057D01*
X128785714Y-79700057D02*
X128833333Y-79652438D01*
X128833333Y-79652438D02*
X128928571Y-79604819D01*
X89833333Y-38804819D02*
X89500000Y-38328628D01*
X89261905Y-38804819D02*
X89261905Y-37804819D01*
X89261905Y-37804819D02*
X89642857Y-37804819D01*
X89642857Y-37804819D02*
X89738095Y-37852438D01*
X89738095Y-37852438D02*
X89785714Y-37900057D01*
X89785714Y-37900057D02*
X89833333Y-37995295D01*
X89833333Y-37995295D02*
X89833333Y-38138152D01*
X89833333Y-38138152D02*
X89785714Y-38233390D01*
X89785714Y-38233390D02*
X89738095Y-38281009D01*
X89738095Y-38281009D02*
X89642857Y-38328628D01*
X89642857Y-38328628D02*
X89261905Y-38328628D01*
X90785714Y-38804819D02*
X90214286Y-38804819D01*
X90500000Y-38804819D02*
X90500000Y-37804819D01*
X90500000Y-37804819D02*
X90404762Y-37947676D01*
X90404762Y-37947676D02*
X90309524Y-38042914D01*
X90309524Y-38042914D02*
X90214286Y-38090533D01*
X155833333Y-47704819D02*
X155357143Y-47704819D01*
X155357143Y-47704819D02*
X155357143Y-46704819D01*
X156690476Y-47704819D02*
X156119048Y-47704819D01*
X156404762Y-47704819D02*
X156404762Y-46704819D01*
X156404762Y-46704819D02*
X156309524Y-46847676D01*
X156309524Y-46847676D02*
X156214286Y-46942914D01*
X156214286Y-46942914D02*
X156119048Y-46990533D01*
X64833333Y-48679580D02*
X64785714Y-48727200D01*
X64785714Y-48727200D02*
X64642857Y-48774819D01*
X64642857Y-48774819D02*
X64547619Y-48774819D01*
X64547619Y-48774819D02*
X64404762Y-48727200D01*
X64404762Y-48727200D02*
X64309524Y-48631961D01*
X64309524Y-48631961D02*
X64261905Y-48536723D01*
X64261905Y-48536723D02*
X64214286Y-48346247D01*
X64214286Y-48346247D02*
X64214286Y-48203390D01*
X64214286Y-48203390D02*
X64261905Y-48012914D01*
X64261905Y-48012914D02*
X64309524Y-47917676D01*
X64309524Y-47917676D02*
X64404762Y-47822438D01*
X64404762Y-47822438D02*
X64547619Y-47774819D01*
X64547619Y-47774819D02*
X64642857Y-47774819D01*
X64642857Y-47774819D02*
X64785714Y-47822438D01*
X64785714Y-47822438D02*
X64833333Y-47870057D01*
X65404762Y-48203390D02*
X65309524Y-48155771D01*
X65309524Y-48155771D02*
X65261905Y-48108152D01*
X65261905Y-48108152D02*
X65214286Y-48012914D01*
X65214286Y-48012914D02*
X65214286Y-47965295D01*
X65214286Y-47965295D02*
X65261905Y-47870057D01*
X65261905Y-47870057D02*
X65309524Y-47822438D01*
X65309524Y-47822438D02*
X65404762Y-47774819D01*
X65404762Y-47774819D02*
X65595238Y-47774819D01*
X65595238Y-47774819D02*
X65690476Y-47822438D01*
X65690476Y-47822438D02*
X65738095Y-47870057D01*
X65738095Y-47870057D02*
X65785714Y-47965295D01*
X65785714Y-47965295D02*
X65785714Y-48012914D01*
X65785714Y-48012914D02*
X65738095Y-48108152D01*
X65738095Y-48108152D02*
X65690476Y-48155771D01*
X65690476Y-48155771D02*
X65595238Y-48203390D01*
X65595238Y-48203390D02*
X65404762Y-48203390D01*
X65404762Y-48203390D02*
X65309524Y-48251009D01*
X65309524Y-48251009D02*
X65261905Y-48298628D01*
X65261905Y-48298628D02*
X65214286Y-48393866D01*
X65214286Y-48393866D02*
X65214286Y-48584342D01*
X65214286Y-48584342D02*
X65261905Y-48679580D01*
X65261905Y-48679580D02*
X65309524Y-48727200D01*
X65309524Y-48727200D02*
X65404762Y-48774819D01*
X65404762Y-48774819D02*
X65595238Y-48774819D01*
X65595238Y-48774819D02*
X65690476Y-48727200D01*
X65690476Y-48727200D02*
X65738095Y-48679580D01*
X65738095Y-48679580D02*
X65785714Y-48584342D01*
X65785714Y-48584342D02*
X65785714Y-48393866D01*
X65785714Y-48393866D02*
X65738095Y-48298628D01*
X65738095Y-48298628D02*
X65690476Y-48251009D01*
X65690476Y-48251009D02*
X65595238Y-48203390D01*
X57357142Y-32804819D02*
X57023809Y-32328628D01*
X56785714Y-32804819D02*
X56785714Y-31804819D01*
X56785714Y-31804819D02*
X57166666Y-31804819D01*
X57166666Y-31804819D02*
X57261904Y-31852438D01*
X57261904Y-31852438D02*
X57309523Y-31900057D01*
X57309523Y-31900057D02*
X57357142Y-31995295D01*
X57357142Y-31995295D02*
X57357142Y-32138152D01*
X57357142Y-32138152D02*
X57309523Y-32233390D01*
X57309523Y-32233390D02*
X57261904Y-32281009D01*
X57261904Y-32281009D02*
X57166666Y-32328628D01*
X57166666Y-32328628D02*
X56785714Y-32328628D01*
X58309523Y-32804819D02*
X57738095Y-32804819D01*
X58023809Y-32804819D02*
X58023809Y-31804819D01*
X58023809Y-31804819D02*
X57928571Y-31947676D01*
X57928571Y-31947676D02*
X57833333Y-32042914D01*
X57833333Y-32042914D02*
X57738095Y-32090533D01*
X59261904Y-32804819D02*
X58690476Y-32804819D01*
X58976190Y-32804819D02*
X58976190Y-31804819D01*
X58976190Y-31804819D02*
X58880952Y-31947676D01*
X58880952Y-31947676D02*
X58785714Y-32042914D01*
X58785714Y-32042914D02*
X58690476Y-32090533D01*
X148833333Y-59509580D02*
X148785714Y-59557200D01*
X148785714Y-59557200D02*
X148642857Y-59604819D01*
X148642857Y-59604819D02*
X148547619Y-59604819D01*
X148547619Y-59604819D02*
X148404762Y-59557200D01*
X148404762Y-59557200D02*
X148309524Y-59461961D01*
X148309524Y-59461961D02*
X148261905Y-59366723D01*
X148261905Y-59366723D02*
X148214286Y-59176247D01*
X148214286Y-59176247D02*
X148214286Y-59033390D01*
X148214286Y-59033390D02*
X148261905Y-58842914D01*
X148261905Y-58842914D02*
X148309524Y-58747676D01*
X148309524Y-58747676D02*
X148404762Y-58652438D01*
X148404762Y-58652438D02*
X148547619Y-58604819D01*
X148547619Y-58604819D02*
X148642857Y-58604819D01*
X148642857Y-58604819D02*
X148785714Y-58652438D01*
X148785714Y-58652438D02*
X148833333Y-58700057D01*
X149166667Y-58604819D02*
X149785714Y-58604819D01*
X149785714Y-58604819D02*
X149452381Y-58985771D01*
X149452381Y-58985771D02*
X149595238Y-58985771D01*
X149595238Y-58985771D02*
X149690476Y-59033390D01*
X149690476Y-59033390D02*
X149738095Y-59081009D01*
X149738095Y-59081009D02*
X149785714Y-59176247D01*
X149785714Y-59176247D02*
X149785714Y-59414342D01*
X149785714Y-59414342D02*
X149738095Y-59509580D01*
X149738095Y-59509580D02*
X149690476Y-59557200D01*
X149690476Y-59557200D02*
X149595238Y-59604819D01*
X149595238Y-59604819D02*
X149309524Y-59604819D01*
X149309524Y-59604819D02*
X149214286Y-59557200D01*
X149214286Y-59557200D02*
X149166667Y-59509580D01*
X135904761Y-121050057D02*
X135809523Y-121002438D01*
X135809523Y-121002438D02*
X135714285Y-120907200D01*
X135714285Y-120907200D02*
X135571428Y-120764342D01*
X135571428Y-120764342D02*
X135476190Y-120716723D01*
X135476190Y-120716723D02*
X135380952Y-120716723D01*
X135428571Y-120954819D02*
X135333333Y-120907200D01*
X135333333Y-120907200D02*
X135238095Y-120811961D01*
X135238095Y-120811961D02*
X135190476Y-120621485D01*
X135190476Y-120621485D02*
X135190476Y-120288152D01*
X135190476Y-120288152D02*
X135238095Y-120097676D01*
X135238095Y-120097676D02*
X135333333Y-120002438D01*
X135333333Y-120002438D02*
X135428571Y-119954819D01*
X135428571Y-119954819D02*
X135619047Y-119954819D01*
X135619047Y-119954819D02*
X135714285Y-120002438D01*
X135714285Y-120002438D02*
X135809523Y-120097676D01*
X135809523Y-120097676D02*
X135857142Y-120288152D01*
X135857142Y-120288152D02*
X135857142Y-120621485D01*
X135857142Y-120621485D02*
X135809523Y-120811961D01*
X135809523Y-120811961D02*
X135714285Y-120907200D01*
X135714285Y-120907200D02*
X135619047Y-120954819D01*
X135619047Y-120954819D02*
X135428571Y-120954819D01*
X136714285Y-119954819D02*
X136523809Y-119954819D01*
X136523809Y-119954819D02*
X136428571Y-120002438D01*
X136428571Y-120002438D02*
X136380952Y-120050057D01*
X136380952Y-120050057D02*
X136285714Y-120192914D01*
X136285714Y-120192914D02*
X136238095Y-120383390D01*
X136238095Y-120383390D02*
X136238095Y-120764342D01*
X136238095Y-120764342D02*
X136285714Y-120859580D01*
X136285714Y-120859580D02*
X136333333Y-120907200D01*
X136333333Y-120907200D02*
X136428571Y-120954819D01*
X136428571Y-120954819D02*
X136619047Y-120954819D01*
X136619047Y-120954819D02*
X136714285Y-120907200D01*
X136714285Y-120907200D02*
X136761904Y-120859580D01*
X136761904Y-120859580D02*
X136809523Y-120764342D01*
X136809523Y-120764342D02*
X136809523Y-120526247D01*
X136809523Y-120526247D02*
X136761904Y-120431009D01*
X136761904Y-120431009D02*
X136714285Y-120383390D01*
X136714285Y-120383390D02*
X136619047Y-120335771D01*
X136619047Y-120335771D02*
X136428571Y-120335771D01*
X136428571Y-120335771D02*
X136333333Y-120383390D01*
X136333333Y-120383390D02*
X136285714Y-120431009D01*
X136285714Y-120431009D02*
X136238095Y-120526247D01*
X172833333Y-47704819D02*
X172357143Y-47704819D01*
X172357143Y-47704819D02*
X172357143Y-46704819D01*
X173119048Y-46800057D02*
X173166667Y-46752438D01*
X173166667Y-46752438D02*
X173261905Y-46704819D01*
X173261905Y-46704819D02*
X173500000Y-46704819D01*
X173500000Y-46704819D02*
X173595238Y-46752438D01*
X173595238Y-46752438D02*
X173642857Y-46800057D01*
X173642857Y-46800057D02*
X173690476Y-46895295D01*
X173690476Y-46895295D02*
X173690476Y-46990533D01*
X173690476Y-46990533D02*
X173642857Y-47133390D01*
X173642857Y-47133390D02*
X173071429Y-47704819D01*
X173071429Y-47704819D02*
X173690476Y-47704819D01*
X165833333Y-59509580D02*
X165785714Y-59557200D01*
X165785714Y-59557200D02*
X165642857Y-59604819D01*
X165642857Y-59604819D02*
X165547619Y-59604819D01*
X165547619Y-59604819D02*
X165404762Y-59557200D01*
X165404762Y-59557200D02*
X165309524Y-59461961D01*
X165309524Y-59461961D02*
X165261905Y-59366723D01*
X165261905Y-59366723D02*
X165214286Y-59176247D01*
X165214286Y-59176247D02*
X165214286Y-59033390D01*
X165214286Y-59033390D02*
X165261905Y-58842914D01*
X165261905Y-58842914D02*
X165309524Y-58747676D01*
X165309524Y-58747676D02*
X165404762Y-58652438D01*
X165404762Y-58652438D02*
X165547619Y-58604819D01*
X165547619Y-58604819D02*
X165642857Y-58604819D01*
X165642857Y-58604819D02*
X165785714Y-58652438D01*
X165785714Y-58652438D02*
X165833333Y-58700057D01*
X166690476Y-58938152D02*
X166690476Y-59604819D01*
X166452381Y-58557200D02*
X166214286Y-59271485D01*
X166214286Y-59271485D02*
X166833333Y-59271485D01*
X156357142Y-27324819D02*
X156023809Y-26848628D01*
X155785714Y-27324819D02*
X155785714Y-26324819D01*
X155785714Y-26324819D02*
X156166666Y-26324819D01*
X156166666Y-26324819D02*
X156261904Y-26372438D01*
X156261904Y-26372438D02*
X156309523Y-26420057D01*
X156309523Y-26420057D02*
X156357142Y-26515295D01*
X156357142Y-26515295D02*
X156357142Y-26658152D01*
X156357142Y-26658152D02*
X156309523Y-26753390D01*
X156309523Y-26753390D02*
X156261904Y-26801009D01*
X156261904Y-26801009D02*
X156166666Y-26848628D01*
X156166666Y-26848628D02*
X155785714Y-26848628D01*
X156690476Y-26324819D02*
X157309523Y-26324819D01*
X157309523Y-26324819D02*
X156976190Y-26705771D01*
X156976190Y-26705771D02*
X157119047Y-26705771D01*
X157119047Y-26705771D02*
X157214285Y-26753390D01*
X157214285Y-26753390D02*
X157261904Y-26801009D01*
X157261904Y-26801009D02*
X157309523Y-26896247D01*
X157309523Y-26896247D02*
X157309523Y-27134342D01*
X157309523Y-27134342D02*
X157261904Y-27229580D01*
X157261904Y-27229580D02*
X157214285Y-27277200D01*
X157214285Y-27277200D02*
X157119047Y-27324819D01*
X157119047Y-27324819D02*
X156833333Y-27324819D01*
X156833333Y-27324819D02*
X156738095Y-27277200D01*
X156738095Y-27277200D02*
X156690476Y-27229580D01*
X158214285Y-26324819D02*
X157738095Y-26324819D01*
X157738095Y-26324819D02*
X157690476Y-26801009D01*
X157690476Y-26801009D02*
X157738095Y-26753390D01*
X157738095Y-26753390D02*
X157833333Y-26705771D01*
X157833333Y-26705771D02*
X158071428Y-26705771D01*
X158071428Y-26705771D02*
X158166666Y-26753390D01*
X158166666Y-26753390D02*
X158214285Y-26801009D01*
X158214285Y-26801009D02*
X158261904Y-26896247D01*
X158261904Y-26896247D02*
X158261904Y-27134342D01*
X158261904Y-27134342D02*
X158214285Y-27229580D01*
X158214285Y-27229580D02*
X158166666Y-27277200D01*
X158166666Y-27277200D02*
X158071428Y-27324819D01*
X158071428Y-27324819D02*
X157833333Y-27324819D01*
X157833333Y-27324819D02*
X157738095Y-27277200D01*
X157738095Y-27277200D02*
X157690476Y-27229580D01*
X45833333Y-31704819D02*
X45357143Y-31704819D01*
X45357143Y-31704819D02*
X45357143Y-30704819D01*
X46595238Y-31038152D02*
X46595238Y-31704819D01*
X46357143Y-30657200D02*
X46119048Y-31371485D01*
X46119048Y-31371485D02*
X46738095Y-31371485D01*
X211804819Y-122138094D02*
X210804819Y-122138094D01*
X210804819Y-122138094D02*
X210804819Y-121899999D01*
X210804819Y-121899999D02*
X210852438Y-121757142D01*
X210852438Y-121757142D02*
X210947676Y-121661904D01*
X210947676Y-121661904D02*
X211042914Y-121614285D01*
X211042914Y-121614285D02*
X211233390Y-121566666D01*
X211233390Y-121566666D02*
X211376247Y-121566666D01*
X211376247Y-121566666D02*
X211566723Y-121614285D01*
X211566723Y-121614285D02*
X211661961Y-121661904D01*
X211661961Y-121661904D02*
X211757200Y-121757142D01*
X211757200Y-121757142D02*
X211804819Y-121899999D01*
X211804819Y-121899999D02*
X211804819Y-122138094D01*
X211233390Y-120995237D02*
X211185771Y-121090475D01*
X211185771Y-121090475D02*
X211138152Y-121138094D01*
X211138152Y-121138094D02*
X211042914Y-121185713D01*
X211042914Y-121185713D02*
X210995295Y-121185713D01*
X210995295Y-121185713D02*
X210900057Y-121138094D01*
X210900057Y-121138094D02*
X210852438Y-121090475D01*
X210852438Y-121090475D02*
X210804819Y-120995237D01*
X210804819Y-120995237D02*
X210804819Y-120804761D01*
X210804819Y-120804761D02*
X210852438Y-120709523D01*
X210852438Y-120709523D02*
X210900057Y-120661904D01*
X210900057Y-120661904D02*
X210995295Y-120614285D01*
X210995295Y-120614285D02*
X211042914Y-120614285D01*
X211042914Y-120614285D02*
X211138152Y-120661904D01*
X211138152Y-120661904D02*
X211185771Y-120709523D01*
X211185771Y-120709523D02*
X211233390Y-120804761D01*
X211233390Y-120804761D02*
X211233390Y-120995237D01*
X211233390Y-120995237D02*
X211281009Y-121090475D01*
X211281009Y-121090475D02*
X211328628Y-121138094D01*
X211328628Y-121138094D02*
X211423866Y-121185713D01*
X211423866Y-121185713D02*
X211614342Y-121185713D01*
X211614342Y-121185713D02*
X211709580Y-121138094D01*
X211709580Y-121138094D02*
X211757200Y-121090475D01*
X211757200Y-121090475D02*
X211804819Y-120995237D01*
X211804819Y-120995237D02*
X211804819Y-120804761D01*
X211804819Y-120804761D02*
X211757200Y-120709523D01*
X211757200Y-120709523D02*
X211709580Y-120661904D01*
X211709580Y-120661904D02*
X211614342Y-120614285D01*
X211614342Y-120614285D02*
X211423866Y-120614285D01*
X211423866Y-120614285D02*
X211328628Y-120661904D01*
X211328628Y-120661904D02*
X211281009Y-120709523D01*
X211281009Y-120709523D02*
X211233390Y-120804761D01*
X59357142Y-118804819D02*
X59023809Y-118328628D01*
X58785714Y-118804819D02*
X58785714Y-117804819D01*
X58785714Y-117804819D02*
X59166666Y-117804819D01*
X59166666Y-117804819D02*
X59261904Y-117852438D01*
X59261904Y-117852438D02*
X59309523Y-117900057D01*
X59309523Y-117900057D02*
X59357142Y-117995295D01*
X59357142Y-117995295D02*
X59357142Y-118138152D01*
X59357142Y-118138152D02*
X59309523Y-118233390D01*
X59309523Y-118233390D02*
X59261904Y-118281009D01*
X59261904Y-118281009D02*
X59166666Y-118328628D01*
X59166666Y-118328628D02*
X58785714Y-118328628D01*
X59690476Y-117804819D02*
X60309523Y-117804819D01*
X60309523Y-117804819D02*
X59976190Y-118185771D01*
X59976190Y-118185771D02*
X60119047Y-118185771D01*
X60119047Y-118185771D02*
X60214285Y-118233390D01*
X60214285Y-118233390D02*
X60261904Y-118281009D01*
X60261904Y-118281009D02*
X60309523Y-118376247D01*
X60309523Y-118376247D02*
X60309523Y-118614342D01*
X60309523Y-118614342D02*
X60261904Y-118709580D01*
X60261904Y-118709580D02*
X60214285Y-118757200D01*
X60214285Y-118757200D02*
X60119047Y-118804819D01*
X60119047Y-118804819D02*
X59833333Y-118804819D01*
X59833333Y-118804819D02*
X59738095Y-118757200D01*
X59738095Y-118757200D02*
X59690476Y-118709580D01*
X60690476Y-117900057D02*
X60738095Y-117852438D01*
X60738095Y-117852438D02*
X60833333Y-117804819D01*
X60833333Y-117804819D02*
X61071428Y-117804819D01*
X61071428Y-117804819D02*
X61166666Y-117852438D01*
X61166666Y-117852438D02*
X61214285Y-117900057D01*
X61214285Y-117900057D02*
X61261904Y-117995295D01*
X61261904Y-117995295D02*
X61261904Y-118090533D01*
X61261904Y-118090533D02*
X61214285Y-118233390D01*
X61214285Y-118233390D02*
X60642857Y-118804819D01*
X60642857Y-118804819D02*
X61261904Y-118804819D01*
X148904761Y-112050057D02*
X148809523Y-112002438D01*
X148809523Y-112002438D02*
X148714285Y-111907200D01*
X148714285Y-111907200D02*
X148571428Y-111764342D01*
X148571428Y-111764342D02*
X148476190Y-111716723D01*
X148476190Y-111716723D02*
X148380952Y-111716723D01*
X148428571Y-111954819D02*
X148333333Y-111907200D01*
X148333333Y-111907200D02*
X148238095Y-111811961D01*
X148238095Y-111811961D02*
X148190476Y-111621485D01*
X148190476Y-111621485D02*
X148190476Y-111288152D01*
X148190476Y-111288152D02*
X148238095Y-111097676D01*
X148238095Y-111097676D02*
X148333333Y-111002438D01*
X148333333Y-111002438D02*
X148428571Y-110954819D01*
X148428571Y-110954819D02*
X148619047Y-110954819D01*
X148619047Y-110954819D02*
X148714285Y-111002438D01*
X148714285Y-111002438D02*
X148809523Y-111097676D01*
X148809523Y-111097676D02*
X148857142Y-111288152D01*
X148857142Y-111288152D02*
X148857142Y-111621485D01*
X148857142Y-111621485D02*
X148809523Y-111811961D01*
X148809523Y-111811961D02*
X148714285Y-111907200D01*
X148714285Y-111907200D02*
X148619047Y-111954819D01*
X148619047Y-111954819D02*
X148428571Y-111954819D01*
X149190476Y-110954819D02*
X149857142Y-110954819D01*
X149857142Y-110954819D02*
X149428571Y-111954819D01*
X79439580Y-124642857D02*
X79487200Y-124690476D01*
X79487200Y-124690476D02*
X79534819Y-124833333D01*
X79534819Y-124833333D02*
X79534819Y-124928571D01*
X79534819Y-124928571D02*
X79487200Y-125071428D01*
X79487200Y-125071428D02*
X79391961Y-125166666D01*
X79391961Y-125166666D02*
X79296723Y-125214285D01*
X79296723Y-125214285D02*
X79106247Y-125261904D01*
X79106247Y-125261904D02*
X78963390Y-125261904D01*
X78963390Y-125261904D02*
X78772914Y-125214285D01*
X78772914Y-125214285D02*
X78677676Y-125166666D01*
X78677676Y-125166666D02*
X78582438Y-125071428D01*
X78582438Y-125071428D02*
X78534819Y-124928571D01*
X78534819Y-124928571D02*
X78534819Y-124833333D01*
X78534819Y-124833333D02*
X78582438Y-124690476D01*
X78582438Y-124690476D02*
X78630057Y-124642857D01*
X78534819Y-124309523D02*
X78534819Y-123690476D01*
X78534819Y-123690476D02*
X78915771Y-124023809D01*
X78915771Y-124023809D02*
X78915771Y-123880952D01*
X78915771Y-123880952D02*
X78963390Y-123785714D01*
X78963390Y-123785714D02*
X79011009Y-123738095D01*
X79011009Y-123738095D02*
X79106247Y-123690476D01*
X79106247Y-123690476D02*
X79344342Y-123690476D01*
X79344342Y-123690476D02*
X79439580Y-123738095D01*
X79439580Y-123738095D02*
X79487200Y-123785714D01*
X79487200Y-123785714D02*
X79534819Y-123880952D01*
X79534819Y-123880952D02*
X79534819Y-124166666D01*
X79534819Y-124166666D02*
X79487200Y-124261904D01*
X79487200Y-124261904D02*
X79439580Y-124309523D01*
X79534819Y-122738095D02*
X79534819Y-123309523D01*
X79534819Y-123023809D02*
X78534819Y-123023809D01*
X78534819Y-123023809D02*
X78677676Y-123119047D01*
X78677676Y-123119047D02*
X78772914Y-123214285D01*
X78772914Y-123214285D02*
X78820533Y-123309523D01*
X84357142Y-119804819D02*
X84023809Y-119328628D01*
X83785714Y-119804819D02*
X83785714Y-118804819D01*
X83785714Y-118804819D02*
X84166666Y-118804819D01*
X84166666Y-118804819D02*
X84261904Y-118852438D01*
X84261904Y-118852438D02*
X84309523Y-118900057D01*
X84309523Y-118900057D02*
X84357142Y-118995295D01*
X84357142Y-118995295D02*
X84357142Y-119138152D01*
X84357142Y-119138152D02*
X84309523Y-119233390D01*
X84309523Y-119233390D02*
X84261904Y-119281009D01*
X84261904Y-119281009D02*
X84166666Y-119328628D01*
X84166666Y-119328628D02*
X83785714Y-119328628D01*
X85309523Y-119804819D02*
X84738095Y-119804819D01*
X85023809Y-119804819D02*
X85023809Y-118804819D01*
X85023809Y-118804819D02*
X84928571Y-118947676D01*
X84928571Y-118947676D02*
X84833333Y-119042914D01*
X84833333Y-119042914D02*
X84738095Y-119090533D01*
X85785714Y-119804819D02*
X85976190Y-119804819D01*
X85976190Y-119804819D02*
X86071428Y-119757200D01*
X86071428Y-119757200D02*
X86119047Y-119709580D01*
X86119047Y-119709580D02*
X86214285Y-119566723D01*
X86214285Y-119566723D02*
X86261904Y-119376247D01*
X86261904Y-119376247D02*
X86261904Y-118995295D01*
X86261904Y-118995295D02*
X86214285Y-118900057D01*
X86214285Y-118900057D02*
X86166666Y-118852438D01*
X86166666Y-118852438D02*
X86071428Y-118804819D01*
X86071428Y-118804819D02*
X85880952Y-118804819D01*
X85880952Y-118804819D02*
X85785714Y-118852438D01*
X85785714Y-118852438D02*
X85738095Y-118900057D01*
X85738095Y-118900057D02*
X85690476Y-118995295D01*
X85690476Y-118995295D02*
X85690476Y-119233390D01*
X85690476Y-119233390D02*
X85738095Y-119328628D01*
X85738095Y-119328628D02*
X85785714Y-119376247D01*
X85785714Y-119376247D02*
X85880952Y-119423866D01*
X85880952Y-119423866D02*
X86071428Y-119423866D01*
X86071428Y-119423866D02*
X86166666Y-119376247D01*
X86166666Y-119376247D02*
X86214285Y-119328628D01*
X86214285Y-119328628D02*
X86261904Y-119233390D01*
X120833333Y-106054819D02*
X120357143Y-106054819D01*
X120357143Y-106054819D02*
X120357143Y-105054819D01*
X121595238Y-105054819D02*
X121404762Y-105054819D01*
X121404762Y-105054819D02*
X121309524Y-105102438D01*
X121309524Y-105102438D02*
X121261905Y-105150057D01*
X121261905Y-105150057D02*
X121166667Y-105292914D01*
X121166667Y-105292914D02*
X121119048Y-105483390D01*
X121119048Y-105483390D02*
X121119048Y-105864342D01*
X121119048Y-105864342D02*
X121166667Y-105959580D01*
X121166667Y-105959580D02*
X121214286Y-106007200D01*
X121214286Y-106007200D02*
X121309524Y-106054819D01*
X121309524Y-106054819D02*
X121500000Y-106054819D01*
X121500000Y-106054819D02*
X121595238Y-106007200D01*
X121595238Y-106007200D02*
X121642857Y-105959580D01*
X121642857Y-105959580D02*
X121690476Y-105864342D01*
X121690476Y-105864342D02*
X121690476Y-105626247D01*
X121690476Y-105626247D02*
X121642857Y-105531009D01*
X121642857Y-105531009D02*
X121595238Y-105483390D01*
X121595238Y-105483390D02*
X121500000Y-105435771D01*
X121500000Y-105435771D02*
X121309524Y-105435771D01*
X121309524Y-105435771D02*
X121214286Y-105483390D01*
X121214286Y-105483390D02*
X121166667Y-105531009D01*
X121166667Y-105531009D02*
X121119048Y-105626247D01*
X144357142Y-122679580D02*
X144309523Y-122727200D01*
X144309523Y-122727200D02*
X144166666Y-122774819D01*
X144166666Y-122774819D02*
X144071428Y-122774819D01*
X144071428Y-122774819D02*
X143928571Y-122727200D01*
X143928571Y-122727200D02*
X143833333Y-122631961D01*
X143833333Y-122631961D02*
X143785714Y-122536723D01*
X143785714Y-122536723D02*
X143738095Y-122346247D01*
X143738095Y-122346247D02*
X143738095Y-122203390D01*
X143738095Y-122203390D02*
X143785714Y-122012914D01*
X143785714Y-122012914D02*
X143833333Y-121917676D01*
X143833333Y-121917676D02*
X143928571Y-121822438D01*
X143928571Y-121822438D02*
X144071428Y-121774819D01*
X144071428Y-121774819D02*
X144166666Y-121774819D01*
X144166666Y-121774819D02*
X144309523Y-121822438D01*
X144309523Y-121822438D02*
X144357142Y-121870057D01*
X144738095Y-121870057D02*
X144785714Y-121822438D01*
X144785714Y-121822438D02*
X144880952Y-121774819D01*
X144880952Y-121774819D02*
X145119047Y-121774819D01*
X145119047Y-121774819D02*
X145214285Y-121822438D01*
X145214285Y-121822438D02*
X145261904Y-121870057D01*
X145261904Y-121870057D02*
X145309523Y-121965295D01*
X145309523Y-121965295D02*
X145309523Y-122060533D01*
X145309523Y-122060533D02*
X145261904Y-122203390D01*
X145261904Y-122203390D02*
X144690476Y-122774819D01*
X144690476Y-122774819D02*
X145309523Y-122774819D01*
X146261904Y-122774819D02*
X145690476Y-122774819D01*
X145976190Y-122774819D02*
X145976190Y-121774819D01*
X145976190Y-121774819D02*
X145880952Y-121917676D01*
X145880952Y-121917676D02*
X145785714Y-122012914D01*
X145785714Y-122012914D02*
X145690476Y-122060533D01*
X87074819Y-125333333D02*
X87789104Y-125333333D01*
X87789104Y-125333333D02*
X87931961Y-125380952D01*
X87931961Y-125380952D02*
X88027200Y-125476190D01*
X88027200Y-125476190D02*
X88074819Y-125619047D01*
X88074819Y-125619047D02*
X88074819Y-125714285D01*
X87074819Y-124380952D02*
X87074819Y-124857142D01*
X87074819Y-124857142D02*
X87551009Y-124904761D01*
X87551009Y-124904761D02*
X87503390Y-124857142D01*
X87503390Y-124857142D02*
X87455771Y-124761904D01*
X87455771Y-124761904D02*
X87455771Y-124523809D01*
X87455771Y-124523809D02*
X87503390Y-124428571D01*
X87503390Y-124428571D02*
X87551009Y-124380952D01*
X87551009Y-124380952D02*
X87646247Y-124333333D01*
X87646247Y-124333333D02*
X87884342Y-124333333D01*
X87884342Y-124333333D02*
X87979580Y-124380952D01*
X87979580Y-124380952D02*
X88027200Y-124428571D01*
X88027200Y-124428571D02*
X88074819Y-124523809D01*
X88074819Y-124523809D02*
X88074819Y-124761904D01*
X88074819Y-124761904D02*
X88027200Y-124857142D01*
X88027200Y-124857142D02*
X87979580Y-124904761D01*
X89833333Y-58804819D02*
X89500000Y-58328628D01*
X89261905Y-58804819D02*
X89261905Y-57804819D01*
X89261905Y-57804819D02*
X89642857Y-57804819D01*
X89642857Y-57804819D02*
X89738095Y-57852438D01*
X89738095Y-57852438D02*
X89785714Y-57900057D01*
X89785714Y-57900057D02*
X89833333Y-57995295D01*
X89833333Y-57995295D02*
X89833333Y-58138152D01*
X89833333Y-58138152D02*
X89785714Y-58233390D01*
X89785714Y-58233390D02*
X89738095Y-58281009D01*
X89738095Y-58281009D02*
X89642857Y-58328628D01*
X89642857Y-58328628D02*
X89261905Y-58328628D01*
X90214286Y-57900057D02*
X90261905Y-57852438D01*
X90261905Y-57852438D02*
X90357143Y-57804819D01*
X90357143Y-57804819D02*
X90595238Y-57804819D01*
X90595238Y-57804819D02*
X90690476Y-57852438D01*
X90690476Y-57852438D02*
X90738095Y-57900057D01*
X90738095Y-57900057D02*
X90785714Y-57995295D01*
X90785714Y-57995295D02*
X90785714Y-58090533D01*
X90785714Y-58090533D02*
X90738095Y-58233390D01*
X90738095Y-58233390D02*
X90166667Y-58804819D01*
X90166667Y-58804819D02*
X90785714Y-58804819D01*
X94104819Y-117642857D02*
X93628628Y-117976190D01*
X94104819Y-118214285D02*
X93104819Y-118214285D01*
X93104819Y-118214285D02*
X93104819Y-117833333D01*
X93104819Y-117833333D02*
X93152438Y-117738095D01*
X93152438Y-117738095D02*
X93200057Y-117690476D01*
X93200057Y-117690476D02*
X93295295Y-117642857D01*
X93295295Y-117642857D02*
X93438152Y-117642857D01*
X93438152Y-117642857D02*
X93533390Y-117690476D01*
X93533390Y-117690476D02*
X93581009Y-117738095D01*
X93581009Y-117738095D02*
X93628628Y-117833333D01*
X93628628Y-117833333D02*
X93628628Y-118214285D01*
X93104819Y-117309523D02*
X93104819Y-116690476D01*
X93104819Y-116690476D02*
X93485771Y-117023809D01*
X93485771Y-117023809D02*
X93485771Y-116880952D01*
X93485771Y-116880952D02*
X93533390Y-116785714D01*
X93533390Y-116785714D02*
X93581009Y-116738095D01*
X93581009Y-116738095D02*
X93676247Y-116690476D01*
X93676247Y-116690476D02*
X93914342Y-116690476D01*
X93914342Y-116690476D02*
X94009580Y-116738095D01*
X94009580Y-116738095D02*
X94057200Y-116785714D01*
X94057200Y-116785714D02*
X94104819Y-116880952D01*
X94104819Y-116880952D02*
X94104819Y-117166666D01*
X94104819Y-117166666D02*
X94057200Y-117261904D01*
X94057200Y-117261904D02*
X94009580Y-117309523D01*
X94104819Y-115738095D02*
X94104819Y-116309523D01*
X94104819Y-116023809D02*
X93104819Y-116023809D01*
X93104819Y-116023809D02*
X93247676Y-116119047D01*
X93247676Y-116119047D02*
X93342914Y-116214285D01*
X93342914Y-116214285D02*
X93390533Y-116309523D01*
X140238095Y-48184819D02*
X140809523Y-48184819D01*
X140523809Y-49184819D02*
X140523809Y-48184819D01*
X141095238Y-48280057D02*
X141142857Y-48232438D01*
X141142857Y-48232438D02*
X141238095Y-48184819D01*
X141238095Y-48184819D02*
X141476190Y-48184819D01*
X141476190Y-48184819D02*
X141571428Y-48232438D01*
X141571428Y-48232438D02*
X141619047Y-48280057D01*
X141619047Y-48280057D02*
X141666666Y-48375295D01*
X141666666Y-48375295D02*
X141666666Y-48470533D01*
X141666666Y-48470533D02*
X141619047Y-48613390D01*
X141619047Y-48613390D02*
X141047619Y-49184819D01*
X141047619Y-49184819D02*
X141666666Y-49184819D01*
X132357142Y-122804819D02*
X132023809Y-122328628D01*
X131785714Y-122804819D02*
X131785714Y-121804819D01*
X131785714Y-121804819D02*
X132166666Y-121804819D01*
X132166666Y-121804819D02*
X132261904Y-121852438D01*
X132261904Y-121852438D02*
X132309523Y-121900057D01*
X132309523Y-121900057D02*
X132357142Y-121995295D01*
X132357142Y-121995295D02*
X132357142Y-122138152D01*
X132357142Y-122138152D02*
X132309523Y-122233390D01*
X132309523Y-122233390D02*
X132261904Y-122281009D01*
X132261904Y-122281009D02*
X132166666Y-122328628D01*
X132166666Y-122328628D02*
X131785714Y-122328628D01*
X132738095Y-121900057D02*
X132785714Y-121852438D01*
X132785714Y-121852438D02*
X132880952Y-121804819D01*
X132880952Y-121804819D02*
X133119047Y-121804819D01*
X133119047Y-121804819D02*
X133214285Y-121852438D01*
X133214285Y-121852438D02*
X133261904Y-121900057D01*
X133261904Y-121900057D02*
X133309523Y-121995295D01*
X133309523Y-121995295D02*
X133309523Y-122090533D01*
X133309523Y-122090533D02*
X133261904Y-122233390D01*
X133261904Y-122233390D02*
X132690476Y-122804819D01*
X132690476Y-122804819D02*
X133309523Y-122804819D01*
X134166666Y-121804819D02*
X133976190Y-121804819D01*
X133976190Y-121804819D02*
X133880952Y-121852438D01*
X133880952Y-121852438D02*
X133833333Y-121900057D01*
X133833333Y-121900057D02*
X133738095Y-122042914D01*
X133738095Y-122042914D02*
X133690476Y-122233390D01*
X133690476Y-122233390D02*
X133690476Y-122614342D01*
X133690476Y-122614342D02*
X133738095Y-122709580D01*
X133738095Y-122709580D02*
X133785714Y-122757200D01*
X133785714Y-122757200D02*
X133880952Y-122804819D01*
X133880952Y-122804819D02*
X134071428Y-122804819D01*
X134071428Y-122804819D02*
X134166666Y-122757200D01*
X134166666Y-122757200D02*
X134214285Y-122709580D01*
X134214285Y-122709580D02*
X134261904Y-122614342D01*
X134261904Y-122614342D02*
X134261904Y-122376247D01*
X134261904Y-122376247D02*
X134214285Y-122281009D01*
X134214285Y-122281009D02*
X134166666Y-122233390D01*
X134166666Y-122233390D02*
X134071428Y-122185771D01*
X134071428Y-122185771D02*
X133880952Y-122185771D01*
X133880952Y-122185771D02*
X133785714Y-122233390D01*
X133785714Y-122233390D02*
X133738095Y-122281009D01*
X133738095Y-122281009D02*
X133690476Y-122376247D01*
X108357142Y-125804819D02*
X108023809Y-125328628D01*
X107785714Y-125804819D02*
X107785714Y-124804819D01*
X107785714Y-124804819D02*
X108166666Y-124804819D01*
X108166666Y-124804819D02*
X108261904Y-124852438D01*
X108261904Y-124852438D02*
X108309523Y-124900057D01*
X108309523Y-124900057D02*
X108357142Y-124995295D01*
X108357142Y-124995295D02*
X108357142Y-125138152D01*
X108357142Y-125138152D02*
X108309523Y-125233390D01*
X108309523Y-125233390D02*
X108261904Y-125281009D01*
X108261904Y-125281009D02*
X108166666Y-125328628D01*
X108166666Y-125328628D02*
X107785714Y-125328628D01*
X108738095Y-124900057D02*
X108785714Y-124852438D01*
X108785714Y-124852438D02*
X108880952Y-124804819D01*
X108880952Y-124804819D02*
X109119047Y-124804819D01*
X109119047Y-124804819D02*
X109214285Y-124852438D01*
X109214285Y-124852438D02*
X109261904Y-124900057D01*
X109261904Y-124900057D02*
X109309523Y-124995295D01*
X109309523Y-124995295D02*
X109309523Y-125090533D01*
X109309523Y-125090533D02*
X109261904Y-125233390D01*
X109261904Y-125233390D02*
X108690476Y-125804819D01*
X108690476Y-125804819D02*
X109309523Y-125804819D01*
X110214285Y-124804819D02*
X109738095Y-124804819D01*
X109738095Y-124804819D02*
X109690476Y-125281009D01*
X109690476Y-125281009D02*
X109738095Y-125233390D01*
X109738095Y-125233390D02*
X109833333Y-125185771D01*
X109833333Y-125185771D02*
X110071428Y-125185771D01*
X110071428Y-125185771D02*
X110166666Y-125233390D01*
X110166666Y-125233390D02*
X110214285Y-125281009D01*
X110214285Y-125281009D02*
X110261904Y-125376247D01*
X110261904Y-125376247D02*
X110261904Y-125614342D01*
X110261904Y-125614342D02*
X110214285Y-125709580D01*
X110214285Y-125709580D02*
X110166666Y-125757200D01*
X110166666Y-125757200D02*
X110071428Y-125804819D01*
X110071428Y-125804819D02*
X109833333Y-125804819D01*
X109833333Y-125804819D02*
X109738095Y-125757200D01*
X109738095Y-125757200D02*
X109690476Y-125709580D01*
X59833333Y-87804819D02*
X59500000Y-87328628D01*
X59261905Y-87804819D02*
X59261905Y-86804819D01*
X59261905Y-86804819D02*
X59642857Y-86804819D01*
X59642857Y-86804819D02*
X59738095Y-86852438D01*
X59738095Y-86852438D02*
X59785714Y-86900057D01*
X59785714Y-86900057D02*
X59833333Y-86995295D01*
X59833333Y-86995295D02*
X59833333Y-87138152D01*
X59833333Y-87138152D02*
X59785714Y-87233390D01*
X59785714Y-87233390D02*
X59738095Y-87281009D01*
X59738095Y-87281009D02*
X59642857Y-87328628D01*
X59642857Y-87328628D02*
X59261905Y-87328628D01*
X60690476Y-87138152D02*
X60690476Y-87804819D01*
X60452381Y-86757200D02*
X60214286Y-87471485D01*
X60214286Y-87471485D02*
X60833333Y-87471485D01*
X96357142Y-125804819D02*
X96023809Y-125328628D01*
X95785714Y-125804819D02*
X95785714Y-124804819D01*
X95785714Y-124804819D02*
X96166666Y-124804819D01*
X96166666Y-124804819D02*
X96261904Y-124852438D01*
X96261904Y-124852438D02*
X96309523Y-124900057D01*
X96309523Y-124900057D02*
X96357142Y-124995295D01*
X96357142Y-124995295D02*
X96357142Y-125138152D01*
X96357142Y-125138152D02*
X96309523Y-125233390D01*
X96309523Y-125233390D02*
X96261904Y-125281009D01*
X96261904Y-125281009D02*
X96166666Y-125328628D01*
X96166666Y-125328628D02*
X95785714Y-125328628D01*
X96738095Y-124900057D02*
X96785714Y-124852438D01*
X96785714Y-124852438D02*
X96880952Y-124804819D01*
X96880952Y-124804819D02*
X97119047Y-124804819D01*
X97119047Y-124804819D02*
X97214285Y-124852438D01*
X97214285Y-124852438D02*
X97261904Y-124900057D01*
X97261904Y-124900057D02*
X97309523Y-124995295D01*
X97309523Y-124995295D02*
X97309523Y-125090533D01*
X97309523Y-125090533D02*
X97261904Y-125233390D01*
X97261904Y-125233390D02*
X96690476Y-125804819D01*
X96690476Y-125804819D02*
X97309523Y-125804819D01*
X97642857Y-124804819D02*
X98261904Y-124804819D01*
X98261904Y-124804819D02*
X97928571Y-125185771D01*
X97928571Y-125185771D02*
X98071428Y-125185771D01*
X98071428Y-125185771D02*
X98166666Y-125233390D01*
X98166666Y-125233390D02*
X98214285Y-125281009D01*
X98214285Y-125281009D02*
X98261904Y-125376247D01*
X98261904Y-125376247D02*
X98261904Y-125614342D01*
X98261904Y-125614342D02*
X98214285Y-125709580D01*
X98214285Y-125709580D02*
X98166666Y-125757200D01*
X98166666Y-125757200D02*
X98071428Y-125804819D01*
X98071428Y-125804819D02*
X97785714Y-125804819D01*
X97785714Y-125804819D02*
X97690476Y-125757200D01*
X97690476Y-125757200D02*
X97642857Y-125709580D01*
X216906666Y-42454819D02*
X216906666Y-43169104D01*
X216906666Y-43169104D02*
X216859047Y-43311961D01*
X216859047Y-43311961D02*
X216763809Y-43407200D01*
X216763809Y-43407200D02*
X216620952Y-43454819D01*
X216620952Y-43454819D02*
X216525714Y-43454819D01*
X217335238Y-42550057D02*
X217382857Y-42502438D01*
X217382857Y-42502438D02*
X217478095Y-42454819D01*
X217478095Y-42454819D02*
X217716190Y-42454819D01*
X217716190Y-42454819D02*
X217811428Y-42502438D01*
X217811428Y-42502438D02*
X217859047Y-42550057D01*
X217859047Y-42550057D02*
X217906666Y-42645295D01*
X217906666Y-42645295D02*
X217906666Y-42740533D01*
X217906666Y-42740533D02*
X217859047Y-42883390D01*
X217859047Y-42883390D02*
X217287619Y-43454819D01*
X217287619Y-43454819D02*
X217906666Y-43454819D01*
X165857142Y-110109580D02*
X165809523Y-110157200D01*
X165809523Y-110157200D02*
X165666666Y-110204819D01*
X165666666Y-110204819D02*
X165571428Y-110204819D01*
X165571428Y-110204819D02*
X165428571Y-110157200D01*
X165428571Y-110157200D02*
X165333333Y-110061961D01*
X165333333Y-110061961D02*
X165285714Y-109966723D01*
X165285714Y-109966723D02*
X165238095Y-109776247D01*
X165238095Y-109776247D02*
X165238095Y-109633390D01*
X165238095Y-109633390D02*
X165285714Y-109442914D01*
X165285714Y-109442914D02*
X165333333Y-109347676D01*
X165333333Y-109347676D02*
X165428571Y-109252438D01*
X165428571Y-109252438D02*
X165571428Y-109204819D01*
X165571428Y-109204819D02*
X165666666Y-109204819D01*
X165666666Y-109204819D02*
X165809523Y-109252438D01*
X165809523Y-109252438D02*
X165857142Y-109300057D01*
X166238095Y-109300057D02*
X166285714Y-109252438D01*
X166285714Y-109252438D02*
X166380952Y-109204819D01*
X166380952Y-109204819D02*
X166619047Y-109204819D01*
X166619047Y-109204819D02*
X166714285Y-109252438D01*
X166714285Y-109252438D02*
X166761904Y-109300057D01*
X166761904Y-109300057D02*
X166809523Y-109395295D01*
X166809523Y-109395295D02*
X166809523Y-109490533D01*
X166809523Y-109490533D02*
X166761904Y-109633390D01*
X166761904Y-109633390D02*
X166190476Y-110204819D01*
X166190476Y-110204819D02*
X166809523Y-110204819D01*
X167666666Y-109204819D02*
X167476190Y-109204819D01*
X167476190Y-109204819D02*
X167380952Y-109252438D01*
X167380952Y-109252438D02*
X167333333Y-109300057D01*
X167333333Y-109300057D02*
X167238095Y-109442914D01*
X167238095Y-109442914D02*
X167190476Y-109633390D01*
X167190476Y-109633390D02*
X167190476Y-110014342D01*
X167190476Y-110014342D02*
X167238095Y-110109580D01*
X167238095Y-110109580D02*
X167285714Y-110157200D01*
X167285714Y-110157200D02*
X167380952Y-110204819D01*
X167380952Y-110204819D02*
X167571428Y-110204819D01*
X167571428Y-110204819D02*
X167666666Y-110157200D01*
X167666666Y-110157200D02*
X167714285Y-110109580D01*
X167714285Y-110109580D02*
X167761904Y-110014342D01*
X167761904Y-110014342D02*
X167761904Y-109776247D01*
X167761904Y-109776247D02*
X167714285Y-109681009D01*
X167714285Y-109681009D02*
X167666666Y-109633390D01*
X167666666Y-109633390D02*
X167571428Y-109585771D01*
X167571428Y-109585771D02*
X167380952Y-109585771D01*
X167380952Y-109585771D02*
X167285714Y-109633390D01*
X167285714Y-109633390D02*
X167238095Y-109681009D01*
X167238095Y-109681009D02*
X167190476Y-109776247D01*
X177107142Y-81109580D02*
X177059523Y-81157200D01*
X177059523Y-81157200D02*
X176916666Y-81204819D01*
X176916666Y-81204819D02*
X176821428Y-81204819D01*
X176821428Y-81204819D02*
X176678571Y-81157200D01*
X176678571Y-81157200D02*
X176583333Y-81061961D01*
X176583333Y-81061961D02*
X176535714Y-80966723D01*
X176535714Y-80966723D02*
X176488095Y-80776247D01*
X176488095Y-80776247D02*
X176488095Y-80633390D01*
X176488095Y-80633390D02*
X176535714Y-80442914D01*
X176535714Y-80442914D02*
X176583333Y-80347676D01*
X176583333Y-80347676D02*
X176678571Y-80252438D01*
X176678571Y-80252438D02*
X176821428Y-80204819D01*
X176821428Y-80204819D02*
X176916666Y-80204819D01*
X176916666Y-80204819D02*
X177059523Y-80252438D01*
X177059523Y-80252438D02*
X177107142Y-80300057D01*
X178059523Y-81204819D02*
X177488095Y-81204819D01*
X177773809Y-81204819D02*
X177773809Y-80204819D01*
X177773809Y-80204819D02*
X177678571Y-80347676D01*
X177678571Y-80347676D02*
X177583333Y-80442914D01*
X177583333Y-80442914D02*
X177488095Y-80490533D01*
X178440476Y-80300057D02*
X178488095Y-80252438D01*
X178488095Y-80252438D02*
X178583333Y-80204819D01*
X178583333Y-80204819D02*
X178821428Y-80204819D01*
X178821428Y-80204819D02*
X178916666Y-80252438D01*
X178916666Y-80252438D02*
X178964285Y-80300057D01*
X178964285Y-80300057D02*
X179011904Y-80395295D01*
X179011904Y-80395295D02*
X179011904Y-80490533D01*
X179011904Y-80490533D02*
X178964285Y-80633390D01*
X178964285Y-80633390D02*
X178392857Y-81204819D01*
X178392857Y-81204819D02*
X179011904Y-81204819D01*
X76833333Y-80804819D02*
X76500000Y-80328628D01*
X76261905Y-80804819D02*
X76261905Y-79804819D01*
X76261905Y-79804819D02*
X76642857Y-79804819D01*
X76642857Y-79804819D02*
X76738095Y-79852438D01*
X76738095Y-79852438D02*
X76785714Y-79900057D01*
X76785714Y-79900057D02*
X76833333Y-79995295D01*
X76833333Y-79995295D02*
X76833333Y-80138152D01*
X76833333Y-80138152D02*
X76785714Y-80233390D01*
X76785714Y-80233390D02*
X76738095Y-80281009D01*
X76738095Y-80281009D02*
X76642857Y-80328628D01*
X76642857Y-80328628D02*
X76261905Y-80328628D01*
X77166667Y-79804819D02*
X77785714Y-79804819D01*
X77785714Y-79804819D02*
X77452381Y-80185771D01*
X77452381Y-80185771D02*
X77595238Y-80185771D01*
X77595238Y-80185771D02*
X77690476Y-80233390D01*
X77690476Y-80233390D02*
X77738095Y-80281009D01*
X77738095Y-80281009D02*
X77785714Y-80376247D01*
X77785714Y-80376247D02*
X77785714Y-80614342D01*
X77785714Y-80614342D02*
X77738095Y-80709580D01*
X77738095Y-80709580D02*
X77690476Y-80757200D01*
X77690476Y-80757200D02*
X77595238Y-80804819D01*
X77595238Y-80804819D02*
X77309524Y-80804819D01*
X77309524Y-80804819D02*
X77214286Y-80757200D01*
X77214286Y-80757200D02*
X77166667Y-80709580D01*
X144357142Y-125509580D02*
X144309523Y-125557200D01*
X144309523Y-125557200D02*
X144166666Y-125604819D01*
X144166666Y-125604819D02*
X144071428Y-125604819D01*
X144071428Y-125604819D02*
X143928571Y-125557200D01*
X143928571Y-125557200D02*
X143833333Y-125461961D01*
X143833333Y-125461961D02*
X143785714Y-125366723D01*
X143785714Y-125366723D02*
X143738095Y-125176247D01*
X143738095Y-125176247D02*
X143738095Y-125033390D01*
X143738095Y-125033390D02*
X143785714Y-124842914D01*
X143785714Y-124842914D02*
X143833333Y-124747676D01*
X143833333Y-124747676D02*
X143928571Y-124652438D01*
X143928571Y-124652438D02*
X144071428Y-124604819D01*
X144071428Y-124604819D02*
X144166666Y-124604819D01*
X144166666Y-124604819D02*
X144309523Y-124652438D01*
X144309523Y-124652438D02*
X144357142Y-124700057D01*
X144738095Y-124700057D02*
X144785714Y-124652438D01*
X144785714Y-124652438D02*
X144880952Y-124604819D01*
X144880952Y-124604819D02*
X145119047Y-124604819D01*
X145119047Y-124604819D02*
X145214285Y-124652438D01*
X145214285Y-124652438D02*
X145261904Y-124700057D01*
X145261904Y-124700057D02*
X145309523Y-124795295D01*
X145309523Y-124795295D02*
X145309523Y-124890533D01*
X145309523Y-124890533D02*
X145261904Y-125033390D01*
X145261904Y-125033390D02*
X144690476Y-125604819D01*
X144690476Y-125604819D02*
X145309523Y-125604819D01*
X145642857Y-124604819D02*
X146261904Y-124604819D01*
X146261904Y-124604819D02*
X145928571Y-124985771D01*
X145928571Y-124985771D02*
X146071428Y-124985771D01*
X146071428Y-124985771D02*
X146166666Y-125033390D01*
X146166666Y-125033390D02*
X146214285Y-125081009D01*
X146214285Y-125081009D02*
X146261904Y-125176247D01*
X146261904Y-125176247D02*
X146261904Y-125414342D01*
X146261904Y-125414342D02*
X146214285Y-125509580D01*
X146214285Y-125509580D02*
X146166666Y-125557200D01*
X146166666Y-125557200D02*
X146071428Y-125604819D01*
X146071428Y-125604819D02*
X145785714Y-125604819D01*
X145785714Y-125604819D02*
X145690476Y-125557200D01*
X145690476Y-125557200D02*
X145642857Y-125509580D01*
X110833333Y-59824819D02*
X110500000Y-59348628D01*
X110261905Y-59824819D02*
X110261905Y-58824819D01*
X110261905Y-58824819D02*
X110642857Y-58824819D01*
X110642857Y-58824819D02*
X110738095Y-58872438D01*
X110738095Y-58872438D02*
X110785714Y-58920057D01*
X110785714Y-58920057D02*
X110833333Y-59015295D01*
X110833333Y-59015295D02*
X110833333Y-59158152D01*
X110833333Y-59158152D02*
X110785714Y-59253390D01*
X110785714Y-59253390D02*
X110738095Y-59301009D01*
X110738095Y-59301009D02*
X110642857Y-59348628D01*
X110642857Y-59348628D02*
X110261905Y-59348628D01*
X111166667Y-58824819D02*
X111833333Y-58824819D01*
X111833333Y-58824819D02*
X111404762Y-59824819D01*
X154059580Y-113642857D02*
X154107200Y-113690476D01*
X154107200Y-113690476D02*
X154154819Y-113833333D01*
X154154819Y-113833333D02*
X154154819Y-113928571D01*
X154154819Y-113928571D02*
X154107200Y-114071428D01*
X154107200Y-114071428D02*
X154011961Y-114166666D01*
X154011961Y-114166666D02*
X153916723Y-114214285D01*
X153916723Y-114214285D02*
X153726247Y-114261904D01*
X153726247Y-114261904D02*
X153583390Y-114261904D01*
X153583390Y-114261904D02*
X153392914Y-114214285D01*
X153392914Y-114214285D02*
X153297676Y-114166666D01*
X153297676Y-114166666D02*
X153202438Y-114071428D01*
X153202438Y-114071428D02*
X153154819Y-113928571D01*
X153154819Y-113928571D02*
X153154819Y-113833333D01*
X153154819Y-113833333D02*
X153202438Y-113690476D01*
X153202438Y-113690476D02*
X153250057Y-113642857D01*
X153250057Y-113261904D02*
X153202438Y-113214285D01*
X153202438Y-113214285D02*
X153154819Y-113119047D01*
X153154819Y-113119047D02*
X153154819Y-112880952D01*
X153154819Y-112880952D02*
X153202438Y-112785714D01*
X153202438Y-112785714D02*
X153250057Y-112738095D01*
X153250057Y-112738095D02*
X153345295Y-112690476D01*
X153345295Y-112690476D02*
X153440533Y-112690476D01*
X153440533Y-112690476D02*
X153583390Y-112738095D01*
X153583390Y-112738095D02*
X154154819Y-113309523D01*
X154154819Y-113309523D02*
X154154819Y-112690476D01*
X153488152Y-111833333D02*
X154154819Y-111833333D01*
X153107200Y-112071428D02*
X153821485Y-112309523D01*
X153821485Y-112309523D02*
X153821485Y-111690476D01*
X206916666Y-91334819D02*
X206916666Y-92049104D01*
X206916666Y-92049104D02*
X206869047Y-92191961D01*
X206869047Y-92191961D02*
X206773809Y-92287200D01*
X206773809Y-92287200D02*
X206630952Y-92334819D01*
X206630952Y-92334819D02*
X206535714Y-92334819D01*
X207297619Y-91334819D02*
X207916666Y-91334819D01*
X207916666Y-91334819D02*
X207583333Y-91715771D01*
X207583333Y-91715771D02*
X207726190Y-91715771D01*
X207726190Y-91715771D02*
X207821428Y-91763390D01*
X207821428Y-91763390D02*
X207869047Y-91811009D01*
X207869047Y-91811009D02*
X207916666Y-91906247D01*
X207916666Y-91906247D02*
X207916666Y-92144342D01*
X207916666Y-92144342D02*
X207869047Y-92239580D01*
X207869047Y-92239580D02*
X207821428Y-92287200D01*
X207821428Y-92287200D02*
X207726190Y-92334819D01*
X207726190Y-92334819D02*
X207440476Y-92334819D01*
X207440476Y-92334819D02*
X207345238Y-92287200D01*
X207345238Y-92287200D02*
X207297619Y-92239580D01*
X56864761Y-78794819D02*
X56531428Y-78318628D01*
X56293333Y-78794819D02*
X56293333Y-77794819D01*
X56293333Y-77794819D02*
X56674285Y-77794819D01*
X56674285Y-77794819D02*
X56769523Y-77842438D01*
X56769523Y-77842438D02*
X56817142Y-77890057D01*
X56817142Y-77890057D02*
X56864761Y-77985295D01*
X56864761Y-77985295D02*
X56864761Y-78128152D01*
X56864761Y-78128152D02*
X56817142Y-78223390D01*
X56817142Y-78223390D02*
X56769523Y-78271009D01*
X56769523Y-78271009D02*
X56674285Y-78318628D01*
X56674285Y-78318628D02*
X56293333Y-78318628D01*
X57150476Y-77794819D02*
X57483809Y-78794819D01*
X57483809Y-78794819D02*
X57817142Y-77794819D01*
X58674285Y-78794819D02*
X58102857Y-78794819D01*
X58388571Y-78794819D02*
X58388571Y-77794819D01*
X58388571Y-77794819D02*
X58293333Y-77937676D01*
X58293333Y-77937676D02*
X58198095Y-78032914D01*
X58198095Y-78032914D02*
X58102857Y-78080533D01*
X138357142Y-122679580D02*
X138309523Y-122727200D01*
X138309523Y-122727200D02*
X138166666Y-122774819D01*
X138166666Y-122774819D02*
X138071428Y-122774819D01*
X138071428Y-122774819D02*
X137928571Y-122727200D01*
X137928571Y-122727200D02*
X137833333Y-122631961D01*
X137833333Y-122631961D02*
X137785714Y-122536723D01*
X137785714Y-122536723D02*
X137738095Y-122346247D01*
X137738095Y-122346247D02*
X137738095Y-122203390D01*
X137738095Y-122203390D02*
X137785714Y-122012914D01*
X137785714Y-122012914D02*
X137833333Y-121917676D01*
X137833333Y-121917676D02*
X137928571Y-121822438D01*
X137928571Y-121822438D02*
X138071428Y-121774819D01*
X138071428Y-121774819D02*
X138166666Y-121774819D01*
X138166666Y-121774819D02*
X138309523Y-121822438D01*
X138309523Y-121822438D02*
X138357142Y-121870057D01*
X138738095Y-121870057D02*
X138785714Y-121822438D01*
X138785714Y-121822438D02*
X138880952Y-121774819D01*
X138880952Y-121774819D02*
X139119047Y-121774819D01*
X139119047Y-121774819D02*
X139214285Y-121822438D01*
X139214285Y-121822438D02*
X139261904Y-121870057D01*
X139261904Y-121870057D02*
X139309523Y-121965295D01*
X139309523Y-121965295D02*
X139309523Y-122060533D01*
X139309523Y-122060533D02*
X139261904Y-122203390D01*
X139261904Y-122203390D02*
X138690476Y-122774819D01*
X138690476Y-122774819D02*
X139309523Y-122774819D01*
X139928571Y-121774819D02*
X140023809Y-121774819D01*
X140023809Y-121774819D02*
X140119047Y-121822438D01*
X140119047Y-121822438D02*
X140166666Y-121870057D01*
X140166666Y-121870057D02*
X140214285Y-121965295D01*
X140214285Y-121965295D02*
X140261904Y-122155771D01*
X140261904Y-122155771D02*
X140261904Y-122393866D01*
X140261904Y-122393866D02*
X140214285Y-122584342D01*
X140214285Y-122584342D02*
X140166666Y-122679580D01*
X140166666Y-122679580D02*
X140119047Y-122727200D01*
X140119047Y-122727200D02*
X140023809Y-122774819D01*
X140023809Y-122774819D02*
X139928571Y-122774819D01*
X139928571Y-122774819D02*
X139833333Y-122727200D01*
X139833333Y-122727200D02*
X139785714Y-122679580D01*
X139785714Y-122679580D02*
X139738095Y-122584342D01*
X139738095Y-122584342D02*
X139690476Y-122393866D01*
X139690476Y-122393866D02*
X139690476Y-122155771D01*
X139690476Y-122155771D02*
X139738095Y-121965295D01*
X139738095Y-121965295D02*
X139785714Y-121870057D01*
X139785714Y-121870057D02*
X139833333Y-121822438D01*
X139833333Y-121822438D02*
X139928571Y-121774819D01*
X158659580Y-119642857D02*
X158707200Y-119690476D01*
X158707200Y-119690476D02*
X158754819Y-119833333D01*
X158754819Y-119833333D02*
X158754819Y-119928571D01*
X158754819Y-119928571D02*
X158707200Y-120071428D01*
X158707200Y-120071428D02*
X158611961Y-120166666D01*
X158611961Y-120166666D02*
X158516723Y-120214285D01*
X158516723Y-120214285D02*
X158326247Y-120261904D01*
X158326247Y-120261904D02*
X158183390Y-120261904D01*
X158183390Y-120261904D02*
X157992914Y-120214285D01*
X157992914Y-120214285D02*
X157897676Y-120166666D01*
X157897676Y-120166666D02*
X157802438Y-120071428D01*
X157802438Y-120071428D02*
X157754819Y-119928571D01*
X157754819Y-119928571D02*
X157754819Y-119833333D01*
X157754819Y-119833333D02*
X157802438Y-119690476D01*
X157802438Y-119690476D02*
X157850057Y-119642857D01*
X157850057Y-119261904D02*
X157802438Y-119214285D01*
X157802438Y-119214285D02*
X157754819Y-119119047D01*
X157754819Y-119119047D02*
X157754819Y-118880952D01*
X157754819Y-118880952D02*
X157802438Y-118785714D01*
X157802438Y-118785714D02*
X157850057Y-118738095D01*
X157850057Y-118738095D02*
X157945295Y-118690476D01*
X157945295Y-118690476D02*
X158040533Y-118690476D01*
X158040533Y-118690476D02*
X158183390Y-118738095D01*
X158183390Y-118738095D02*
X158754819Y-119309523D01*
X158754819Y-119309523D02*
X158754819Y-118690476D01*
X157754819Y-117785714D02*
X157754819Y-118261904D01*
X157754819Y-118261904D02*
X158231009Y-118309523D01*
X158231009Y-118309523D02*
X158183390Y-118261904D01*
X158183390Y-118261904D02*
X158135771Y-118166666D01*
X158135771Y-118166666D02*
X158135771Y-117928571D01*
X158135771Y-117928571D02*
X158183390Y-117833333D01*
X158183390Y-117833333D02*
X158231009Y-117785714D01*
X158231009Y-117785714D02*
X158326247Y-117738095D01*
X158326247Y-117738095D02*
X158564342Y-117738095D01*
X158564342Y-117738095D02*
X158659580Y-117785714D01*
X158659580Y-117785714D02*
X158707200Y-117833333D01*
X158707200Y-117833333D02*
X158754819Y-117928571D01*
X158754819Y-117928571D02*
X158754819Y-118166666D01*
X158754819Y-118166666D02*
X158707200Y-118261904D01*
X158707200Y-118261904D02*
X158659580Y-118309523D01*
X132357142Y-125804819D02*
X132023809Y-125328628D01*
X131785714Y-125804819D02*
X131785714Y-124804819D01*
X131785714Y-124804819D02*
X132166666Y-124804819D01*
X132166666Y-124804819D02*
X132261904Y-124852438D01*
X132261904Y-124852438D02*
X132309523Y-124900057D01*
X132309523Y-124900057D02*
X132357142Y-124995295D01*
X132357142Y-124995295D02*
X132357142Y-125138152D01*
X132357142Y-125138152D02*
X132309523Y-125233390D01*
X132309523Y-125233390D02*
X132261904Y-125281009D01*
X132261904Y-125281009D02*
X132166666Y-125328628D01*
X132166666Y-125328628D02*
X131785714Y-125328628D01*
X132690476Y-124804819D02*
X133309523Y-124804819D01*
X133309523Y-124804819D02*
X132976190Y-125185771D01*
X132976190Y-125185771D02*
X133119047Y-125185771D01*
X133119047Y-125185771D02*
X133214285Y-125233390D01*
X133214285Y-125233390D02*
X133261904Y-125281009D01*
X133261904Y-125281009D02*
X133309523Y-125376247D01*
X133309523Y-125376247D02*
X133309523Y-125614342D01*
X133309523Y-125614342D02*
X133261904Y-125709580D01*
X133261904Y-125709580D02*
X133214285Y-125757200D01*
X133214285Y-125757200D02*
X133119047Y-125804819D01*
X133119047Y-125804819D02*
X132833333Y-125804819D01*
X132833333Y-125804819D02*
X132738095Y-125757200D01*
X132738095Y-125757200D02*
X132690476Y-125709580D01*
X133642857Y-124804819D02*
X134261904Y-124804819D01*
X134261904Y-124804819D02*
X133928571Y-125185771D01*
X133928571Y-125185771D02*
X134071428Y-125185771D01*
X134071428Y-125185771D02*
X134166666Y-125233390D01*
X134166666Y-125233390D02*
X134214285Y-125281009D01*
X134214285Y-125281009D02*
X134261904Y-125376247D01*
X134261904Y-125376247D02*
X134261904Y-125614342D01*
X134261904Y-125614342D02*
X134214285Y-125709580D01*
X134214285Y-125709580D02*
X134166666Y-125757200D01*
X134166666Y-125757200D02*
X134071428Y-125804819D01*
X134071428Y-125804819D02*
X133785714Y-125804819D01*
X133785714Y-125804819D02*
X133690476Y-125757200D01*
X133690476Y-125757200D02*
X133642857Y-125709580D01*
X85357142Y-74679580D02*
X85309523Y-74727200D01*
X85309523Y-74727200D02*
X85166666Y-74774819D01*
X85166666Y-74774819D02*
X85071428Y-74774819D01*
X85071428Y-74774819D02*
X84928571Y-74727200D01*
X84928571Y-74727200D02*
X84833333Y-74631961D01*
X84833333Y-74631961D02*
X84785714Y-74536723D01*
X84785714Y-74536723D02*
X84738095Y-74346247D01*
X84738095Y-74346247D02*
X84738095Y-74203390D01*
X84738095Y-74203390D02*
X84785714Y-74012914D01*
X84785714Y-74012914D02*
X84833333Y-73917676D01*
X84833333Y-73917676D02*
X84928571Y-73822438D01*
X84928571Y-73822438D02*
X85071428Y-73774819D01*
X85071428Y-73774819D02*
X85166666Y-73774819D01*
X85166666Y-73774819D02*
X85309523Y-73822438D01*
X85309523Y-73822438D02*
X85357142Y-73870057D01*
X86309523Y-74774819D02*
X85738095Y-74774819D01*
X86023809Y-74774819D02*
X86023809Y-73774819D01*
X86023809Y-73774819D02*
X85928571Y-73917676D01*
X85928571Y-73917676D02*
X85833333Y-74012914D01*
X85833333Y-74012914D02*
X85738095Y-74060533D01*
X87166666Y-74108152D02*
X87166666Y-74774819D01*
X86928571Y-73727200D02*
X86690476Y-74441485D01*
X86690476Y-74441485D02*
X87309523Y-74441485D01*
X103833333Y-64039580D02*
X103785714Y-64087200D01*
X103785714Y-64087200D02*
X103642857Y-64134819D01*
X103642857Y-64134819D02*
X103547619Y-64134819D01*
X103547619Y-64134819D02*
X103404762Y-64087200D01*
X103404762Y-64087200D02*
X103309524Y-63991961D01*
X103309524Y-63991961D02*
X103261905Y-63896723D01*
X103261905Y-63896723D02*
X103214286Y-63706247D01*
X103214286Y-63706247D02*
X103214286Y-63563390D01*
X103214286Y-63563390D02*
X103261905Y-63372914D01*
X103261905Y-63372914D02*
X103309524Y-63277676D01*
X103309524Y-63277676D02*
X103404762Y-63182438D01*
X103404762Y-63182438D02*
X103547619Y-63134819D01*
X103547619Y-63134819D02*
X103642857Y-63134819D01*
X103642857Y-63134819D02*
X103785714Y-63182438D01*
X103785714Y-63182438D02*
X103833333Y-63230057D01*
X104214286Y-63230057D02*
X104261905Y-63182438D01*
X104261905Y-63182438D02*
X104357143Y-63134819D01*
X104357143Y-63134819D02*
X104595238Y-63134819D01*
X104595238Y-63134819D02*
X104690476Y-63182438D01*
X104690476Y-63182438D02*
X104738095Y-63230057D01*
X104738095Y-63230057D02*
X104785714Y-63325295D01*
X104785714Y-63325295D02*
X104785714Y-63420533D01*
X104785714Y-63420533D02*
X104738095Y-63563390D01*
X104738095Y-63563390D02*
X104166667Y-64134819D01*
X104166667Y-64134819D02*
X104785714Y-64134819D01*
X110833333Y-35824819D02*
X110500000Y-35348628D01*
X110261905Y-35824819D02*
X110261905Y-34824819D01*
X110261905Y-34824819D02*
X110642857Y-34824819D01*
X110642857Y-34824819D02*
X110738095Y-34872438D01*
X110738095Y-34872438D02*
X110785714Y-34920057D01*
X110785714Y-34920057D02*
X110833333Y-35015295D01*
X110833333Y-35015295D02*
X110833333Y-35158152D01*
X110833333Y-35158152D02*
X110785714Y-35253390D01*
X110785714Y-35253390D02*
X110738095Y-35301009D01*
X110738095Y-35301009D02*
X110642857Y-35348628D01*
X110642857Y-35348628D02*
X110261905Y-35348628D01*
X111690476Y-34824819D02*
X111500000Y-34824819D01*
X111500000Y-34824819D02*
X111404762Y-34872438D01*
X111404762Y-34872438D02*
X111357143Y-34920057D01*
X111357143Y-34920057D02*
X111261905Y-35062914D01*
X111261905Y-35062914D02*
X111214286Y-35253390D01*
X111214286Y-35253390D02*
X111214286Y-35634342D01*
X111214286Y-35634342D02*
X111261905Y-35729580D01*
X111261905Y-35729580D02*
X111309524Y-35777200D01*
X111309524Y-35777200D02*
X111404762Y-35824819D01*
X111404762Y-35824819D02*
X111595238Y-35824819D01*
X111595238Y-35824819D02*
X111690476Y-35777200D01*
X111690476Y-35777200D02*
X111738095Y-35729580D01*
X111738095Y-35729580D02*
X111785714Y-35634342D01*
X111785714Y-35634342D02*
X111785714Y-35396247D01*
X111785714Y-35396247D02*
X111738095Y-35301009D01*
X111738095Y-35301009D02*
X111690476Y-35253390D01*
X111690476Y-35253390D02*
X111595238Y-35205771D01*
X111595238Y-35205771D02*
X111404762Y-35205771D01*
X111404762Y-35205771D02*
X111309524Y-35253390D01*
X111309524Y-35253390D02*
X111261905Y-35301009D01*
X111261905Y-35301009D02*
X111214286Y-35396247D01*
X102357142Y-125679580D02*
X102309523Y-125727200D01*
X102309523Y-125727200D02*
X102166666Y-125774819D01*
X102166666Y-125774819D02*
X102071428Y-125774819D01*
X102071428Y-125774819D02*
X101928571Y-125727200D01*
X101928571Y-125727200D02*
X101833333Y-125631961D01*
X101833333Y-125631961D02*
X101785714Y-125536723D01*
X101785714Y-125536723D02*
X101738095Y-125346247D01*
X101738095Y-125346247D02*
X101738095Y-125203390D01*
X101738095Y-125203390D02*
X101785714Y-125012914D01*
X101785714Y-125012914D02*
X101833333Y-124917676D01*
X101833333Y-124917676D02*
X101928571Y-124822438D01*
X101928571Y-124822438D02*
X102071428Y-124774819D01*
X102071428Y-124774819D02*
X102166666Y-124774819D01*
X102166666Y-124774819D02*
X102309523Y-124822438D01*
X102309523Y-124822438D02*
X102357142Y-124870057D01*
X103309523Y-125774819D02*
X102738095Y-125774819D01*
X103023809Y-125774819D02*
X103023809Y-124774819D01*
X103023809Y-124774819D02*
X102928571Y-124917676D01*
X102928571Y-124917676D02*
X102833333Y-125012914D01*
X102833333Y-125012914D02*
X102738095Y-125060533D01*
X103785714Y-125774819D02*
X103976190Y-125774819D01*
X103976190Y-125774819D02*
X104071428Y-125727200D01*
X104071428Y-125727200D02*
X104119047Y-125679580D01*
X104119047Y-125679580D02*
X104214285Y-125536723D01*
X104214285Y-125536723D02*
X104261904Y-125346247D01*
X104261904Y-125346247D02*
X104261904Y-124965295D01*
X104261904Y-124965295D02*
X104214285Y-124870057D01*
X104214285Y-124870057D02*
X104166666Y-124822438D01*
X104166666Y-124822438D02*
X104071428Y-124774819D01*
X104071428Y-124774819D02*
X103880952Y-124774819D01*
X103880952Y-124774819D02*
X103785714Y-124822438D01*
X103785714Y-124822438D02*
X103738095Y-124870057D01*
X103738095Y-124870057D02*
X103690476Y-124965295D01*
X103690476Y-124965295D02*
X103690476Y-125203390D01*
X103690476Y-125203390D02*
X103738095Y-125298628D01*
X103738095Y-125298628D02*
X103785714Y-125346247D01*
X103785714Y-125346247D02*
X103880952Y-125393866D01*
X103880952Y-125393866D02*
X104071428Y-125393866D01*
X104071428Y-125393866D02*
X104166666Y-125346247D01*
X104166666Y-125346247D02*
X104214285Y-125298628D01*
X104214285Y-125298628D02*
X104261904Y-125203390D01*
%TO.C,C5*%
D11*
X182288748Y-60090000D02*
X183711252Y-60090000D01*
X182288748Y-61910000D02*
X183711252Y-61910000D01*
%TO.C,L3*%
X182895000Y-48990000D02*
X188583000Y-48990000D01*
X182895000Y-55580000D02*
X182895000Y-48990000D01*
X188583000Y-55580000D02*
X182895000Y-55580000D01*
X191417000Y-48990000D02*
X197105000Y-48990000D01*
X197105000Y-48990000D02*
X197105000Y-55580000D01*
X197105000Y-55580000D02*
X191417000Y-55580000D01*
%TO.C,T1*%
X75500000Y-46500000D02*
X82500000Y-46500000D01*
X82500000Y-53500000D01*
X75500000Y-53500000D01*
X75500000Y-46500000D01*
%TO.C,R34*%
X146822936Y-27790000D02*
X151177064Y-27790000D01*
X146822936Y-31210000D02*
X151177064Y-31210000D01*
%TO.C,R14*%
X49772936Y-77265000D02*
X50227064Y-77265000D01*
X49772936Y-78735000D02*
X50227064Y-78735000D01*
%TO.C,Q3*%
X69470000Y-83850000D02*
X73070000Y-83850000D01*
X69431522Y-83838478D02*
G75*
G02*
X71270000Y-79399999I1838478J1838478D01*
G01*
X71270000Y-79400000D02*
G75*
G02*
X73108478Y-83838478I0J-2600000D01*
G01*
%TO.C,C33*%
X149940000Y-43211252D02*
X149940000Y-41788748D01*
X152660000Y-43211252D02*
X152660000Y-41788748D01*
%TO.C,F1*%
X40613748Y-118290000D02*
X43386252Y-118290000D01*
X40613748Y-121710000D02*
X43386252Y-121710000D01*
%TO.C,C1*%
X104261252Y-37265000D02*
X103738748Y-37265000D01*
X104261252Y-38735000D02*
X103738748Y-38735000D01*
%TO.C,D7*%
X208040000Y-120000000D02*
X208040000Y-122685000D01*
X208040000Y-122685000D02*
X209960000Y-122685000D01*
X209960000Y-122685000D02*
X209960000Y-120000000D01*
%TO.C,D4*%
X200750000Y-107090000D02*
X200750000Y-115600000D01*
X200750000Y-107090000D02*
X207250000Y-107090000D01*
X207250000Y-107090000D02*
X207250000Y-115600000D01*
%TO.C,J4*%
X25300000Y-124100000D02*
X25300000Y-126100000D01*
X25300000Y-128000000D02*
X25300000Y-129900000D01*
X25300000Y-129900000D02*
X34700000Y-129900000D01*
X34700000Y-124100000D02*
X34700000Y-126100000D01*
X34700000Y-128000000D02*
X34700000Y-129900000D01*
%TO.C,R12*%
X167772936Y-81265000D02*
X168227064Y-81265000D01*
X167772936Y-82735000D02*
X168227064Y-82735000D01*
%TO.C,C29*%
X48640000Y-120711252D02*
X48640000Y-119288748D01*
X51360000Y-120711252D02*
X51360000Y-119288748D01*
%TO.C,R20*%
X80072936Y-118965000D02*
X80527064Y-118965000D01*
X80072936Y-120435000D02*
X80527064Y-120435000D01*
%TO.C,D6*%
X12340000Y-117850000D02*
X12340000Y-122150000D01*
X12340000Y-117850000D02*
X18150000Y-117850000D01*
X12340000Y-122150000D02*
X18150000Y-122150000D01*
%TO.C,C34*%
X149940000Y-35711252D02*
X149940000Y-34288748D01*
X152660000Y-35711252D02*
X152660000Y-34288748D01*
%TO.C,C32*%
X138738748Y-126265000D02*
X139261252Y-126265000D01*
X138738748Y-127735000D02*
X139261252Y-127735000D01*
%TO.C,R29*%
X105822936Y-114290000D02*
X110177064Y-114290000D01*
X105822936Y-117710000D02*
X110177064Y-117710000D01*
%TO.C,C27*%
X175020354Y-113125000D02*
X176020354Y-113125000D01*
X175520354Y-112625000D02*
X175520354Y-113625000D01*
X180500000Y-110920000D02*
X180500000Y-121080000D01*
X180540000Y-110920000D02*
X180540000Y-121080000D01*
X180580000Y-110921000D02*
X180580000Y-121079000D01*
X180620000Y-110921000D02*
X180620000Y-121079000D01*
X180660000Y-110923000D02*
X180660000Y-121077000D01*
X180700000Y-110924000D02*
X180700000Y-121076000D01*
X180740000Y-110926000D02*
X180740000Y-121074000D01*
X180780000Y-110928000D02*
X180780000Y-121072000D01*
X180820000Y-110930000D02*
X180820000Y-121070000D01*
X180860000Y-110933000D02*
X180860000Y-121067000D01*
X180900000Y-110936000D02*
X180900000Y-121064000D01*
X180940000Y-110939000D02*
X180940000Y-121061000D01*
X180980000Y-110943000D02*
X180980000Y-121057000D01*
X181020000Y-110946000D02*
X181020000Y-121054000D01*
X181060000Y-110951000D02*
X181060000Y-121049000D01*
X181100000Y-110955000D02*
X181100000Y-121045000D01*
X181140000Y-110960000D02*
X181140000Y-121040000D01*
X181180000Y-110965000D02*
X181180000Y-121035000D01*
X181220000Y-110971000D02*
X181220000Y-121029000D01*
X181260000Y-110977000D02*
X181260000Y-121023000D01*
X181300000Y-110983000D02*
X181300000Y-121017000D01*
X181340000Y-110989000D02*
X181340000Y-121011000D01*
X181380000Y-110996000D02*
X181380000Y-121004000D01*
X181420000Y-111003000D02*
X181420000Y-120997000D01*
X181460000Y-111011000D02*
X181460000Y-120989000D01*
X181500000Y-111019000D02*
X181500000Y-120981000D01*
X181540000Y-111027000D02*
X181540000Y-120973000D01*
X181580000Y-111035000D02*
X181580000Y-120965000D01*
X181620000Y-111044000D02*
X181620000Y-120956000D01*
X181660000Y-111053000D02*
X181660000Y-120947000D01*
X181700000Y-111063000D02*
X181700000Y-120937000D01*
X181740000Y-111072000D02*
X181740000Y-120928000D01*
X181780000Y-111083000D02*
X181780000Y-114760000D01*
X181780000Y-117240000D02*
X181780000Y-120917000D01*
X181820000Y-111093000D02*
X181820000Y-114760000D01*
X181820000Y-117240000D02*
X181820000Y-120907000D01*
X181860000Y-111104000D02*
X181860000Y-114760000D01*
X181860000Y-117240000D02*
X181860000Y-120896000D01*
X181900000Y-111115000D02*
X181900000Y-114760000D01*
X181900000Y-117240000D02*
X181900000Y-120885000D01*
X181940000Y-111127000D02*
X181940000Y-114760000D01*
X181940000Y-117240000D02*
X181940000Y-120873000D01*
X181980000Y-111139000D02*
X181980000Y-114760000D01*
X181980000Y-117240000D02*
X181980000Y-120861000D01*
X182020000Y-111151000D02*
X182020000Y-114760000D01*
X182020000Y-117240000D02*
X182020000Y-120849000D01*
X182060000Y-111163000D02*
X182060000Y-114760000D01*
X182060000Y-117240000D02*
X182060000Y-120837000D01*
X182100000Y-111176000D02*
X182100000Y-114760000D01*
X182100000Y-117240000D02*
X182100000Y-120824000D01*
X182140000Y-111190000D02*
X182140000Y-114760000D01*
X182140000Y-117240000D02*
X182140000Y-120810000D01*
X182180000Y-111203000D02*
X182180000Y-114760000D01*
X182180000Y-117240000D02*
X182180000Y-120797000D01*
X182220000Y-111218000D02*
X182220000Y-114760000D01*
X182220000Y-117240000D02*
X182220000Y-120782000D01*
X182260000Y-111232000D02*
X182260000Y-114760000D01*
X182260000Y-117240000D02*
X182260000Y-120768000D01*
X182300000Y-111247000D02*
X182300000Y-114760000D01*
X182300000Y-117240000D02*
X182300000Y-120753000D01*
X182340000Y-111262000D02*
X182340000Y-114760000D01*
X182340000Y-117240000D02*
X182340000Y-120738000D01*
X182380000Y-111278000D02*
X182380000Y-114760000D01*
X182380000Y-117240000D02*
X182380000Y-120722000D01*
X182420000Y-111294000D02*
X182420000Y-114760000D01*
X182420000Y-117240000D02*
X182420000Y-120706000D01*
X182460000Y-111310000D02*
X182460000Y-114760000D01*
X182460000Y-117240000D02*
X182460000Y-120690000D01*
X182500000Y-111327000D02*
X182500000Y-114760000D01*
X182500000Y-117240000D02*
X182500000Y-120673000D01*
X182540000Y-111344000D02*
X182540000Y-114760000D01*
X182540000Y-117240000D02*
X182540000Y-120656000D01*
X182580000Y-111362000D02*
X182580000Y-114760000D01*
X182580000Y-117240000D02*
X182580000Y-120638000D01*
X182620000Y-111380000D02*
X182620000Y-114760000D01*
X182620000Y-117240000D02*
X182620000Y-120620000D01*
X182660000Y-111398000D02*
X182660000Y-114760000D01*
X182660000Y-117240000D02*
X182660000Y-120602000D01*
X182700000Y-111417000D02*
X182700000Y-114760000D01*
X182700000Y-117240000D02*
X182700000Y-120583000D01*
X182740000Y-111436000D02*
X182740000Y-114760000D01*
X182740000Y-117240000D02*
X182740000Y-120564000D01*
X182780000Y-111456000D02*
X182780000Y-114760000D01*
X182780000Y-117240000D02*
X182780000Y-120544000D01*
X182820000Y-111476000D02*
X182820000Y-114760000D01*
X182820000Y-117240000D02*
X182820000Y-120524000D01*
X182860000Y-111496000D02*
X182860000Y-114760000D01*
X182860000Y-117240000D02*
X182860000Y-120504000D01*
X182900000Y-111517000D02*
X182900000Y-114760000D01*
X182900000Y-117240000D02*
X182900000Y-120483000D01*
X182940000Y-111539000D02*
X182940000Y-114760000D01*
X182940000Y-117240000D02*
X182940000Y-120461000D01*
X182980000Y-111561000D02*
X182980000Y-114760000D01*
X182980000Y-117240000D02*
X182980000Y-120439000D01*
X183020000Y-111583000D02*
X183020000Y-114760000D01*
X183020000Y-117240000D02*
X183020000Y-120417000D01*
X183060000Y-111606000D02*
X183060000Y-114760000D01*
X183060000Y-117240000D02*
X183060000Y-120394000D01*
X183100000Y-111629000D02*
X183100000Y-114760000D01*
X183100000Y-117240000D02*
X183100000Y-120371000D01*
X183140000Y-111653000D02*
X183140000Y-114760000D01*
X183140000Y-117240000D02*
X183140000Y-120347000D01*
X183180000Y-111677000D02*
X183180000Y-114760000D01*
X183180000Y-117240000D02*
X183180000Y-120323000D01*
X183220000Y-111702000D02*
X183220000Y-114760000D01*
X183220000Y-117240000D02*
X183220000Y-120298000D01*
X183260000Y-111728000D02*
X183260000Y-114760000D01*
X183260000Y-117240000D02*
X183260000Y-120272000D01*
X183300000Y-111753000D02*
X183300000Y-114760000D01*
X183300000Y-117240000D02*
X183300000Y-120247000D01*
X183340000Y-111780000D02*
X183340000Y-114760000D01*
X183340000Y-117240000D02*
X183340000Y-120220000D01*
X183380000Y-111807000D02*
X183380000Y-114760000D01*
X183380000Y-117240000D02*
X183380000Y-120193000D01*
X183420000Y-111834000D02*
X183420000Y-114760000D01*
X183420000Y-117240000D02*
X183420000Y-120166000D01*
X183460000Y-111862000D02*
X183460000Y-114760000D01*
X183460000Y-117240000D02*
X183460000Y-120138000D01*
X183500000Y-111891000D02*
X183500000Y-114760000D01*
X183500000Y-117240000D02*
X183500000Y-120109000D01*
X183540000Y-111920000D02*
X183540000Y-114760000D01*
X183540000Y-117240000D02*
X183540000Y-120080000D01*
X183580000Y-111950000D02*
X183580000Y-114760000D01*
X183580000Y-117240000D02*
X183580000Y-120050000D01*
X183620000Y-111980000D02*
X183620000Y-114760000D01*
X183620000Y-117240000D02*
X183620000Y-120020000D01*
X183660000Y-112012000D02*
X183660000Y-114760000D01*
X183660000Y-117240000D02*
X183660000Y-119988000D01*
X183700000Y-112043000D02*
X183700000Y-114760000D01*
X183700000Y-117240000D02*
X183700000Y-119957000D01*
X183740000Y-112076000D02*
X183740000Y-114760000D01*
X183740000Y-117240000D02*
X183740000Y-119924000D01*
X183780000Y-112109000D02*
X183780000Y-114760000D01*
X183780000Y-117240000D02*
X183780000Y-119891000D01*
X183820000Y-112142000D02*
X183820000Y-114760000D01*
X183820000Y-117240000D02*
X183820000Y-119858000D01*
X183860000Y-112177000D02*
X183860000Y-114760000D01*
X183860000Y-117240000D02*
X183860000Y-119823000D01*
X183900000Y-112212000D02*
X183900000Y-114760000D01*
X183900000Y-117240000D02*
X183900000Y-119788000D01*
X183940000Y-112248000D02*
X183940000Y-114760000D01*
X183940000Y-117240000D02*
X183940000Y-119752000D01*
X183980000Y-112284000D02*
X183980000Y-114760000D01*
X183980000Y-117240000D02*
X183980000Y-119716000D01*
X184020000Y-112322000D02*
X184020000Y-114760000D01*
X184020000Y-117240000D02*
X184020000Y-119678000D01*
X184060000Y-112360000D02*
X184060000Y-114760000D01*
X184060000Y-117240000D02*
X184060000Y-119640000D01*
X184100000Y-112399000D02*
X184100000Y-114760000D01*
X184100000Y-117240000D02*
X184100000Y-119601000D01*
X184140000Y-112439000D02*
X184140000Y-114760000D01*
X184140000Y-117240000D02*
X184140000Y-119561000D01*
X184180000Y-112480000D02*
X184180000Y-114760000D01*
X184180000Y-117240000D02*
X184180000Y-119520000D01*
X184220000Y-112522000D02*
X184220000Y-114760000D01*
X184220000Y-117240000D02*
X184220000Y-119478000D01*
X184260000Y-112565000D02*
X184260000Y-119435000D01*
X184300000Y-112609000D02*
X184300000Y-119391000D01*
X184340000Y-112653000D02*
X184340000Y-119347000D01*
X184380000Y-112699000D02*
X184380000Y-119301000D01*
X184420000Y-112746000D02*
X184420000Y-119254000D01*
X184460000Y-112795000D02*
X184460000Y-119205000D01*
X184500000Y-112844000D02*
X184500000Y-119156000D01*
X184540000Y-112895000D02*
X184540000Y-119105000D01*
X184580000Y-112947000D02*
X184580000Y-119053000D01*
X184620000Y-113000000D02*
X184620000Y-119000000D01*
X184660000Y-113055000D02*
X184660000Y-118945000D01*
X184700000Y-113112000D02*
X184700000Y-118888000D01*
X184740000Y-113170000D02*
X184740000Y-118830000D01*
X184780000Y-113230000D02*
X184780000Y-118770000D01*
X184820000Y-113292000D02*
X184820000Y-118708000D01*
X184860000Y-113356000D02*
X184860000Y-118644000D01*
X184900000Y-113422000D02*
X184900000Y-118578000D01*
X184940000Y-113490000D02*
X184940000Y-118510000D01*
X184980000Y-113561000D02*
X184980000Y-118439000D01*
X185020000Y-113635000D02*
X185020000Y-118365000D01*
X185060000Y-113712000D02*
X185060000Y-118288000D01*
X185100000Y-113792000D02*
X185100000Y-118208000D01*
X185140000Y-113876000D02*
X185140000Y-118124000D01*
X185180000Y-113963000D02*
X185180000Y-118037000D01*
X185220000Y-114056000D02*
X185220000Y-117944000D01*
X185260000Y-114154000D02*
X185260000Y-117846000D01*
X185300000Y-114258000D02*
X185300000Y-117742000D01*
X185340000Y-114370000D02*
X185340000Y-117630000D01*
X185380000Y-114491000D02*
X185380000Y-117509000D01*
X185420000Y-114623000D02*
X185420000Y-117377000D01*
X185460000Y-114770000D02*
X185460000Y-117230000D01*
X185500000Y-114938000D02*
X185500000Y-117062000D01*
X185540000Y-115138000D02*
X185540000Y-116862000D01*
X185580000Y-115401000D02*
X185580000Y-116599000D01*
X185620000Y-116000000D02*
G75*
G02*
X175380000Y-116000000I-5120000J0D01*
G01*
X175380000Y-116000000D02*
G75*
G02*
X185620000Y-116000000I5120000J0D01*
G01*
%TO.C,R28*%
X157772936Y-123265000D02*
X158227064Y-123265000D01*
X157772936Y-124735000D02*
X158227064Y-124735000D01*
%TO.C,L5*%
X151700000Y-75700000D02*
X164300000Y-75700000D01*
X151700000Y-78700000D02*
X151700000Y-75700000D01*
X151700000Y-88300000D02*
X151700000Y-85300000D01*
X164300000Y-75700000D02*
X164300000Y-78700000D01*
X164300000Y-85300000D02*
X164300000Y-88300000D01*
X164300000Y-88300000D02*
X151700000Y-88300000D01*
%TO.C,R36*%
X208265000Y-116772936D02*
X208265000Y-117227064D01*
X209735000Y-116772936D02*
X209735000Y-117227064D01*
%TO.C,L7*%
X186600000Y-109700000D02*
X199200000Y-109700000D01*
X186600000Y-112700000D02*
X186600000Y-109700000D01*
X186600000Y-122300000D02*
X186600000Y-119300000D01*
X199200000Y-109700000D02*
X199200000Y-112700000D01*
X199200000Y-119300000D02*
X199200000Y-122300000D01*
X199200000Y-122300000D02*
X186600000Y-122300000D01*
%TO.C,C9*%
X32738748Y-33265000D02*
X33261252Y-33265000D01*
X32738748Y-34735000D02*
X33261252Y-34735000D01*
%TO.C,C7*%
X29738748Y-49265000D02*
X30261252Y-49265000D01*
X29738748Y-50735000D02*
X30261252Y-50735000D01*
%TO.C,C13*%
X49288748Y-83090000D02*
X50711252Y-83090000D01*
X49288748Y-84910000D02*
X50711252Y-84910000D01*
%TO.C,R37*%
X212090000Y-115872936D02*
X212090000Y-117327064D01*
X213910000Y-115872936D02*
X213910000Y-117327064D01*
%TO.C,L8*%
X154613748Y-36790000D02*
X157386252Y-36790000D01*
X154613748Y-40210000D02*
X157386252Y-40210000D01*
%TO.C,C28*%
X200140000Y-121288748D02*
X200140000Y-122711252D01*
X202860000Y-121288748D02*
X202860000Y-122711252D01*
%TO.C,R18*%
X61727064Y-121465000D02*
X61272936Y-121465000D01*
X61727064Y-122935000D02*
X61272936Y-122935000D01*
%TO.C,C11*%
X113170000Y-82533000D02*
X113170000Y-81467000D01*
X113210000Y-82768000D02*
X113210000Y-81232000D01*
X113250000Y-82947000D02*
X113250000Y-81053000D01*
X113290000Y-83097000D02*
X113290000Y-80903000D01*
X113330000Y-83228000D02*
X113330000Y-80772000D01*
X113370000Y-83346000D02*
X113370000Y-80654000D01*
X113410000Y-83453000D02*
X113410000Y-80547000D01*
X113450000Y-83552000D02*
X113450000Y-80448000D01*
X113490000Y-83644000D02*
X113490000Y-80356000D01*
X113530000Y-83731000D02*
X113530000Y-80269000D01*
X113570000Y-83813000D02*
X113570000Y-80187000D01*
X113610000Y-83890000D02*
X113610000Y-80110000D01*
X113650000Y-83964000D02*
X113650000Y-80036000D01*
X113690000Y-84034000D02*
X113690000Y-79966000D01*
X113730000Y-84101000D02*
X113730000Y-79899000D01*
X113770000Y-84165000D02*
X113770000Y-79835000D01*
X113810000Y-84227000D02*
X113810000Y-79773000D01*
X113850000Y-84287000D02*
X113850000Y-79713000D01*
X113890000Y-84344000D02*
X113890000Y-79656000D01*
X113930000Y-84400000D02*
X113930000Y-79600000D01*
X113970000Y-84453000D02*
X113970000Y-79547000D01*
X114010000Y-84505000D02*
X114010000Y-79495000D01*
X114050000Y-84555000D02*
X114050000Y-79445000D01*
X114090000Y-84604000D02*
X114090000Y-79396000D01*
X114130000Y-84651000D02*
X114130000Y-79349000D01*
X114170000Y-84696000D02*
X114170000Y-79304000D01*
X114210000Y-84741000D02*
X114210000Y-79259000D01*
X114250000Y-84784000D02*
X114250000Y-79216000D01*
X114290000Y-84826000D02*
X114290000Y-79174000D01*
X114330000Y-84867000D02*
X114330000Y-79133000D01*
X114370000Y-84906000D02*
X114370000Y-79094000D01*
X114410000Y-84945000D02*
X114410000Y-79055000D01*
X114450000Y-84982000D02*
X114450000Y-79018000D01*
X114490000Y-80960000D02*
X114490000Y-78981000D01*
X114490000Y-85019000D02*
X114490000Y-83040000D01*
X114530000Y-80960000D02*
X114530000Y-78945000D01*
X114530000Y-85055000D02*
X114530000Y-83040000D01*
X114570000Y-80960000D02*
X114570000Y-78911000D01*
X114570000Y-85089000D02*
X114570000Y-83040000D01*
X114610000Y-80960000D02*
X114610000Y-78877000D01*
X114610000Y-85123000D02*
X114610000Y-83040000D01*
X114650000Y-80960000D02*
X114650000Y-78844000D01*
X114650000Y-85156000D02*
X114650000Y-83040000D01*
X114690000Y-80960000D02*
X114690000Y-78812000D01*
X114690000Y-85188000D02*
X114690000Y-83040000D01*
X114730000Y-80960000D02*
X114730000Y-78781000D01*
X114730000Y-85219000D02*
X114730000Y-83040000D01*
X114770000Y-80960000D02*
X114770000Y-78750000D01*
X114770000Y-85250000D02*
X114770000Y-83040000D01*
X114810000Y-80960000D02*
X114810000Y-78720000D01*
X114810000Y-85280000D02*
X114810000Y-83040000D01*
X114850000Y-80960000D02*
X114850000Y-78691000D01*
X114850000Y-85309000D02*
X114850000Y-83040000D01*
X114890000Y-80960000D02*
X114890000Y-78663000D01*
X114890000Y-85337000D02*
X114890000Y-83040000D01*
X114930000Y-80960000D02*
X114930000Y-78635000D01*
X114930000Y-85365000D02*
X114930000Y-83040000D01*
X114970000Y-80960000D02*
X114970000Y-78608000D01*
X114970000Y-85392000D02*
X114970000Y-83040000D01*
X115010000Y-80960000D02*
X115010000Y-78582000D01*
X115010000Y-85418000D02*
X115010000Y-83040000D01*
X115050000Y-80960000D02*
X115050000Y-78557000D01*
X115050000Y-85443000D02*
X115050000Y-83040000D01*
X115090000Y-80960000D02*
X115090000Y-78532000D01*
X115090000Y-85468000D02*
X115090000Y-83040000D01*
X115130000Y-80960000D02*
X115130000Y-78507000D01*
X115130000Y-85493000D02*
X115130000Y-83040000D01*
X115170000Y-80960000D02*
X115170000Y-78484000D01*
X115170000Y-85516000D02*
X115170000Y-83040000D01*
X115210000Y-80960000D02*
X115210000Y-78461000D01*
X115210000Y-85539000D02*
X115210000Y-83040000D01*
X115250000Y-80960000D02*
X115250000Y-78438000D01*
X115250000Y-85562000D02*
X115250000Y-83040000D01*
X115290000Y-80960000D02*
X115290000Y-78416000D01*
X115290000Y-85584000D02*
X115290000Y-83040000D01*
X115330000Y-80960000D02*
X115330000Y-78395000D01*
X115330000Y-85605000D02*
X115330000Y-83040000D01*
X115370000Y-80960000D02*
X115370000Y-78374000D01*
X115370000Y-85626000D02*
X115370000Y-83040000D01*
X115410000Y-80960000D02*
X115410000Y-78354000D01*
X115410000Y-85646000D02*
X115410000Y-83040000D01*
X115450000Y-80960000D02*
X115450000Y-78334000D01*
X115450000Y-85666000D02*
X115450000Y-83040000D01*
X115490000Y-80960000D02*
X115490000Y-78315000D01*
X115490000Y-85685000D02*
X115490000Y-83040000D01*
X115530000Y-80960000D02*
X115530000Y-78296000D01*
X115530000Y-85704000D02*
X115530000Y-83040000D01*
X115570000Y-80960000D02*
X115570000Y-78278000D01*
X115570000Y-85722000D02*
X115570000Y-83040000D01*
X115610000Y-80960000D02*
X115610000Y-78260000D01*
X115610000Y-85740000D02*
X115610000Y-83040000D01*
X115650000Y-80960000D02*
X115650000Y-78243000D01*
X115650000Y-85757000D02*
X115650000Y-83040000D01*
X115690000Y-80960000D02*
X115690000Y-78227000D01*
X115690000Y-85773000D02*
X115690000Y-83040000D01*
X115730000Y-80960000D02*
X115730000Y-78211000D01*
X115730000Y-85789000D02*
X115730000Y-83040000D01*
X115770000Y-80960000D02*
X115770000Y-78195000D01*
X115770000Y-85805000D02*
X115770000Y-83040000D01*
X115810000Y-80960000D02*
X115810000Y-78180000D01*
X115810000Y-85820000D02*
X115810000Y-83040000D01*
X115850000Y-80960000D02*
X115850000Y-78165000D01*
X115850000Y-85835000D02*
X115850000Y-83040000D01*
X115890000Y-80960000D02*
X115890000Y-78151000D01*
X115890000Y-85849000D02*
X115890000Y-83040000D01*
X115930000Y-80960000D02*
X115930000Y-78137000D01*
X115930000Y-85863000D02*
X115930000Y-83040000D01*
X115970000Y-80960000D02*
X115970000Y-78124000D01*
X115970000Y-85876000D02*
X115970000Y-83040000D01*
X116010000Y-80960000D02*
X116010000Y-78111000D01*
X116010000Y-85889000D02*
X116010000Y-83040000D01*
X116050000Y-80960000D02*
X116050000Y-78099000D01*
X116050000Y-85901000D02*
X116050000Y-83040000D01*
X116090000Y-80960000D02*
X116090000Y-78087000D01*
X116090000Y-85913000D02*
X116090000Y-83040000D01*
X116130000Y-80960000D02*
X116130000Y-78075000D01*
X116130000Y-85925000D02*
X116130000Y-83040000D01*
X116170000Y-80960000D02*
X116170000Y-78064000D01*
X116170000Y-85936000D02*
X116170000Y-83040000D01*
X116210000Y-80960000D02*
X116210000Y-78053000D01*
X116210000Y-85947000D02*
X116210000Y-83040000D01*
X116250000Y-80960000D02*
X116250000Y-78043000D01*
X116250000Y-85957000D02*
X116250000Y-83040000D01*
X116290000Y-80960000D02*
X116290000Y-78033000D01*
X116290000Y-85967000D02*
X116290000Y-83040000D01*
X116330000Y-80960000D02*
X116330000Y-78024000D01*
X116330000Y-85976000D02*
X116330000Y-83040000D01*
X116370000Y-80960000D02*
X116370000Y-78015000D01*
X116370000Y-85985000D02*
X116370000Y-83040000D01*
X116410000Y-80960000D02*
X116410000Y-78007000D01*
X116410000Y-85993000D02*
X116410000Y-83040000D01*
X116450000Y-80960000D02*
X116450000Y-77998000D01*
X116450000Y-86002000D02*
X116450000Y-83040000D01*
X116490000Y-80960000D02*
X116490000Y-77991000D01*
X116490000Y-86009000D02*
X116490000Y-83040000D01*
X116530000Y-80960000D02*
X116530000Y-77983000D01*
X116530000Y-86017000D02*
X116530000Y-83040000D01*
X116570000Y-86023000D02*
X116570000Y-77977000D01*
X116610000Y-86030000D02*
X116610000Y-77970000D01*
X116650000Y-86036000D02*
X116650000Y-77964000D01*
X116690000Y-86042000D02*
X116690000Y-77958000D01*
X116730000Y-86047000D02*
X116730000Y-77953000D01*
X116770000Y-86052000D02*
X116770000Y-77948000D01*
X116810000Y-86056000D02*
X116810000Y-77944000D01*
X116850000Y-86061000D02*
X116850000Y-77939000D01*
X116890000Y-86064000D02*
X116890000Y-77936000D01*
X116930000Y-86068000D02*
X116930000Y-77932000D01*
X116970000Y-86070000D02*
X116970000Y-77930000D01*
X117010000Y-86073000D02*
X117010000Y-77927000D01*
X117050000Y-86075000D02*
X117050000Y-77925000D01*
X117090000Y-86077000D02*
X117090000Y-77923000D01*
X117130000Y-86078000D02*
X117130000Y-77922000D01*
X117170000Y-86079000D02*
X117170000Y-77921000D01*
X117210000Y-86080000D02*
X117210000Y-77920000D01*
X117250000Y-86080000D02*
X117250000Y-77920000D01*
X121259698Y-84715000D02*
X121259698Y-83915000D01*
X121659698Y-84315000D02*
X120859698Y-84315000D01*
X121370000Y-82000000D02*
G75*
G02*
X113130000Y-82000000I-4120000J0D01*
G01*
X113130000Y-82000000D02*
G75*
G02*
X121370000Y-82000000I4120000J0D01*
G01*
%TO.C,U2*%
X138290000Y-80740000D02*
X148510000Y-80740000D01*
X138290000Y-82120000D02*
X148510000Y-82120000D01*
X138290000Y-85360000D02*
X138290000Y-80740000D01*
X141550000Y-80740000D02*
X141550000Y-82120000D01*
X145250000Y-80740000D02*
X145250000Y-82120000D01*
X148510000Y-80740000D02*
X148510000Y-85360000D01*
X148510000Y-85360000D02*
X138290000Y-85360000D01*
%TO.C,R10*%
X45772936Y-59265000D02*
X46227064Y-59265000D01*
X45772936Y-60735000D02*
X46227064Y-60735000D01*
%TO.C,C22*%
X150738748Y-126265000D02*
X151261252Y-126265000D01*
X150738748Y-127735000D02*
X151261252Y-127735000D01*
%TO.C,R13*%
X167772936Y-89265000D02*
X168227064Y-89265000D01*
X167772936Y-90735000D02*
X168227064Y-90735000D01*
%TO.C,U4*%
X112770000Y-121550000D02*
X117230000Y-121550000D01*
X112770000Y-128450000D02*
X117230000Y-128450000D01*
X111090000Y-122075000D02*
X110760000Y-121835000D01*
X110760000Y-122315000D01*
X111090000Y-122075000D01*
G36*
X111090000Y-122075000D02*
G01*
X110760000Y-122315000D01*
X110760000Y-121835000D01*
X111090000Y-122075000D01*
G37*
%TO.C,R8*%
X37772936Y-59265000D02*
X38227064Y-59265000D01*
X37772936Y-60735000D02*
X38227064Y-60735000D01*
%TO.C,Q4*%
X69470000Y-92850000D02*
X73070000Y-92850000D01*
X69431522Y-92838478D02*
G75*
G02*
X71270000Y-88399999I1838478J1838478D01*
G01*
X71270000Y-88400000D02*
G75*
G02*
X73108478Y-92838478I0J-2600000D01*
G01*
%TO.C,Q2*%
X98350000Y-72700000D02*
X98350000Y-88570000D01*
X100435000Y-72700000D02*
X100435000Y-70260000D01*
X101405000Y-72700000D02*
X101405000Y-70260000D01*
X102975000Y-72700000D02*
X102975000Y-70260000D01*
X103945000Y-72700000D02*
X103945000Y-70260000D01*
X105515000Y-72700000D02*
X105515000Y-70260000D01*
X106485000Y-72700000D02*
X106485000Y-70260000D01*
X108570000Y-72700000D02*
X98350000Y-72700000D01*
X108570000Y-72700000D02*
X108570000Y-88570000D01*
X108570000Y-88570000D02*
X98350000Y-88570000D01*
%TO.C,R5*%
X52772936Y-88265000D02*
X53227064Y-88265000D01*
X52772936Y-89735000D02*
X53227064Y-89735000D01*
%TO.C,C30*%
X54640000Y-120711252D02*
X54640000Y-119288748D01*
X57360000Y-120711252D02*
X57360000Y-119288748D01*
%TO.C,R21*%
X80272936Y-121665000D02*
X80727064Y-121665000D01*
X80272936Y-123135000D02*
X80727064Y-123135000D01*
%TO.C,U3*%
X67940000Y-117440000D02*
X72060000Y-117440000D01*
X72060000Y-122560000D02*
X67940000Y-122560000D01*
X73740000Y-122000000D02*
X74070000Y-121760000D01*
X74070000Y-122240000D01*
X73740000Y-122000000D01*
G36*
X74070000Y-122240000D02*
G01*
X73740000Y-122000000D01*
X74070000Y-121760000D01*
X74070000Y-122240000D01*
G37*
%TO.C,C6*%
X199288748Y-62090000D02*
X200711252Y-62090000D01*
X199288748Y-63910000D02*
X200711252Y-63910000D01*
%TO.C,U1*%
X52800000Y-48800000D02*
X55200000Y-48800000D01*
X55200000Y-51200000D01*
X52800000Y-51200000D01*
X52800000Y-48800000D01*
%TO.C,J1*%
X6760000Y-49750000D02*
X6260000Y-50000000D01*
X6760000Y-50250000D01*
X6760000Y-49750000D01*
G36*
X6760000Y-50250000D02*
G01*
X6260000Y-50000000D01*
X6760000Y-49750000D01*
X6760000Y-50250000D01*
G37*
%TO.C,D3*%
X144490000Y-91350000D02*
X144490000Y-94650000D01*
X144490000Y-91350000D02*
X150000000Y-91350000D01*
X144490000Y-94650000D02*
X150000000Y-94650000D01*
%TO.C,R22*%
X96772936Y-123265000D02*
X97227064Y-123265000D01*
X96772936Y-124735000D02*
X97227064Y-124735000D01*
%TO.C,D1*%
X189090000Y-93750000D02*
X197600000Y-93750000D01*
X189090000Y-100250000D02*
X189090000Y-93750000D01*
X189090000Y-100250000D02*
X197600000Y-100250000D01*
%TO.C,Q1*%
X103430000Y-11430000D02*
X113650000Y-11430000D01*
X103430000Y-27300000D02*
X103430000Y-11430000D01*
X103430000Y-27300000D02*
X113650000Y-27300000D01*
X105515000Y-27300000D02*
X105515000Y-29740000D01*
X106485000Y-27300000D02*
X106485000Y-29740000D01*
X108055000Y-27300000D02*
X108055000Y-29740000D01*
X109025000Y-27300000D02*
X109025000Y-29740000D01*
X110595000Y-27300000D02*
X110595000Y-29740000D01*
X111565000Y-27300000D02*
X111565000Y-29740000D01*
X113650000Y-27300000D02*
X113650000Y-11430000D01*
%TO.C,R27*%
X151772936Y-123265000D02*
X152227064Y-123265000D01*
X151772936Y-124735000D02*
X152227064Y-124735000D01*
%TO.C,R9*%
X37772936Y-49265000D02*
X38227064Y-49265000D01*
X37772936Y-50735000D02*
X38227064Y-50735000D01*
%TO.C,R24*%
X102772936Y-123265000D02*
X103227064Y-123265000D01*
X102772936Y-124735000D02*
X103227064Y-124735000D01*
%TO.C,C10*%
X127288748Y-81090000D02*
X128711252Y-81090000D01*
X127288748Y-82910000D02*
X128711252Y-82910000D01*
%TO.C,R1*%
X89772936Y-39265000D02*
X90227064Y-39265000D01*
X89772936Y-40735000D02*
X90227064Y-40735000D01*
%TO.C,L1*%
X148895000Y-48990000D02*
X154583000Y-48990000D01*
X148895000Y-55580000D02*
X148895000Y-48990000D01*
X154583000Y-55580000D02*
X148895000Y-55580000D01*
X157417000Y-48990000D02*
X163105000Y-48990000D01*
X163105000Y-48990000D02*
X163105000Y-55580000D01*
X163105000Y-55580000D02*
X157417000Y-55580000D01*
%TO.C,C8*%
X64738748Y-49265000D02*
X65261252Y-49265000D01*
X64738748Y-50735000D02*
X65261252Y-50735000D01*
%TO.C,R11*%
X57772936Y-33265000D02*
X58227064Y-33265000D01*
X57772936Y-34735000D02*
X58227064Y-34735000D01*
%TO.C,C3*%
X148288748Y-60090000D02*
X149711252Y-60090000D01*
X148288748Y-61910000D02*
X149711252Y-61910000D01*
%TO.C,Q6*%
X132890000Y-112550000D02*
X139310000Y-112550000D01*
X132890000Y-119450000D02*
X139310000Y-119450000D01*
X139310000Y-112550000D02*
X139310000Y-112820000D01*
X139310000Y-119450000D02*
X139310000Y-119180000D01*
X141040000Y-119140000D02*
X141380000Y-119610000D01*
X140700000Y-119610000D01*
X141040000Y-119140000D01*
G36*
X141380000Y-119610000D02*
G01*
X140700000Y-119610000D01*
X141040000Y-119140000D01*
X141380000Y-119610000D01*
G37*
%TO.C,L2*%
X165895000Y-48990000D02*
X171583000Y-48990000D01*
X165895000Y-55580000D02*
X165895000Y-48990000D01*
X171583000Y-55580000D02*
X165895000Y-55580000D01*
X174417000Y-48990000D02*
X180105000Y-48990000D01*
X180105000Y-48990000D02*
X180105000Y-55580000D01*
X180105000Y-55580000D02*
X174417000Y-55580000D01*
%TO.C,C4*%
X165288748Y-60090000D02*
X166711252Y-60090000D01*
X165288748Y-61910000D02*
X166711252Y-61910000D01*
%TO.C,R35*%
X154822936Y-27790000D02*
X159177064Y-27790000D01*
X154822936Y-31210000D02*
X159177064Y-31210000D01*
%TO.C,L4*%
X38895000Y-32990000D02*
X44583000Y-32990000D01*
X38895000Y-39580000D02*
X38895000Y-32990000D01*
X44583000Y-39580000D02*
X38895000Y-39580000D01*
X47417000Y-32990000D02*
X53105000Y-32990000D01*
X53105000Y-32990000D02*
X53105000Y-39580000D01*
X53105000Y-39580000D02*
X47417000Y-39580000D01*
%TO.C,D8*%
X212040000Y-120400000D02*
X212040000Y-123085000D01*
X212040000Y-123085000D02*
X213960000Y-123085000D01*
X213960000Y-123085000D02*
X213960000Y-120400000D01*
%TO.C,R32*%
X59772936Y-119265000D02*
X60227064Y-119265000D01*
X59772936Y-120735000D02*
X60227064Y-120735000D01*
%TO.C,Q7*%
X145690000Y-112550000D02*
X145690000Y-112820000D01*
X145690000Y-119450000D02*
X145690000Y-119180000D01*
X152110000Y-112550000D02*
X145690000Y-112550000D01*
X152110000Y-119450000D02*
X145690000Y-119450000D01*
X143960000Y-112860000D02*
X143620000Y-112390000D01*
X144300000Y-112390000D01*
X143960000Y-112860000D01*
G36*
X143960000Y-112860000D02*
G01*
X143620000Y-112390000D01*
X144300000Y-112390000D01*
X143960000Y-112860000D01*
G37*
%TO.C,C31*%
X76665000Y-123738748D02*
X76665000Y-124261252D01*
X78135000Y-123738748D02*
X78135000Y-124261252D01*
%TO.C,R19*%
X84772936Y-120265000D02*
X85227064Y-120265000D01*
X84772936Y-121735000D02*
X85227064Y-121735000D01*
%TO.C,L6*%
X114700000Y-106700000D02*
X127300000Y-106700000D01*
X114700000Y-109700000D02*
X114700000Y-106700000D01*
X114700000Y-119300000D02*
X114700000Y-116300000D01*
X127300000Y-106700000D02*
X127300000Y-109700000D01*
X127300000Y-116300000D02*
X127300000Y-119300000D01*
X127300000Y-119300000D02*
X114700000Y-119300000D01*
%TO.C,C21*%
X144738748Y-123265000D02*
X145261252Y-123265000D01*
X144738748Y-124735000D02*
X145261252Y-124735000D01*
%TO.C,J5*%
X88620000Y-126380000D02*
X88620000Y-125000000D01*
X90000000Y-126380000D02*
X88620000Y-126380000D01*
X91270000Y-123620000D02*
X93920000Y-123620000D01*
X91270000Y-126380000D02*
X91270000Y-123620000D01*
X91270000Y-126380000D02*
X93920000Y-126380000D01*
X93920000Y-126380000D02*
X93920000Y-123620000D01*
%TO.C,R2*%
X89772936Y-59265000D02*
X90227064Y-59265000D01*
X89772936Y-60735000D02*
X90227064Y-60735000D01*
%TO.C,R31*%
X91265000Y-116772936D02*
X91265000Y-117227064D01*
X92735000Y-116772936D02*
X92735000Y-117227064D01*
%TO.C,T2*%
X135500000Y-45500000D02*
X146500000Y-45500000D01*
X146500000Y-54500000D01*
X135500000Y-54500000D01*
X135500000Y-45500000D01*
%TO.C,R26*%
X132772936Y-123265000D02*
X133227064Y-123265000D01*
X132772936Y-124735000D02*
X133227064Y-124735000D01*
%TO.C,R25*%
X108772936Y-126265000D02*
X109227064Y-126265000D01*
X108772936Y-127735000D02*
X109227064Y-127735000D01*
%TO.C,R4*%
X59772936Y-88265000D02*
X60227064Y-88265000D01*
X59772936Y-89735000D02*
X60227064Y-89735000D01*
%TO.C,R23*%
X96772936Y-126265000D02*
X97227064Y-126265000D01*
X96772936Y-127735000D02*
X97227064Y-127735000D01*
%TO.C,J2*%
X213240000Y-50250000D02*
X213740000Y-50000000D01*
X213240000Y-49750000D01*
X213240000Y-50250000D01*
G36*
X213740000Y-50000000D02*
G01*
X213240000Y-50250000D01*
X213240000Y-49750000D01*
X213740000Y-50000000D01*
G37*
%TO.C,C26*%
X161020354Y-113125000D02*
X162020354Y-113125000D01*
X161520354Y-112625000D02*
X161520354Y-113625000D01*
X166500000Y-110920000D02*
X166500000Y-121080000D01*
X166540000Y-110920000D02*
X166540000Y-121080000D01*
X166580000Y-110921000D02*
X166580000Y-121079000D01*
X166620000Y-110921000D02*
X166620000Y-121079000D01*
X166660000Y-110923000D02*
X166660000Y-121077000D01*
X166700000Y-110924000D02*
X166700000Y-121076000D01*
X166740000Y-110926000D02*
X166740000Y-121074000D01*
X166780000Y-110928000D02*
X166780000Y-121072000D01*
X166820000Y-110930000D02*
X166820000Y-121070000D01*
X166860000Y-110933000D02*
X166860000Y-121067000D01*
X166900000Y-110936000D02*
X166900000Y-121064000D01*
X166940000Y-110939000D02*
X166940000Y-121061000D01*
X166980000Y-110943000D02*
X166980000Y-121057000D01*
X167020000Y-110946000D02*
X167020000Y-121054000D01*
X167060000Y-110951000D02*
X167060000Y-121049000D01*
X167100000Y-110955000D02*
X167100000Y-121045000D01*
X167140000Y-110960000D02*
X167140000Y-121040000D01*
X167180000Y-110965000D02*
X167180000Y-121035000D01*
X167220000Y-110971000D02*
X167220000Y-121029000D01*
X167260000Y-110977000D02*
X167260000Y-121023000D01*
X167300000Y-110983000D02*
X167300000Y-121017000D01*
X167340000Y-110989000D02*
X167340000Y-121011000D01*
X167380000Y-110996000D02*
X167380000Y-121004000D01*
X167420000Y-111003000D02*
X167420000Y-120997000D01*
X167460000Y-111011000D02*
X167460000Y-120989000D01*
X167500000Y-111019000D02*
X167500000Y-120981000D01*
X167540000Y-111027000D02*
X167540000Y-120973000D01*
X167580000Y-111035000D02*
X167580000Y-120965000D01*
X167620000Y-111044000D02*
X167620000Y-120956000D01*
X167660000Y-111053000D02*
X167660000Y-120947000D01*
X167700000Y-111063000D02*
X167700000Y-120937000D01*
X167740000Y-111072000D02*
X167740000Y-120928000D01*
X167780000Y-111083000D02*
X167780000Y-114760000D01*
X167780000Y-117240000D02*
X167780000Y-120917000D01*
X167820000Y-111093000D02*
X167820000Y-114760000D01*
X167820000Y-117240000D02*
X167820000Y-120907000D01*
X167860000Y-111104000D02*
X167860000Y-114760000D01*
X167860000Y-117240000D02*
X167860000Y-120896000D01*
X167900000Y-111115000D02*
X167900000Y-114760000D01*
X167900000Y-117240000D02*
X167900000Y-120885000D01*
X167940000Y-111127000D02*
X167940000Y-114760000D01*
X167940000Y-117240000D02*
X167940000Y-120873000D01*
X167980000Y-111139000D02*
X167980000Y-114760000D01*
X167980000Y-117240000D02*
X167980000Y-120861000D01*
X168020000Y-111151000D02*
X168020000Y-114760000D01*
X168020000Y-117240000D02*
X168020000Y-120849000D01*
X168060000Y-111163000D02*
X168060000Y-114760000D01*
X168060000Y-117240000D02*
X168060000Y-120837000D01*
X168100000Y-111176000D02*
X168100000Y-114760000D01*
X168100000Y-117240000D02*
X168100000Y-120824000D01*
X168140000Y-111190000D02*
X168140000Y-114760000D01*
X168140000Y-117240000D02*
X168140000Y-120810000D01*
X168180000Y-111203000D02*
X168180000Y-114760000D01*
X168180000Y-117240000D02*
X168180000Y-120797000D01*
X168220000Y-111218000D02*
X168220000Y-114760000D01*
X168220000Y-117240000D02*
X168220000Y-120782000D01*
X168260000Y-111232000D02*
X168260000Y-114760000D01*
X168260000Y-117240000D02*
X168260000Y-120768000D01*
X168300000Y-111247000D02*
X168300000Y-114760000D01*
X168300000Y-117240000D02*
X168300000Y-120753000D01*
X168340000Y-111262000D02*
X168340000Y-114760000D01*
X168340000Y-117240000D02*
X168340000Y-120738000D01*
X168380000Y-111278000D02*
X168380000Y-114760000D01*
X168380000Y-117240000D02*
X168380000Y-120722000D01*
X168420000Y-111294000D02*
X168420000Y-114760000D01*
X168420000Y-117240000D02*
X168420000Y-120706000D01*
X168460000Y-111310000D02*
X168460000Y-114760000D01*
X168460000Y-117240000D02*
X168460000Y-120690000D01*
X168500000Y-111327000D02*
X168500000Y-114760000D01*
X168500000Y-117240000D02*
X168500000Y-120673000D01*
X168540000Y-111344000D02*
X168540000Y-114760000D01*
X168540000Y-117240000D02*
X168540000Y-120656000D01*
X168580000Y-111362000D02*
X168580000Y-114760000D01*
X168580000Y-117240000D02*
X168580000Y-120638000D01*
X168620000Y-111380000D02*
X168620000Y-114760000D01*
X168620000Y-117240000D02*
X168620000Y-120620000D01*
X168660000Y-111398000D02*
X168660000Y-114760000D01*
X168660000Y-117240000D02*
X168660000Y-120602000D01*
X168700000Y-111417000D02*
X168700000Y-114760000D01*
X168700000Y-117240000D02*
X168700000Y-120583000D01*
X168740000Y-111436000D02*
X168740000Y-114760000D01*
X168740000Y-117240000D02*
X168740000Y-120564000D01*
X168780000Y-111456000D02*
X168780000Y-114760000D01*
X168780000Y-117240000D02*
X168780000Y-120544000D01*
X168820000Y-111476000D02*
X168820000Y-114760000D01*
X168820000Y-117240000D02*
X168820000Y-120524000D01*
X168860000Y-111496000D02*
X168860000Y-114760000D01*
X168860000Y-117240000D02*
X168860000Y-120504000D01*
X168900000Y-111517000D02*
X168900000Y-114760000D01*
X168900000Y-117240000D02*
X168900000Y-120483000D01*
X168940000Y-111539000D02*
X168940000Y-114760000D01*
X168940000Y-117240000D02*
X168940000Y-120461000D01*
X168980000Y-111561000D02*
X168980000Y-114760000D01*
X168980000Y-117240000D02*
X168980000Y-120439000D01*
X169020000Y-111583000D02*
X169020000Y-114760000D01*
X169020000Y-117240000D02*
X169020000Y-120417000D01*
X169060000Y-111606000D02*
X169060000Y-114760000D01*
X169060000Y-117240000D02*
X169060000Y-120394000D01*
X169100000Y-111629000D02*
X169100000Y-114760000D01*
X169100000Y-117240000D02*
X169100000Y-120371000D01*
X169140000Y-111653000D02*
X169140000Y-114760000D01*
X169140000Y-117240000D02*
X169140000Y-120347000D01*
X169180000Y-111677000D02*
X169180000Y-114760000D01*
X169180000Y-117240000D02*
X169180000Y-120323000D01*
X169220000Y-111702000D02*
X169220000Y-114760000D01*
X169220000Y-117240000D02*
X169220000Y-120298000D01*
X169260000Y-111728000D02*
X169260000Y-114760000D01*
X169260000Y-117240000D02*
X169260000Y-120272000D01*
X169300000Y-111753000D02*
X169300000Y-114760000D01*
X169300000Y-117240000D02*
X169300000Y-120247000D01*
X169340000Y-111780000D02*
X169340000Y-114760000D01*
X169340000Y-117240000D02*
X169340000Y-120220000D01*
X169380000Y-111807000D02*
X169380000Y-114760000D01*
X169380000Y-117240000D02*
X169380000Y-120193000D01*
X169420000Y-111834000D02*
X169420000Y-114760000D01*
X169420000Y-117240000D02*
X169420000Y-120166000D01*
X169460000Y-111862000D02*
X169460000Y-114760000D01*
X169460000Y-117240000D02*
X169460000Y-120138000D01*
X169500000Y-111891000D02*
X169500000Y-114760000D01*
X169500000Y-117240000D02*
X169500000Y-120109000D01*
X169540000Y-111920000D02*
X169540000Y-114760000D01*
X169540000Y-117240000D02*
X169540000Y-120080000D01*
X169580000Y-111950000D02*
X169580000Y-114760000D01*
X169580000Y-117240000D02*
X169580000Y-120050000D01*
X169620000Y-111980000D02*
X169620000Y-114760000D01*
X169620000Y-117240000D02*
X169620000Y-120020000D01*
X169660000Y-112012000D02*
X169660000Y-114760000D01*
X169660000Y-117240000D02*
X169660000Y-119988000D01*
X169700000Y-112043000D02*
X169700000Y-114760000D01*
X169700000Y-117240000D02*
X169700000Y-119957000D01*
X169740000Y-112076000D02*
X169740000Y-114760000D01*
X169740000Y-117240000D02*
X169740000Y-119924000D01*
X169780000Y-112109000D02*
X169780000Y-114760000D01*
X169780000Y-117240000D02*
X169780000Y-119891000D01*
X169820000Y-112142000D02*
X169820000Y-114760000D01*
X169820000Y-117240000D02*
X169820000Y-119858000D01*
X169860000Y-112177000D02*
X169860000Y-114760000D01*
X169860000Y-117240000D02*
X169860000Y-119823000D01*
X169900000Y-112212000D02*
X169900000Y-114760000D01*
X169900000Y-117240000D02*
X169900000Y-119788000D01*
X169940000Y-112248000D02*
X169940000Y-114760000D01*
X169940000Y-117240000D02*
X169940000Y-119752000D01*
X169980000Y-112284000D02*
X169980000Y-114760000D01*
X169980000Y-117240000D02*
X169980000Y-119716000D01*
X170020000Y-112322000D02*
X170020000Y-114760000D01*
X170020000Y-117240000D02*
X170020000Y-119678000D01*
X170060000Y-112360000D02*
X170060000Y-114760000D01*
X170060000Y-117240000D02*
X170060000Y-119640000D01*
X170100000Y-112399000D02*
X170100000Y-114760000D01*
X170100000Y-117240000D02*
X170100000Y-119601000D01*
X170140000Y-112439000D02*
X170140000Y-114760000D01*
X170140000Y-117240000D02*
X170140000Y-119561000D01*
X170180000Y-112480000D02*
X170180000Y-114760000D01*
X170180000Y-117240000D02*
X170180000Y-119520000D01*
X170220000Y-112522000D02*
X170220000Y-114760000D01*
X170220000Y-117240000D02*
X170220000Y-119478000D01*
X170260000Y-112565000D02*
X170260000Y-119435000D01*
X170300000Y-112609000D02*
X170300000Y-119391000D01*
X170340000Y-112653000D02*
X170340000Y-119347000D01*
X170380000Y-112699000D02*
X170380000Y-119301000D01*
X170420000Y-112746000D02*
X170420000Y-119254000D01*
X170460000Y-112795000D02*
X170460000Y-119205000D01*
X170500000Y-112844000D02*
X170500000Y-119156000D01*
X170540000Y-112895000D02*
X170540000Y-119105000D01*
X170580000Y-112947000D02*
X170580000Y-119053000D01*
X170620000Y-113000000D02*
X170620000Y-119000000D01*
X170660000Y-113055000D02*
X170660000Y-118945000D01*
X170700000Y-113112000D02*
X170700000Y-118888000D01*
X170740000Y-113170000D02*
X170740000Y-118830000D01*
X170780000Y-113230000D02*
X170780000Y-118770000D01*
X170820000Y-113292000D02*
X170820000Y-118708000D01*
X170860000Y-113356000D02*
X170860000Y-118644000D01*
X170900000Y-113422000D02*
X170900000Y-118578000D01*
X170940000Y-113490000D02*
X170940000Y-118510000D01*
X170980000Y-113561000D02*
X170980000Y-118439000D01*
X171020000Y-113635000D02*
X171020000Y-118365000D01*
X171060000Y-113712000D02*
X171060000Y-118288000D01*
X171100000Y-113792000D02*
X171100000Y-118208000D01*
X171140000Y-113876000D02*
X171140000Y-118124000D01*
X171180000Y-113963000D02*
X171180000Y-118037000D01*
X171220000Y-114056000D02*
X171220000Y-117944000D01*
X171260000Y-114154000D02*
X171260000Y-117846000D01*
X171300000Y-114258000D02*
X171300000Y-117742000D01*
X171340000Y-114370000D02*
X171340000Y-117630000D01*
X171380000Y-114491000D02*
X171380000Y-117509000D01*
X171420000Y-114623000D02*
X171420000Y-117377000D01*
X171460000Y-114770000D02*
X171460000Y-117230000D01*
X171500000Y-114938000D02*
X171500000Y-117062000D01*
X171540000Y-115138000D02*
X171540000Y-116862000D01*
X171580000Y-115401000D02*
X171580000Y-116599000D01*
X171620000Y-116000000D02*
G75*
G02*
X161380000Y-116000000I-5120000J0D01*
G01*
X161380000Y-116000000D02*
G75*
G02*
X171620000Y-116000000I5120000J0D01*
G01*
%TO.C,C12*%
X173340302Y-83685000D02*
X174140302Y-83685000D01*
X173740302Y-83285000D02*
X173740302Y-84085000D01*
X177750000Y-81920000D02*
X177750000Y-90080000D01*
X177790000Y-81920000D02*
X177790000Y-90080000D01*
X177830000Y-81921000D02*
X177830000Y-90079000D01*
X177870000Y-81922000D02*
X177870000Y-90078000D01*
X177910000Y-81923000D02*
X177910000Y-90077000D01*
X177950000Y-81925000D02*
X177950000Y-90075000D01*
X177990000Y-81927000D02*
X177990000Y-90073000D01*
X178030000Y-81930000D02*
X178030000Y-90070000D01*
X178070000Y-81932000D02*
X178070000Y-90068000D01*
X178110000Y-81936000D02*
X178110000Y-90064000D01*
X178150000Y-81939000D02*
X178150000Y-90061000D01*
X178190000Y-81944000D02*
X178190000Y-90056000D01*
X178230000Y-81948000D02*
X178230000Y-90052000D01*
X178270000Y-81953000D02*
X178270000Y-90047000D01*
X178310000Y-81958000D02*
X178310000Y-90042000D01*
X178350000Y-81964000D02*
X178350000Y-90036000D01*
X178390000Y-81970000D02*
X178390000Y-90030000D01*
X178430000Y-81977000D02*
X178430000Y-90023000D01*
X178470000Y-81983000D02*
X178470000Y-84960000D01*
X178470000Y-87040000D02*
X178470000Y-90017000D01*
X178510000Y-81991000D02*
X178510000Y-84960000D01*
X178510000Y-87040000D02*
X178510000Y-90009000D01*
X178550000Y-81998000D02*
X178550000Y-84960000D01*
X178550000Y-87040000D02*
X178550000Y-90002000D01*
X178590000Y-82007000D02*
X178590000Y-84960000D01*
X178590000Y-87040000D02*
X178590000Y-89993000D01*
X178630000Y-82015000D02*
X178630000Y-84960000D01*
X178630000Y-87040000D02*
X178630000Y-89985000D01*
X178670000Y-82024000D02*
X178670000Y-84960000D01*
X178670000Y-87040000D02*
X178670000Y-89976000D01*
X178710000Y-82033000D02*
X178710000Y-84960000D01*
X178710000Y-87040000D02*
X178710000Y-89967000D01*
X178750000Y-82043000D02*
X178750000Y-84960000D01*
X178750000Y-87040000D02*
X178750000Y-89957000D01*
X178790000Y-82053000D02*
X178790000Y-84960000D01*
X178790000Y-87040000D02*
X178790000Y-89947000D01*
X178830000Y-82064000D02*
X178830000Y-84960000D01*
X178830000Y-87040000D02*
X178830000Y-89936000D01*
X178870000Y-82075000D02*
X178870000Y-84960000D01*
X178870000Y-87040000D02*
X178870000Y-89925000D01*
X178910000Y-82087000D02*
X178910000Y-84960000D01*
X178910000Y-87040000D02*
X178910000Y-89913000D01*
X178950000Y-82099000D02*
X178950000Y-84960000D01*
X178950000Y-87040000D02*
X178950000Y-89901000D01*
X178990000Y-82111000D02*
X178990000Y-84960000D01*
X178990000Y-87040000D02*
X178990000Y-89889000D01*
X179030000Y-82124000D02*
X179030000Y-84960000D01*
X179030000Y-87040000D02*
X179030000Y-89876000D01*
X179070000Y-82137000D02*
X179070000Y-84960000D01*
X179070000Y-87040000D02*
X179070000Y-89863000D01*
X179110000Y-82151000D02*
X179110000Y-84960000D01*
X179110000Y-87040000D02*
X179110000Y-89849000D01*
X179150000Y-82165000D02*
X179150000Y-84960000D01*
X179150000Y-87040000D02*
X179150000Y-89835000D01*
X179190000Y-82180000D02*
X179190000Y-84960000D01*
X179190000Y-87040000D02*
X179190000Y-89820000D01*
X179230000Y-82195000D02*
X179230000Y-84960000D01*
X179230000Y-87040000D02*
X179230000Y-89805000D01*
X179270000Y-82211000D02*
X179270000Y-84960000D01*
X179270000Y-87040000D02*
X179270000Y-89789000D01*
X179310000Y-82227000D02*
X179310000Y-84960000D01*
X179310000Y-87040000D02*
X179310000Y-89773000D01*
X179350000Y-82243000D02*
X179350000Y-84960000D01*
X179350000Y-87040000D02*
X179350000Y-89757000D01*
X179390000Y-82260000D02*
X179390000Y-84960000D01*
X179390000Y-87040000D02*
X179390000Y-89740000D01*
X179430000Y-82278000D02*
X179430000Y-84960000D01*
X179430000Y-87040000D02*
X179430000Y-89722000D01*
X179470000Y-82296000D02*
X179470000Y-84960000D01*
X179470000Y-87040000D02*
X179470000Y-89704000D01*
X179510000Y-82315000D02*
X179510000Y-84960000D01*
X179510000Y-87040000D02*
X179510000Y-89685000D01*
X179550000Y-82334000D02*
X179550000Y-84960000D01*
X179550000Y-87040000D02*
X179550000Y-89666000D01*
X179590000Y-82354000D02*
X179590000Y-84960000D01*
X179590000Y-87040000D02*
X179590000Y-89646000D01*
X179630000Y-82374000D02*
X179630000Y-84960000D01*
X179630000Y-87040000D02*
X179630000Y-89626000D01*
X179670000Y-82395000D02*
X179670000Y-84960000D01*
X179670000Y-87040000D02*
X179670000Y-89605000D01*
X179710000Y-82416000D02*
X179710000Y-84960000D01*
X179710000Y-87040000D02*
X179710000Y-89584000D01*
X179750000Y-82438000D02*
X179750000Y-84960000D01*
X179750000Y-87040000D02*
X179750000Y-89562000D01*
X179790000Y-82461000D02*
X179790000Y-84960000D01*
X179790000Y-87040000D02*
X179790000Y-89539000D01*
X179830000Y-82484000D02*
X179830000Y-84960000D01*
X179830000Y-87040000D02*
X179830000Y-89516000D01*
X179870000Y-82507000D02*
X179870000Y-84960000D01*
X179870000Y-87040000D02*
X179870000Y-89493000D01*
X179910000Y-82532000D02*
X179910000Y-84960000D01*
X179910000Y-87040000D02*
X179910000Y-89468000D01*
X179950000Y-82557000D02*
X179950000Y-84960000D01*
X179950000Y-87040000D02*
X179950000Y-89443000D01*
X179990000Y-82582000D02*
X179990000Y-84960000D01*
X179990000Y-87040000D02*
X179990000Y-89418000D01*
X180030000Y-82608000D02*
X180030000Y-84960000D01*
X180030000Y-87040000D02*
X180030000Y-89392000D01*
X180070000Y-82635000D02*
X180070000Y-84960000D01*
X180070000Y-87040000D02*
X180070000Y-89365000D01*
X180110000Y-82663000D02*
X180110000Y-84960000D01*
X180110000Y-87040000D02*
X180110000Y-89337000D01*
X180150000Y-82691000D02*
X180150000Y-84960000D01*
X180150000Y-87040000D02*
X180150000Y-89309000D01*
X180190000Y-82720000D02*
X180190000Y-84960000D01*
X180190000Y-87040000D02*
X180190000Y-89280000D01*
X180230000Y-82750000D02*
X180230000Y-84960000D01*
X180230000Y-87040000D02*
X180230000Y-89250000D01*
X180270000Y-82781000D02*
X180270000Y-84960000D01*
X180270000Y-87040000D02*
X180270000Y-89219000D01*
X180310000Y-82812000D02*
X180310000Y-84960000D01*
X180310000Y-87040000D02*
X180310000Y-89188000D01*
X180350000Y-82844000D02*
X180350000Y-84960000D01*
X180350000Y-87040000D02*
X180350000Y-89156000D01*
X180390000Y-82877000D02*
X180390000Y-84960000D01*
X180390000Y-87040000D02*
X180390000Y-89123000D01*
X180430000Y-82911000D02*
X180430000Y-84960000D01*
X180430000Y-87040000D02*
X180430000Y-89089000D01*
X180470000Y-82945000D02*
X180470000Y-84960000D01*
X180470000Y-87040000D02*
X180470000Y-89055000D01*
X180510000Y-82981000D02*
X180510000Y-84960000D01*
X180510000Y-87040000D02*
X180510000Y-89019000D01*
X180550000Y-83018000D02*
X180550000Y-88982000D01*
X180590000Y-83055000D02*
X180590000Y-88945000D01*
X180630000Y-83094000D02*
X180630000Y-88906000D01*
X180670000Y-83133000D02*
X180670000Y-88867000D01*
X180710000Y-83174000D02*
X180710000Y-88826000D01*
X180750000Y-83216000D02*
X180750000Y-88784000D01*
X180790000Y-83259000D02*
X180790000Y-88741000D01*
X180830000Y-83304000D02*
X180830000Y-88696000D01*
X180870000Y-83349000D02*
X180870000Y-88651000D01*
X180910000Y-83396000D02*
X180910000Y-88604000D01*
X180950000Y-83445000D02*
X180950000Y-88555000D01*
X180990000Y-83495000D02*
X180990000Y-88505000D01*
X181030000Y-83547000D02*
X181030000Y-88453000D01*
X181070000Y-83600000D02*
X181070000Y-88400000D01*
X181110000Y-83656000D02*
X181110000Y-88344000D01*
X181150000Y-83713000D02*
X181150000Y-88287000D01*
X181190000Y-83773000D02*
X181190000Y-88227000D01*
X181230000Y-83835000D02*
X181230000Y-88165000D01*
X181270000Y-83899000D02*
X181270000Y-88101000D01*
X181310000Y-83966000D02*
X181310000Y-88034000D01*
X181350000Y-84036000D02*
X181350000Y-87964000D01*
X181390000Y-84110000D02*
X181390000Y-87890000D01*
X181430000Y-84187000D02*
X181430000Y-87813000D01*
X181470000Y-84269000D02*
X181470000Y-87731000D01*
X181510000Y-84356000D02*
X181510000Y-87644000D01*
X181550000Y-84448000D02*
X181550000Y-87552000D01*
X181590000Y-84547000D02*
X181590000Y-87453000D01*
X181630000Y-84654000D02*
X181630000Y-87346000D01*
X181670000Y-84772000D02*
X181670000Y-87228000D01*
X181710000Y-84903000D02*
X181710000Y-87097000D01*
X181750000Y-85053000D02*
X181750000Y-86947000D01*
X181790000Y-85232000D02*
X181790000Y-86768000D01*
X181830000Y-85467000D02*
X181830000Y-86533000D01*
X181870000Y-86000000D02*
G75*
G02*
X173630000Y-86000000I-4120000J0D01*
G01*
X173630000Y-86000000D02*
G75*
G02*
X181870000Y-86000000I4120000J0D01*
G01*
%TO.C,R3*%
X76772936Y-81265000D02*
X77227064Y-81265000D01*
X76772936Y-82735000D02*
X77227064Y-82735000D01*
%TO.C,C23*%
X144288748Y-126090000D02*
X145711252Y-126090000D01*
X144288748Y-127910000D02*
X145711252Y-127910000D01*
%TO.C,R7*%
X108822936Y-60290000D02*
X113177064Y-60290000D01*
X108822936Y-63710000D02*
X113177064Y-63710000D01*
%TO.C,C24*%
X154640000Y-113711252D02*
X154640000Y-112288748D01*
X157360000Y-113711252D02*
X157360000Y-112288748D01*
%TO.C,J3*%
X201880000Y-92880000D02*
X212620000Y-92880000D01*
X201880000Y-96500000D02*
X203120000Y-96500000D01*
X201880000Y-97500000D02*
X203120000Y-97500000D01*
X201880000Y-98800000D02*
X203120000Y-98800000D01*
X201880000Y-100920000D02*
X201880000Y-92880000D01*
X204700000Y-100920000D02*
X201880000Y-100920000D01*
X206880000Y-96500000D02*
X208188000Y-96500000D01*
X206880000Y-97500000D02*
X208188000Y-97500000D01*
X206880000Y-98800000D02*
X209457000Y-98800000D01*
X210543000Y-98800000D02*
X212620000Y-98800000D01*
X211812000Y-96500000D02*
X212620000Y-96500000D01*
X211812000Y-97500000D02*
X212620000Y-97500000D01*
X212620000Y-92880000D02*
X212620000Y-100920000D01*
X212620000Y-100920000D02*
X205300000Y-100920000D01*
X205000000Y-100920000D02*
X205440000Y-101530000D01*
X204560000Y-101530000D01*
X205000000Y-100920000D01*
G36*
X205440000Y-101530000D02*
G01*
X204560000Y-101530000D01*
X205000000Y-100920000D01*
X205440000Y-101530000D01*
G37*
%TO.C,RV1*%
X52585000Y-79480000D02*
X62335000Y-79480000D01*
X52585000Y-84530000D02*
X52585000Y-79480000D01*
X62335000Y-79480000D02*
X62335000Y-84530000D01*
X62335000Y-84530000D02*
X52585000Y-84530000D01*
%TO.C,C20*%
X138738748Y-123265000D02*
X139261252Y-123265000D01*
X138738748Y-124735000D02*
X139261252Y-124735000D01*
%TO.C,C25*%
X154640000Y-118288748D02*
X154640000Y-119711252D01*
X157360000Y-118288748D02*
X157360000Y-119711252D01*
%TO.C,R33*%
X132772936Y-126265000D02*
X133227064Y-126265000D01*
X132772936Y-127735000D02*
X133227064Y-127735000D01*
%TO.C,C14*%
X85738748Y-75265000D02*
X86261252Y-75265000D01*
X85738748Y-76735000D02*
X86261252Y-76735000D01*
%TO.C,C2*%
X104261252Y-61265000D02*
X103738748Y-61265000D01*
X104261252Y-62735000D02*
X103738748Y-62735000D01*
%TO.C,R6*%
X108822936Y-36290000D02*
X113177064Y-36290000D01*
X108822936Y-39710000D02*
X113177064Y-39710000D01*
%TO.C,C19*%
X102738748Y-126265000D02*
X103261252Y-126265000D01*
X102738748Y-127735000D02*
X103261252Y-127735000D01*
%TD*%
M02*
