%TF.GenerationSoftware,KiCad,Pcbnew,10.0.4*%
%TF.CreationDate,2026-07-14T22:27:44-07:00*%
%TF.ProjectId,mrf101_40m_pa_usbpd,6d726631-3031-45f3-9430-6d5f70615f75,rev?*%
%TF.SameCoordinates,Original*%
%TF.FileFunction,Paste,Top*%
%TF.FilePolarity,Positive*%
%FSLAX46Y46*%
G04 Gerber Fmt 4.6, Leading zero omitted, Abs format (unit mm)*
G04 Created by KiCad (PCBNEW 10.0.4) date 2026-07-14 22:27:44*
%MOMM*%
%LPD*%
G01*
G04 APERTURE LIST*
G04 Aperture macros list*
%AMRoundRect*
0 Rectangle with rounded corners*
0 $1 Rounding radius*
0 $2 $3 $4 $5 $6 $7 $8 $9 X,Y pos of 4 corners*
0 Add a 4 corners polygon primitive as box body*
4,1,4,$2,$3,$4,$5,$6,$7,$8,$9,$2,$3,0*
0 Add four circle primitives for the rounded corners*
1,1,$1+$1,$2,$3*
1,1,$1+$1,$4,$5*
1,1,$1+$1,$6,$7*
1,1,$1+$1,$8,$9*
0 Add four rect primitives between the rounded corners*
20,1,$1+$1,$2,$3,$4,$5,0*
20,1,$1+$1,$4,$5,$6,$7,0*
20,1,$1+$1,$6,$7,$8,$9,0*
20,1,$1+$1,$8,$9,$2,$3,0*%
G04 Aperture macros list end*
%ADD10RoundRect,0.250000X-0.325000X-0.650000X0.325000X-0.650000X0.325000X0.650000X-0.325000X0.650000X0*%
%ADD11RoundRect,0.250000X-0.362500X-1.425000X0.362500X-1.425000X0.362500X1.425000X-0.362500X1.425000X0*%
%ADD12RoundRect,0.250000X-0.262500X-0.450000X0.262500X-0.450000X0.262500X0.450000X-0.262500X0.450000X0*%
%ADD13RoundRect,0.250000X1.100000X-0.325000X1.100000X0.325000X-1.100000X0.325000X-1.100000X-0.325000X0*%
%ADD14RoundRect,0.250000X-0.312500X-1.450000X0.312500X-1.450000X0.312500X1.450000X-0.312500X1.450000X0*%
%ADD15RoundRect,0.250000X0.250000X0.475000X-0.250000X0.475000X-0.250000X-0.475000X0.250000X-0.475000X0*%
%ADD16RoundRect,0.243750X0.456250X-0.243750X0.456250X0.243750X-0.456250X0.243750X-0.456250X-0.243750X0*%
%ADD17RoundRect,0.250000X-1.400000X-1.000000X1.400000X-1.000000X1.400000X1.000000X-1.400000X1.000000X0*%
%ADD18RoundRect,0.150000X-0.150000X-0.575000X0.150000X-0.575000X0.150000X0.575000X-0.150000X0.575000X0*%
%ADD19RoundRect,0.075000X-0.075000X-0.650000X0.075000X-0.650000X0.075000X0.650000X-0.075000X0.650000X0*%
%ADD20RoundRect,0.250000X-1.000000X-0.900000X1.000000X-0.900000X1.000000X0.900000X-1.000000X0.900000X0*%
%ADD21RoundRect,0.250000X-0.250000X-0.475000X0.250000X-0.475000X0.250000X0.475000X-0.250000X0.475000X0*%
%ADD22R,2.900000X5.400000*%
%ADD23RoundRect,0.250000X-0.450000X0.262500X-0.450000X-0.262500X0.450000X-0.262500X0.450000X0.262500X0*%
%ADD24RoundRect,0.250000X-0.625000X0.312500X-0.625000X-0.312500X0.625000X-0.312500X0.625000X0.312500X0*%
%ADD25RoundRect,0.250000X-1.100000X0.325000X-1.100000X-0.325000X1.100000X-0.325000X1.100000X0.325000X0*%
%ADD26RoundRect,0.250000X0.262500X0.450000X-0.262500X0.450000X-0.262500X-0.450000X0.262500X-0.450000X0*%
%ADD27R,1.400000X1.325000*%
%ADD28R,1.450000X0.450000*%
%ADD29RoundRect,0.250000X0.595000X1.080000X-0.595000X1.080000X-0.595000X-1.080000X0.595000X-1.080000X0*%
%ADD30RoundRect,0.150000X0.687500X0.150000X-0.687500X0.150000X-0.687500X-0.150000X0.687500X-0.150000X0*%
%ADD31R,0.700000X0.500000*%
%ADD32R,0.800000X0.500000*%
%ADD33R,5.080000X2.290000*%
%ADD34R,5.080000X2.420000*%
%ADD35RoundRect,0.250000X-1.000000X-0.650000X1.000000X-0.650000X1.000000X0.650000X-1.000000X0.650000X0*%
%ADD36RoundRect,0.250000X1.000000X-1.400000X1.000000X1.400000X-1.000000X1.400000X-1.000000X-1.400000X0*%
%ADD37RoundRect,0.250000X1.275000X1.125000X-1.275000X1.125000X-1.275000X-1.125000X1.275000X-1.125000X0*%
%ADD38RoundRect,0.250000X0.850000X0.350000X-0.850000X0.350000X-0.850000X-0.350000X0.850000X-0.350000X0*%
%ADD39RoundRect,0.250000X-1.275000X-1.125000X1.275000X-1.125000X1.275000X1.125000X-1.275000X1.125000X0*%
%ADD40RoundRect,0.250000X-0.850000X-0.350000X0.850000X-0.350000X0.850000X0.350000X-0.850000X0.350000X0*%
%ADD41RoundRect,0.250000X-0.475000X0.250000X-0.475000X-0.250000X0.475000X-0.250000X0.475000X0.250000X0*%
G04 APERTURE END LIST*
D10*
%TO.C,C5*%
X181525000Y-61000000D03*
X184475000Y-61000000D03*
%TD*%
D11*
%TO.C,R34*%
X146037500Y-29500000D03*
X151962500Y-29500000D03*
%TD*%
D12*
%TO.C,R14*%
X49087500Y-78000000D03*
X50912500Y-78000000D03*
%TD*%
D13*
%TO.C,C33*%
X151300000Y-43975000D03*
X151300000Y-41025000D03*
%TD*%
D14*
%TO.C,F1*%
X39862500Y-120000000D03*
X44137500Y-120000000D03*
%TD*%
D15*
%TO.C,C1*%
X104950000Y-38000000D03*
X103050000Y-38000000D03*
%TD*%
D16*
%TO.C,D7*%
X209000000Y-121937500D03*
X209000000Y-120062500D03*
%TD*%
D17*
%TO.C,D4*%
X204000000Y-108600000D03*
X204000000Y-115400000D03*
%TD*%
D18*
%TO.C,J4*%
X26750000Y-121955000D03*
X27550000Y-121955000D03*
D19*
X28750000Y-121955000D03*
X29750000Y-121955000D03*
X30250000Y-121955000D03*
X31250000Y-121955000D03*
D18*
X32450000Y-121955000D03*
X33250000Y-121955000D03*
X33250000Y-121955000D03*
X32450000Y-121955000D03*
D19*
X31750000Y-121955000D03*
X30750000Y-121955000D03*
X29250000Y-121955000D03*
X28250000Y-121955000D03*
D18*
X27550000Y-121955000D03*
X26750000Y-121955000D03*
%TD*%
D12*
%TO.C,R12*%
X167087500Y-82000000D03*
X168912500Y-82000000D03*
%TD*%
D13*
%TO.C,C29*%
X50000000Y-121475000D03*
X50000000Y-118525000D03*
%TD*%
D12*
%TO.C,R20*%
X79387500Y-119700000D03*
X81212500Y-119700000D03*
%TD*%
D20*
%TO.C,D6*%
X13850000Y-120000000D03*
X18150000Y-120000000D03*
%TD*%
D13*
%TO.C,C34*%
X151300000Y-36475000D03*
X151300000Y-33525000D03*
%TD*%
D21*
%TO.C,C32*%
X138050000Y-127000000D03*
X139950000Y-127000000D03*
%TD*%
D11*
%TO.C,R29*%
X105037500Y-116000000D03*
X110962500Y-116000000D03*
%TD*%
D12*
%TO.C,R28*%
X157087500Y-124000000D03*
X158912500Y-124000000D03*
%TD*%
D22*
%TO.C,L5*%
X153050000Y-82000000D03*
X162950000Y-82000000D03*
%TD*%
D23*
%TO.C,R36*%
X209000000Y-116087500D03*
X209000000Y-117912500D03*
%TD*%
D22*
%TO.C,L7*%
X187950000Y-116000000D03*
X197850000Y-116000000D03*
%TD*%
D21*
%TO.C,C9*%
X32050000Y-34000000D03*
X33950000Y-34000000D03*
%TD*%
%TO.C,C7*%
X29050000Y-50000000D03*
X30950000Y-50000000D03*
%TD*%
D10*
%TO.C,C13*%
X48525000Y-84000000D03*
X51475000Y-84000000D03*
%TD*%
D24*
%TO.C,R37*%
X213000000Y-115137500D03*
X213000000Y-118062500D03*
%TD*%
D14*
%TO.C,L8*%
X153862500Y-38500000D03*
X158137500Y-38500000D03*
%TD*%
D25*
%TO.C,C28*%
X201500000Y-120525000D03*
X201500000Y-123475000D03*
%TD*%
D26*
%TO.C,R18*%
X62412500Y-122200000D03*
X60587500Y-122200000D03*
%TD*%
D12*
%TO.C,R10*%
X45087500Y-60000000D03*
X46912500Y-60000000D03*
%TD*%
D21*
%TO.C,C22*%
X150050000Y-127000000D03*
X151950000Y-127000000D03*
%TD*%
D12*
%TO.C,R13*%
X167087500Y-90000000D03*
X168912500Y-90000000D03*
%TD*%
D27*
%TO.C,U4*%
X114150000Y-122562500D03*
X114150000Y-124187500D03*
X114150000Y-125812500D03*
X114150000Y-127437500D03*
X115850000Y-122562500D03*
X115850000Y-124187500D03*
X115850000Y-125812500D03*
X115850000Y-127437500D03*
D28*
X112050000Y-122080000D03*
X112050000Y-122730000D03*
X112050000Y-123380000D03*
X112050000Y-124030000D03*
X112050000Y-124670000D03*
X112050000Y-125330000D03*
X112050000Y-125970000D03*
X112050000Y-126620000D03*
X112050000Y-127270000D03*
X112050000Y-127920000D03*
X117950000Y-127920000D03*
X117950000Y-127270000D03*
X117950000Y-126620000D03*
X117950000Y-125970000D03*
X117950000Y-125330000D03*
X117950000Y-124670000D03*
X117950000Y-124030000D03*
X117950000Y-123380000D03*
X117950000Y-122730000D03*
X117950000Y-122080000D03*
%TD*%
D12*
%TO.C,R8*%
X37087500Y-60000000D03*
X38912500Y-60000000D03*
%TD*%
%TO.C,R5*%
X52087500Y-89000000D03*
X53912500Y-89000000D03*
%TD*%
D13*
%TO.C,C30*%
X56000000Y-121475000D03*
X56000000Y-118525000D03*
%TD*%
D12*
%TO.C,R21*%
X79587500Y-122400000D03*
X81412500Y-122400000D03*
%TD*%
D29*
%TO.C,U3*%
X70000000Y-120000000D03*
D30*
X72637500Y-122000000D03*
X72637500Y-121000000D03*
X72637500Y-120000000D03*
X72637500Y-119000000D03*
X72637500Y-118000000D03*
X67362500Y-118000000D03*
X67362500Y-119000000D03*
X67362500Y-120000000D03*
X67362500Y-121000000D03*
X67362500Y-122000000D03*
%TD*%
D10*
%TO.C,C6*%
X198525000Y-63000000D03*
X201475000Y-63000000D03*
%TD*%
D31*
%TO.C,U1*%
X52900000Y-50000000D03*
D32*
X54000000Y-51100000D03*
D31*
X55100000Y-50000000D03*
D32*
X54000000Y-48900000D03*
%TD*%
D33*
%TO.C,J1*%
X2540000Y-50000000D03*
D34*
X2540000Y-45620000D03*
X2540000Y-54380000D03*
%TD*%
D35*
%TO.C,D3*%
X146000000Y-93000000D03*
X150000000Y-93000000D03*
%TD*%
D12*
%TO.C,R22*%
X96087500Y-124000000D03*
X97912500Y-124000000D03*
%TD*%
D36*
%TO.C,D1*%
X190600000Y-97000000D03*
X197400000Y-97000000D03*
%TD*%
D12*
%TO.C,R27*%
X151087500Y-124000000D03*
X152912500Y-124000000D03*
%TD*%
%TO.C,R9*%
X37087500Y-50000000D03*
X38912500Y-50000000D03*
%TD*%
%TO.C,R24*%
X102087500Y-124000000D03*
X103912500Y-124000000D03*
%TD*%
D10*
%TO.C,C10*%
X126525000Y-82000000D03*
X129475000Y-82000000D03*
%TD*%
D12*
%TO.C,R1*%
X89087500Y-40000000D03*
X90912500Y-40000000D03*
%TD*%
D21*
%TO.C,C8*%
X64050000Y-50000000D03*
X65950000Y-50000000D03*
%TD*%
D12*
%TO.C,R11*%
X57087500Y-34000000D03*
X58912500Y-34000000D03*
%TD*%
D10*
%TO.C,C3*%
X147525000Y-61000000D03*
X150475000Y-61000000D03*
%TD*%
D37*
%TO.C,Q6*%
X136415000Y-117525000D03*
X136415000Y-114475000D03*
X133065000Y-117525000D03*
X133065000Y-114475000D03*
D38*
X141040000Y-118280000D03*
X141040000Y-113720000D03*
%TD*%
D10*
%TO.C,C4*%
X164525000Y-61000000D03*
X167475000Y-61000000D03*
%TD*%
D11*
%TO.C,R35*%
X154037500Y-29500000D03*
X159962500Y-29500000D03*
%TD*%
D16*
%TO.C,D8*%
X213000000Y-122337500D03*
X213000000Y-120462500D03*
%TD*%
D12*
%TO.C,R32*%
X59087500Y-120000000D03*
X60912500Y-120000000D03*
%TD*%
D39*
%TO.C,Q7*%
X148585000Y-114475000D03*
X148585000Y-117525000D03*
X151935000Y-114475000D03*
X151935000Y-117525000D03*
D40*
X143960000Y-113720000D03*
X143960000Y-118280000D03*
%TD*%
D41*
%TO.C,C31*%
X77400000Y-123050000D03*
X77400000Y-124950000D03*
%TD*%
D12*
%TO.C,R19*%
X84087500Y-121000000D03*
X85912500Y-121000000D03*
%TD*%
D22*
%TO.C,L6*%
X116050000Y-113000000D03*
X125950000Y-113000000D03*
%TD*%
D21*
%TO.C,C21*%
X144050000Y-124000000D03*
X145950000Y-124000000D03*
%TD*%
D12*
%TO.C,R2*%
X89087500Y-60000000D03*
X90912500Y-60000000D03*
%TD*%
D23*
%TO.C,R31*%
X92000000Y-116087500D03*
X92000000Y-117912500D03*
%TD*%
D12*
%TO.C,R26*%
X132087500Y-124000000D03*
X133912500Y-124000000D03*
%TD*%
%TO.C,R25*%
X108087500Y-127000000D03*
X109912500Y-127000000D03*
%TD*%
%TO.C,R4*%
X59087500Y-89000000D03*
X60912500Y-89000000D03*
%TD*%
%TO.C,R23*%
X96087500Y-127000000D03*
X97912500Y-127000000D03*
%TD*%
D33*
%TO.C,J2*%
X217460000Y-50000000D03*
D34*
X217460000Y-54380000D03*
X217460000Y-45620000D03*
%TD*%
D12*
%TO.C,R3*%
X76087500Y-82000000D03*
X77912500Y-82000000D03*
%TD*%
D10*
%TO.C,C23*%
X143525000Y-127000000D03*
X146475000Y-127000000D03*
%TD*%
D11*
%TO.C,R7*%
X108037500Y-62000000D03*
X113962500Y-62000000D03*
%TD*%
D13*
%TO.C,C24*%
X156000000Y-114475000D03*
X156000000Y-111525000D03*
%TD*%
D21*
%TO.C,C20*%
X138050000Y-124000000D03*
X139950000Y-124000000D03*
%TD*%
D25*
%TO.C,C25*%
X156000000Y-117525000D03*
X156000000Y-120475000D03*
%TD*%
D12*
%TO.C,R33*%
X132087500Y-127000000D03*
X133912500Y-127000000D03*
%TD*%
D21*
%TO.C,C14*%
X85050000Y-76000000D03*
X86950000Y-76000000D03*
%TD*%
D15*
%TO.C,C2*%
X104950000Y-62000000D03*
X103050000Y-62000000D03*
%TD*%
D11*
%TO.C,R6*%
X108037500Y-38000000D03*
X113962500Y-38000000D03*
%TD*%
D21*
%TO.C,C19*%
X102050000Y-127000000D03*
X103950000Y-127000000D03*
%TD*%
M02*
